<svg width="77" height="16" viewBox="0 0 77 16" fill="none" xmlns="http://www.w3.org/2000/svg">
<path d="M0.376 12V0.832H2.184V10.4H6.728V12H0.376ZM9.33113 2.192C8.96846 2.192 8.70179 2.10667 8.53113 1.936C8.37113 1.76533 8.29113 1.54667 8.29113 1.28V1.008C8.29113 0.741333 8.37113 0.522666 8.53113 0.351999C8.70179 0.181333 8.96846 0.0959997 9.33113 0.0959997C9.69379 0.0959997 9.95513 0.181333 10.1151 0.351999C10.2751 0.522666 10.3551 0.741333 10.3551 1.008V1.28C10.3551 1.54667 10.2751 1.76533 10.1151 1.936C9.95513 2.10667 9.69379 2.192 9.33113 2.192ZM8.45113 3.68H10.1951V12H8.45113V3.68ZM12.0135 12V10.592L16.4775 5.104H12.1575V3.68H18.5415V5.024L14.0135 10.576H18.6535V12H12.0135ZM20.4824 0.16H22.2264V7.424H22.3064L23.4584 5.936L25.4584 3.68H27.4904L24.5784 6.896L27.8424 12H25.7624L23.3784 8.032L22.2264 9.28V12H20.4824V0.16ZM35.2815 12C34.8228 12 34.4708 11.872 34.2255 11.616C33.9802 11.3493 33.8308 11.0133 33.7775 10.608H33.6975C33.5375 11.1307 33.2442 11.5253 32.8175 11.792C32.3908 12.0587 31.8735 12.192 31.2655 12.192C30.4015 12.192 29.7348 11.968 29.2655 11.52C28.8068 11.072 28.5775 10.4693 28.5775 9.712C28.5775 8.88 28.8762 8.256 29.4735 7.84C30.0815 7.424 30.9668 7.216 32.1295 7.216H33.6335V6.512C33.6335 6 33.4948 5.60533 33.2175 5.328C32.9402 5.05067 32.5082 4.912 31.9215 4.912C31.4308 4.912 31.0308 5.01867 30.7215 5.232C30.4122 5.44533 30.1508 5.71733 29.9375 6.048L28.8975 5.104C29.1748 4.63467 29.5642 4.25067 30.0655 3.952C30.5668 3.64267 31.2228 3.488 32.0335 3.488C33.1108 3.488 33.9375 3.73867 34.5135 4.24C35.0895 4.74133 35.3775 5.46133 35.3775 6.4V10.576H36.2575V12H35.2815ZM31.7615 10.864C32.3055 10.864 32.7535 10.7467 33.1055 10.512C33.4575 10.2667 33.6335 9.94133 33.6335 9.536V8.336H32.1615C30.9562 8.336 30.3535 8.70933 30.3535 9.456V9.744C30.3535 10.1173 30.4762 10.4 30.7215 10.592C30.9775 10.7733 31.3242 10.864 31.7615 10.864ZM45.2628 12.784C45.2628 13.648 44.9321 14.2987 44.2708 14.736C43.6094 15.1733 42.5321 15.392 41.0388 15.392C40.3561 15.392 39.7748 15.344 39.2948 15.248C38.8254 15.1627 38.4361 15.0347 38.1268 14.864C37.8281 14.6933 37.6094 14.4853 37.4708 14.24C37.3321 13.9947 37.2628 13.712 37.2628 13.392C37.2628 12.9333 37.3854 12.576 37.6308 12.32C37.8868 12.064 38.2388 11.888 38.6868 11.792V11.616C38.0574 11.4133 37.7428 10.9867 37.7428 10.336C37.7428 9.90933 37.8868 9.584 38.1748 9.36C38.4628 9.12533 38.8094 8.96 39.2148 8.864V8.8C38.7241 8.56533 38.3454 8.24 38.0788 7.824C37.8228 7.39733 37.6948 6.90133 37.6948 6.336C37.6948 5.48267 37.9774 4.79467 38.5428 4.272C39.1188 3.74933 39.9401 3.488 41.0068 3.488C41.5934 3.488 42.0948 3.57333 42.5108 3.744V3.52C42.5108 3.14667 42.5961 2.85867 42.7668 2.656C42.9481 2.44267 43.2254 2.336 43.5988 2.336H44.8788V3.744H43.1828V4.08C43.5561 4.32533 43.8441 4.64533 44.0468 5.04C44.2494 5.424 44.3508 5.856 44.3508 6.336C44.3508 7.17867 44.0628 7.86133 43.4868 8.384C42.9108 8.896 42.0894 9.152 41.0228 9.152C40.6174 9.152 40.2548 9.10933 39.9348 9.024C39.7214 9.09867 39.5348 9.20533 39.3748 9.344C39.2148 9.472 39.1348 9.64267 39.1348 9.856C39.1348 10.08 39.2361 10.24 39.4388 10.336C39.6414 10.432 39.9294 10.48 40.3028 10.48H42.3508C43.3748 10.48 44.1161 10.688 44.5748 11.104C45.0334 11.5093 45.2628 12.0693 45.2628 12.784ZM43.6308 12.976C43.6308 12.688 43.5188 12.4587 43.2948 12.288C43.0814 12.1173 42.6868 12.032 42.1108 12.032H39.2948C38.9108 12.256 38.7188 12.576 38.7188 12.992C38.7188 13.3333 38.8521 13.6053 39.1188 13.808C39.3961 14.0213 39.8601 14.128 40.5108 14.128H41.5988C42.9534 14.128 43.6308 13.744 43.6308 12.976ZM41.0228 7.888C41.5348 7.888 41.9294 7.776 42.2068 7.552C42.4948 7.31733 42.6388 6.96 42.6388 6.48V6.16C42.6388 5.68 42.4948 5.328 42.2068 5.104C41.9294 4.86933 41.5348 4.752 41.0228 4.752C40.5108 4.752 40.1108 4.86933 39.8228 5.104C39.5454 5.328 39.4068 5.68 39.4068 6.16V6.48C39.4068 6.96 39.5454 7.31733 39.8228 7.552C40.1108 7.776 40.5108 7.888 41.0228 7.888ZM47.4405 2.192C47.0778 2.192 46.8112 2.10667 46.6405 1.936C46.4805 1.76533 46.4005 1.54667 46.4005 1.28V1.008C46.4005 0.741333 46.4805 0.522666 46.6405 0.351999C46.8112 0.181333 47.0778 0.0959997 47.4405 0.0959997C47.8032 0.0959997 48.0645 0.181333 48.2245 0.351999C48.3845 0.522666 48.4645 0.741333 48.4645 1.008V1.28C48.4645 1.54667 48.3845 1.76533 48.2245 1.936C48.0645 2.10667 47.8032 2.192 47.4405 2.192ZM46.5605 3.68H48.3045V12H46.5605V3.68ZM50.7949 12V3.68H52.5389V5.056H52.6189C52.7042 4.84267 52.8055 4.64 52.9229 4.448C53.0509 4.256 53.2002 4.09067 53.3709 3.952C53.5522 3.80267 53.7602 3.69067 53.9949 3.616C54.2402 3.53067 54.5229 3.488 54.8429 3.488C55.4082 3.488 55.9095 3.62667 56.3469 3.904C56.7842 4.18133 57.1042 4.608 57.3069 5.184H57.3549C57.5042 4.71467 57.7922 4.31467 58.2189 3.984C58.6455 3.65333 59.1949 3.488 59.8669 3.488C60.6989 3.488 61.3442 3.77067 61.8029 4.336C62.2615 4.89067 62.4909 5.68533 62.4909 6.72V12H60.7469V6.928C60.7469 6.288 60.6242 5.808 60.3789 5.488C60.1335 5.15733 59.7442 4.992 59.2109 4.992C58.9869 4.992 58.7735 5.024 58.5709 5.088C58.3682 5.14133 58.1869 5.22667 58.0269 5.344C57.8775 5.46133 57.7549 5.61067 57.6589 5.792C57.5629 5.97333 57.5149 6.18133 57.5149 6.416V12H55.7709V6.928C55.7709 5.63733 55.2642 4.992 54.2509 4.992C54.0375 4.992 53.8242 5.024 53.6109 5.088C53.4082 5.14133 53.2269 5.22667 53.0669 5.344C52.9069 5.46133 52.7789 5.61067 52.6829 5.792C52.5869 5.97333 52.5389 6.18133 52.5389 6.416V12H50.7949ZM64.9043 0.16H66.6483V5.056H66.7283C66.9096 4.55467 67.2029 4.17067 67.6083 3.904C68.0243 3.62667 68.5096 3.488 69.0643 3.488C70.1203 3.488 70.9363 3.872 71.5123 4.64C72.0883 5.39733 72.3763 6.464 72.3763 7.84C72.3763 9.216 72.0883 10.288 71.5123 11.056C70.9363 11.8133 70.1203 12.192 69.0643 12.192C68.5096 12.192 68.0243 12.0533 67.6083 11.776C67.2029 11.4987 66.9096 11.1147 66.7283 10.624H66.6483V12H64.9043V0.16ZM68.5363 10.688C69.1443 10.688 69.6296 10.496 69.9923 10.112C70.3549 9.71733 70.5363 9.2 70.5363 8.56V7.12C70.5363 6.48 70.3549 5.968 69.9923 5.584C69.6296 5.18933 69.1443 4.992 68.5363 4.992C68.0029 4.992 67.5549 5.12533 67.1923 5.392C66.8296 5.648 66.6483 5.98933 66.6483 6.416V9.264C66.6483 9.69067 66.8296 10.0373 67.1923 10.304C67.5549 10.56 68.0029 10.688 68.5363 10.688ZM75.253 2.192C74.8903 2.192 74.6237 2.10667 74.453 1.936C74.293 1.76533 74.213 1.54667 74.213 1.28V1.008C74.213 0.741333 74.293 0.522666 74.453 0.351999C74.6237 0.181333 74.8903 0.0959997 75.253 0.0959997C75.6157 0.0959997 75.877 0.181333 76.037 0.351999C76.197 0.522666 76.277 0.741333 76.277 1.008V1.28C76.277 1.54667 76.197 1.76533 76.037 1.936C75.877 2.10667 75.6157 2.192 75.253 2.192ZM74.373 3.68H76.117V12H74.373V3.68Z" fill="white"/>
</svg>
