<svg width="116" height="61" viewBox="0 0 116 61" fill="none" xmlns="http://www.w3.org/2000/svg">
<path d="M1.13 0.999999H7.07V16.96H17.12V22H1.13V0.999999ZM18.8935 3.37C18.8935 2.49 19.2035 1.81 19.8235 1.33C20.4435 0.829999 21.1735 0.579999 22.0135 0.579999C22.8535 0.579999 23.5735 0.829999 24.1735 1.33C24.7935 1.81 25.1035 2.49 25.1035 3.37C25.1035 4.23 24.7935 4.91 24.1735 5.41C23.5535 5.89 22.8335 6.13 22.0135 6.13C21.1735 6.13 20.4435 5.89 19.8235 5.41C19.2035 4.91 18.8935 4.23 18.8935 3.37ZM19.2235 22H24.7735V7.42H19.2235V22ZM27.6526 7.18H40.0426V9.04L34.4026 17.26H40.3126V22H27.0826V20.29L32.9926 11.56H27.6526V7.18ZM0.62 31H6.17V41.53L9.26 37.18H15.41V37.42L10.22 44.14L16.25 51.67V52H10.01L6.17 46.84V52H0.62V31ZM27.6491 38.77L27.9191 37.18H33.1091V52H28.0091L27.7691 50.41C27.1691 51.09 26.4291 51.58 25.5491 51.88C24.6691 52.18 23.7791 52.31 22.8791 52.27C20.7391 52.13 19.0691 51.37 17.8691 49.99C16.6891 48.59 16.0991 46.79 16.0991 44.59C16.0991 42.37 16.7591 40.53 18.0791 39.07C19.4191 37.59 21.1591 36.85 23.2991 36.85C25.3591 36.85 26.8091 37.49 27.6491 38.77ZM24.5591 41.32C23.6991 41.32 22.9891 41.62 22.4291 42.22C21.8691 42.8 21.5891 43.59 21.5891 44.59C21.5891 45.59 21.8691 46.38 22.4291 46.96C22.9891 47.54 23.6991 47.83 24.5591 47.83C25.4591 47.83 26.1891 47.52 26.7491 46.9C27.3291 46.26 27.6191 45.49 27.6191 44.59C27.6191 43.59 27.3491 42.8 26.8091 42.22C26.2691 41.62 25.5191 41.32 24.5591 41.32ZM35.7622 53.05H40.9522C40.9122 54.93 41.8422 55.87 43.7422 55.87C44.5222 55.87 45.1722 55.68 45.6922 55.3C46.2122 54.94 46.4722 54.42 46.4722 53.74C46.4722 52.42 45.5822 51.76 43.8022 51.76C41.3022 51.76 39.3022 51.09 37.8022 49.75C36.3022 48.39 35.5522 46.57 35.5522 44.29C35.5522 42.01 36.3322 40.18 37.8922 38.8C39.4722 37.4 41.4422 36.7 43.8022 36.7C44.8022 36.7 45.8222 36.89 46.8622 37.27C47.0022 37.09 47.2522 36.77 47.6122 36.31C47.9922 35.83 48.2722 35.47 48.4522 35.23L52.4422 38.08L50.5222 40.36C51.5222 41.48 51.9922 42.81 51.9322 44.35C51.8922 46.35 50.9922 47.99 49.2322 49.27C51.1722 50.37 52.1422 51.86 52.1422 53.74C52.1422 54.9 51.9022 55.91 51.4222 56.77C50.9622 57.65 50.3222 58.34 49.5022 58.84C48.7022 59.34 47.8122 59.71 46.8322 59.95C45.8722 60.21 44.8422 60.34 43.7422 60.34C41.1022 60.34 39.0722 59.69 37.6522 58.39C36.2322 57.11 35.6022 55.33 35.7622 53.05ZM43.8022 41.23C42.9622 41.23 42.2722 41.5 41.7322 42.04C41.1922 42.58 40.9222 43.33 40.9222 44.29C40.9222 45.15 41.1922 45.85 41.7322 46.39C42.2922 46.93 42.9822 47.2 43.8022 47.2C44.5822 47.2 45.2422 46.95 45.7822 46.45C46.3222 45.95 46.5922 45.23 46.5922 44.29C46.5922 43.43 46.3222 42.71 45.7822 42.13C45.2622 41.53 44.6022 41.23 43.8022 41.23ZM54.4892 33.37C54.4892 32.49 54.7992 31.81 55.4192 31.33C56.0392 30.83 56.7692 30.58 57.6092 30.58C58.4492 30.58 59.1692 30.83 59.7692 31.33C60.3892 31.81 60.6992 32.49 60.6992 33.37C60.6992 34.23 60.3892 34.91 59.7692 35.41C59.1492 35.89 58.4292 36.13 57.6092 36.13C56.7692 36.13 56.0392 35.89 55.4192 35.41C54.7992 34.91 54.4892 34.23 54.4892 33.37ZM54.8192 52H60.3692V37.42H54.8192V52ZM78.0383 52H72.6083V43.78C72.6083 42.26 72.0883 41.5 71.0483 41.5C70.5283 41.5 70.0783 41.71 69.6983 42.13C69.3183 42.53 69.1183 43.11 69.0983 43.87V52H63.6083V37.18H68.2583L68.6483 38.77C69.0883 38.15 69.6783 37.68 70.4183 37.36C71.1583 37.02 71.9283 36.86 72.7283 36.88C74.4483 36.92 75.6783 37.62 76.4183 38.98C77.5583 37.56 79.1983 36.85 81.3383 36.85C83.0583 36.85 84.4283 37.42 85.4483 38.56C86.4883 39.68 87.0083 41.41 87.0083 43.75V52H81.4883V43.78C81.4883 43.04 81.3383 42.49 81.0383 42.13C80.7583 41.77 80.3983 41.59 79.9583 41.59C79.4383 41.59 78.9883 41.78 78.6083 42.16C78.2283 42.52 78.0383 43.08 78.0383 43.84V52ZM95.5834 31V38.44C96.4434 37.38 97.8134 36.85 99.6934 36.85C101.833 36.85 103.563 37.57 104.883 39.01C106.223 40.45 106.893 42.31 106.893 44.59C106.893 46.93 106.303 48.76 105.123 50.08C103.963 51.4 102.293 52.13 100.113 52.27C99.2134 52.31 98.3234 52.18 97.4434 51.88C96.5634 51.58 95.8234 51.09 95.2234 50.41L94.9834 52H90.0634V31H95.5834ZM98.4334 41.32C97.4934 41.32 96.7634 41.65 96.2434 42.31C95.7234 42.97 95.4634 43.78 95.4634 44.74C95.4634 45.56 95.7334 46.28 96.2734 46.9C96.8334 47.52 97.5534 47.83 98.4334 47.83C99.2934 47.83 100.003 47.54 100.563 46.96C101.123 46.38 101.403 45.59 101.403 44.59C101.403 43.59 101.123 42.8 100.563 42.22C100.003 41.62 99.2934 41.32 98.4334 41.32ZM109.011 33.37C109.011 32.49 109.321 31.81 109.941 31.33C110.561 30.83 111.291 30.58 112.131 30.58C112.971 30.58 113.691 30.83 114.291 31.33C114.911 31.81 115.221 32.49 115.221 33.37C115.221 34.23 114.911 34.91 114.291 35.41C113.671 35.89 112.951 36.13 112.131 36.13C111.291 36.13 110.561 35.89 109.941 35.41C109.321 34.91 109.011 34.23 109.011 33.37ZM109.341 52H114.891V37.42H109.341V52Z" fill="#10498C"/>
</svg>
