<svg width="132" height="70" viewBox="0 0 132 70" fill="none" xmlns="http://www.w3.org/2000/svg">
<path d="M18.6515 21.5087H5.32937V0.120911H0.445679V26.0223H18.6515V21.5087Z" fill="white"/>
<path d="M26.682 2.63565C26.682 -0.878551 21.3527 -0.878551 21.3527 2.63565C21.3527 6.15255 26.682 6.15255 26.682 2.63565Z" fill="white"/>
<path d="M26.2741 7.70575H21.7605V26.0223H26.2741V7.70575Z" fill="white"/>
<path d="M44.5528 21.5843H36.0793L44.4799 9.92609V7.78137H29.864V11.8871H37.9296L29.1968 24.1369V26.0223H44.5528V21.5843Z" fill="white"/>
<path d="M16.0611 39.6442V39.3849H10.6588L4.51633 46.7104V31.7622H0V57.6258H4.51633V49.3764L11.6555 57.6258H17.0956V57.2935L8.62208 47.9691L16.0611 39.6442Z" fill="white"/>
<path d="M28.0866 54.0386C25.0883 54.0386 22.6843 51.9668 22.6843 48.4877C22.6843 45.0086 25.0883 42.9747 28.0866 42.9747C30.8607 42.9747 32.5516 44.6629 33.1594 46.7185H37.9674V39.3848H33.6375L33.4889 41.9023C32.4517 40.0898 30.1206 38.9419 27.6787 38.9419C22.3494 38.904 18.168 42.1994 18.168 48.4877C18.168 54.8895 22.163 58.22 27.568 58.1822C29.6047 58.1444 32.4517 57.1098 33.4889 54.9624L33.7104 57.6257H37.9647V50.4029H33.1216C32.4895 52.4098 30.8121 54.0386 28.0866 54.0386Z" fill="white"/>
<path d="M50.1064 53.1122C48.2183 53.1122 46.5841 52.1343 45.8116 50.4029H41.0846C41.9489 54.6842 45.247 57.2179 50.1091 57.2179C52.3673 57.2179 54.7335 58.3659 54.7335 60.8807C54.7335 63.3954 52.6968 64.8027 50.1091 64.8027C47.5187 64.8027 45.3362 63.2496 45.3362 60.8807H40.8577C40.8577 65.8022 44.8176 69.0219 50.1091 69.0219C55.4007 69.0219 59.2498 65.9129 59.2498 60.8807C59.2498 58.5496 58.5097 56.367 55.4763 54.849C57.5157 53.9171 58.5583 52.1478 59.0202 50.4029H54.3634C53.5828 52.1208 51.9621 53.1122 50.1064 53.1122Z" fill="white"/>
<path d="M50.1065 42.899C52.3106 42.899 54.1879 44.3496 54.7011 46.7185H59.2364C59.0392 45.2382 58.4854 43.8742 57.3969 42.6424L59.4308 40.052L56.1003 37.5345L54.2878 39.8278C53.0291 38.977 51.5489 38.7906 50.1065 38.7906C45.4091 38.7906 41.5276 41.7997 40.936 46.7158H45.474C45.9818 44.3279 47.8672 42.899 50.1065 42.899Z" fill="white"/>
<path d="M66.7212 39.3093H62.2076V46.7158H66.7212V39.3093Z" fill="white"/>
<path d="M66.7212 50.4055H62.2076V57.6284H66.7212V50.4055Z" fill="white"/>
<path d="M67.1291 34.2392C67.1291 30.725 61.7997 30.725 61.7997 34.2392C61.7997 37.7561 67.1291 37.7561 67.1291 34.2392Z" fill="white"/>
<path d="M87.4418 50.4055H82.9282V57.6284H87.4418V50.4055Z" fill="white"/>
<path d="M75.3054 50.4055H70.7918V57.6284H75.3054V50.4055Z" fill="white"/>
<path d="M79.1925 43.2691C81.2697 43.2691 82.4879 44.8034 82.8282 46.7185H87.5661C87.9658 44.825 89.3596 43.3447 91.4044 43.3447C93.4735 43.3447 94.5053 44.8088 94.7728 46.7185H99.3269C99.0082 41.8969 96.4637 39.1255 91.6286 39.1255C89.2597 39.1255 87.1501 39.8657 85.524 42.4561C84.4868 39.9386 82.3042 39.0526 80.1217 39.0526C78.3821 39.0526 76.2725 39.7198 75.3109 41.5701L74.9787 39.3497H70.7973V46.7212H75.4271C75.8025 44.8061 77.145 43.2691 79.1925 43.2691Z" fill="white"/>
<path d="M99.3566 50.4055H94.843V57.6284H99.3566V50.4055Z" fill="white"/>
<path d="M114.051 43.1584C116.377 43.1584 118.316 44.4819 118.983 46.7185H123.632C122.951 41.589 119.261 38.9419 114.459 38.9419C112.535 38.9419 109.537 39.9791 108.465 41.8645V31.7622H103.951V46.7185H109.04C109.753 44.536 111.768 43.1584 114.051 43.1584Z" fill="white"/>
<path d="M114.051 53.8523C111.806 53.8523 109.818 52.5611 109.075 50.4029H103.949V57.6258H108.168L108.465 55.1083C109.872 57.2909 112.128 58.031 114.348 58.031C119.113 58.031 122.824 55.2272 123.597 50.4002H118.918C118.2 52.5125 116.309 53.8523 114.051 53.8523Z" fill="white"/>
<path d="M132 34.2392C132 30.725 126.671 30.725 126.671 34.2392C126.671 37.7561 132 37.7561 132 34.2392Z" fill="white"/>
<path d="M127.078 46.7185H130.558V50.4056H127.078V57.6258H131.592V39.3093H127.078V46.7185Z" fill="white"/>
</svg>
