<svg width="263" height="69" viewBox="0 0 263 69" fill="none" xmlns="http://www.w3.org/2000/svg">
<path d="M24 0H243C252.428 0 257.142 0 260.071 2.92893C263 5.85786 263 10.5719 263 20V49C263 58.4281 263 63.1421 260.071 66.0711C257.142 69 252.428 69 243 69H24V0Z" fill="#188AEC"/>
<path d="M52.1669 24.852V36.006C52.1669 36.7513 52.1843 37.4273 52.2189 38.034C52.2709 38.6407 52.4009 39.1607 52.6089 39.594C52.8169 40.01 53.1289 40.3307 53.5449 40.556C53.9609 40.7813 54.5329 40.894 55.2609 40.894C55.9889 40.894 56.5609 40.7813 56.9769 40.556C57.3929 40.3307 57.7049 40.01 57.9129 39.594C58.1209 39.1607 58.2423 38.6407 58.2769 38.034C58.3289 37.4273 58.3549 36.7513 58.3549 36.006V24.852H61.2669V35.486C61.2669 36.786 61.1889 37.93 61.0329 38.918C60.8943 39.8887 60.6083 40.7033 60.1749 41.362C59.7416 42.0033 59.1263 42.4887 58.3289 42.818C57.5489 43.1473 56.5263 43.312 55.2609 43.312C53.9956 43.312 52.9643 43.1473 52.1669 42.818C51.3869 42.4887 50.7803 42.0033 50.3469 41.362C49.9136 40.7033 49.6189 39.8887 49.4629 38.918C49.3243 37.93 49.2549 36.786 49.2549 35.486V24.852H52.1669ZM70.8768 43.312C69.4208 43.312 68.1641 43.078 67.1068 42.61C66.0668 42.142 65.2261 41.518 64.5848 40.738L66.3268 39.178C66.9161 39.8193 67.5748 40.3133 68.3028 40.66C69.0481 40.9893 69.9234 41.154 70.9288 41.154C71.8474 41.154 72.5841 40.998 73.1388 40.686C73.7108 40.374 73.9968 39.8887 73.9968 39.23C73.9968 38.9527 73.9448 38.7187 73.8408 38.528C73.7368 38.3373 73.5894 38.1813 73.3988 38.06C73.2081 37.9387 72.9828 37.8433 72.7228 37.774C72.4801 37.7047 72.2201 37.6527 71.9428 37.618L69.8108 37.28C69.2908 37.2107 68.7621 37.098 68.2248 36.942C67.6874 36.786 67.2021 36.5693 66.7688 36.292C66.3528 35.9973 66.0061 35.6247 65.7288 35.174C65.4688 34.7233 65.3388 34.1513 65.3388 33.458C65.3388 32.0887 65.8588 31.0487 66.8988 30.338C67.9561 29.6273 69.3428 29.272 71.0588 29.272C72.3068 29.272 73.3814 29.4627 74.2828 29.844C75.2014 30.208 75.9641 30.7193 76.5708 31.378L74.9848 33.042C74.6381 32.6433 74.1441 32.2793 73.5028 31.95C72.8614 31.6033 72.0121 31.43 70.9548 31.43C69.0654 31.43 68.1208 32.028 68.1208 33.224C68.1208 33.796 68.3201 34.1947 68.7188 34.42C69.1348 34.628 69.6201 34.7667 70.1748 34.836L72.3068 35.174C72.8441 35.2607 73.3728 35.3733 73.8928 35.512C74.4301 35.6507 74.9068 35.8673 75.3228 36.162C75.7561 36.4393 76.1028 36.8033 76.3628 37.254C76.6401 37.7047 76.7788 38.2767 76.7788 38.97C76.7788 40.322 76.2501 41.388 75.1928 42.168C74.1528 42.9307 72.7141 43.312 70.8768 43.312ZM86.7266 43.312C85.704 43.312 84.7853 43.1473 83.9706 42.818C83.156 42.4887 82.4713 42.0207 81.9166 41.414C81.362 40.8073 80.9373 40.0793 80.6426 39.23C80.348 38.3633 80.2006 37.3927 80.2006 36.318C80.2006 35.2433 80.348 34.2727 80.6426 33.406C80.9546 32.5393 81.3793 31.8027 81.9166 31.196C82.4713 30.572 83.1386 30.0953 83.9186 29.766C84.6986 29.4367 85.5653 29.272 86.5186 29.272C87.4546 29.272 88.304 29.4367 89.0666 29.766C89.8293 30.078 90.4793 30.5287 91.0166 31.118C91.554 31.7073 91.9613 32.4093 92.2386 33.224C92.5333 34.0387 92.6806 34.94 92.6806 35.928V36.994H83.0606V37.436C83.0606 38.4933 83.39 39.36 84.0486 40.036C84.7073 40.6947 85.6173 41.024 86.7786 41.024C87.6453 41.024 88.382 40.842 88.9886 40.478C89.6126 40.0967 90.1153 39.594 90.4966 38.97L92.2646 40.53C91.814 41.31 91.1206 41.9687 90.1846 42.506C89.266 43.0433 88.1133 43.312 86.7266 43.312ZM86.5186 31.43C86.016 31.43 85.548 31.5167 85.1146 31.69C84.6986 31.8633 84.3346 32.1147 84.0226 32.444C83.728 32.756 83.494 33.1287 83.3206 33.562C83.1473 33.9953 83.0606 34.472 83.0606 34.992V35.174H89.7946V34.914C89.7946 33.8567 89.4913 33.016 88.8846 32.392C88.2953 31.7507 87.5066 31.43 86.5186 31.43ZM96.2065 40.712H99.7685V31.872H96.2065V29.584H102.602V33.146H102.758C102.88 32.678 103.053 32.2273 103.278 31.794C103.504 31.3607 103.79 30.988 104.136 30.676C104.483 30.3467 104.908 30.0867 105.41 29.896C105.913 29.688 106.502 29.584 107.178 29.584H108.79V32.288H106.138C105.098 32.288 104.249 32.6 103.59 33.224C102.932 33.8307 102.602 34.654 102.602 35.694V40.712H107.464V43H96.2065V40.712ZM127.594 43V24.852H134.38C136.113 24.852 137.431 25.3373 138.332 26.308C139.251 27.2787 139.71 28.6133 139.71 30.312C139.71 32.0107 139.251 33.3453 138.332 34.316C137.431 35.2867 136.113 35.772 134.38 35.772H130.506V43H127.594ZM130.506 33.354H133.938C135.741 33.354 136.642 32.522 136.642 30.858V29.74C136.642 28.0933 135.741 27.27 133.938 27.27H130.506V33.354ZM149.086 43.312C148.063 43.312 147.145 43.1473 146.33 42.818C145.515 42.4887 144.831 42.0207 144.276 41.414C143.721 40.8073 143.297 40.0793 143.002 39.23C142.707 38.3633 142.56 37.3927 142.56 36.318C142.56 35.2433 142.707 34.2727 143.002 33.406C143.314 32.5393 143.739 31.8027 144.276 31.196C144.831 30.572 145.498 30.0953 146.278 29.766C147.058 29.4367 147.925 29.272 148.878 29.272C149.814 29.272 150.663 29.4367 151.426 29.766C152.189 30.078 152.839 30.5287 153.376 31.118C153.913 31.7073 154.321 32.4093 154.598 33.224C154.893 34.0387 155.04 34.94 155.04 35.928V36.994H145.42V37.436C145.42 38.4933 145.749 39.36 146.408 40.036C147.067 40.6947 147.977 41.024 149.138 41.024C150.005 41.024 150.741 40.842 151.348 40.478C151.972 40.0967 152.475 39.594 152.856 38.97L154.624 40.53C154.173 41.31 153.48 41.9687 152.544 42.506C151.625 43.0433 150.473 43.312 149.086 43.312ZM148.878 31.43C148.375 31.43 147.907 31.5167 147.474 31.69C147.058 31.8633 146.694 32.1147 146.382 32.444C146.087 32.756 145.853 33.1287 145.68 33.562C145.507 33.9953 145.42 34.472 145.42 34.992V35.174H152.154V34.914C152.154 33.8567 151.851 33.016 151.244 32.392C150.655 31.7507 149.866 31.43 148.878 31.43ZM158.566 40.712H162.128V31.872H158.566V29.584H164.962V33.146H165.118C165.239 32.678 165.413 32.2273 165.638 31.794C165.863 31.3607 166.149 30.988 166.496 30.676C166.843 30.3467 167.267 30.0867 167.77 29.896C168.273 29.688 168.862 29.584 169.538 29.584H171.15V32.288H168.498C167.458 32.288 166.609 32.6 165.95 33.224C165.291 33.8307 164.962 34.654 164.962 35.694V40.712H169.824V43H158.566V40.712ZM180.006 43.312C178.55 43.312 177.293 43.078 176.236 42.61C175.196 42.142 174.355 41.518 173.714 40.738L175.456 39.178C176.045 39.8193 176.704 40.3133 177.432 40.66C178.177 40.9893 179.052 41.154 180.058 41.154C180.976 41.154 181.713 40.998 182.268 40.686C182.84 40.374 183.126 39.8887 183.126 39.23C183.126 38.9527 183.074 38.7187 182.97 38.528C182.866 38.3373 182.718 38.1813 182.528 38.06C182.337 37.9387 182.112 37.8433 181.852 37.774C181.609 37.7047 181.349 37.6527 181.072 37.618L178.94 37.28C178.42 37.2107 177.891 37.098 177.354 36.942C176.816 36.786 176.331 36.5693 175.898 36.292C175.482 35.9973 175.135 35.6247 174.858 35.174C174.598 34.7233 174.468 34.1513 174.468 33.458C174.468 32.0887 174.988 31.0487 176.028 30.338C177.085 29.6273 178.472 29.272 180.188 29.272C181.436 29.272 182.51 29.4627 183.412 29.844C184.33 30.208 185.093 30.7193 185.7 31.378L184.114 33.042C183.767 32.6433 183.273 32.2793 182.632 31.95C181.99 31.6033 181.141 31.43 180.084 31.43C178.194 31.43 177.25 32.028 177.25 33.224C177.25 33.796 177.449 34.1947 177.848 34.42C178.264 34.628 178.749 34.7667 179.304 34.836L181.436 35.174C181.973 35.2607 182.502 35.3733 183.022 35.512C183.559 35.6507 184.036 35.8673 184.452 36.162C184.885 36.4393 185.232 36.8033 185.492 37.254C185.769 37.7047 185.908 38.2767 185.908 38.97C185.908 40.322 185.379 41.388 184.322 42.168C183.282 42.9307 181.843 43.312 180.006 43.312ZM195.57 43.312C194.582 43.312 193.689 43.1473 192.892 42.818C192.112 42.4887 191.444 42.0207 190.89 41.414C190.352 40.8073 189.936 40.0707 189.642 39.204C189.347 38.3373 189.2 37.3667 189.2 36.292C189.2 35.2173 189.347 34.2467 189.642 33.38C189.936 32.5133 190.352 31.7767 190.89 31.17C191.444 30.5633 192.112 30.0953 192.892 29.766C193.689 29.4367 194.582 29.272 195.57 29.272C196.558 29.272 197.442 29.4367 198.222 29.766C199.019 30.0953 199.686 30.5633 200.224 31.17C200.778 31.7767 201.203 32.5133 201.498 33.38C201.792 34.2467 201.94 35.2173 201.94 36.292C201.94 37.3667 201.792 38.3373 201.498 39.204C201.203 40.0707 200.778 40.8073 200.224 41.414C199.686 42.0207 199.019 42.4887 198.222 42.818C197.442 43.1473 196.558 43.312 195.57 43.312ZM195.57 41.076C196.61 41.076 197.433 40.764 198.04 40.14C198.664 39.4987 198.976 38.554 198.976 37.306V35.278C198.976 34.03 198.664 33.094 198.04 32.47C197.433 31.8287 196.61 31.508 195.57 31.508C194.53 31.508 193.698 31.8287 193.074 32.47C192.467 33.094 192.164 34.03 192.164 35.278V37.306C192.164 38.554 192.467 39.4987 193.074 40.14C193.698 40.764 194.53 41.076 195.57 41.076ZM205.543 43V29.584H208.377V31.872H208.507C208.646 31.5253 208.819 31.196 209.027 30.884C209.253 30.5547 209.521 30.2773 209.833 30.052C210.145 29.8093 210.509 29.6187 210.925 29.48C211.341 29.3413 211.827 29.272 212.381 29.272C213.733 29.272 214.825 29.714 215.657 30.598C216.489 31.482 216.905 32.7387 216.905 34.368V43H214.071V34.784C214.071 32.652 213.144 31.586 211.289 31.586C210.925 31.586 210.57 31.638 210.223 31.742C209.877 31.8287 209.565 31.9673 209.287 32.158C209.01 32.3487 208.785 32.5913 208.611 32.886C208.455 33.1807 208.377 33.5187 208.377 33.9V43H205.543ZM231.741 43C230.927 43 230.311 42.792 229.895 42.376C229.497 41.96 229.254 41.414 229.167 40.738H229.037C228.777 41.5527 228.301 42.1853 227.607 42.636C226.931 43.0867 226.065 43.312 225.007 43.312C223.638 43.312 222.546 42.9567 221.731 42.246C220.917 41.518 220.509 40.5213 220.509 39.256C220.509 37.956 220.986 36.968 221.939 36.292C222.91 35.5987 224.392 35.252 226.385 35.252H228.959V34.212C228.959 32.392 227.997 31.482 226.073 31.482C225.207 31.482 224.505 31.6553 223.967 32.002C223.43 32.3313 222.979 32.7733 222.615 33.328L220.925 31.95C221.307 31.222 221.948 30.598 222.849 30.078C223.751 29.5407 224.912 29.272 226.333 29.272C228.032 29.272 229.367 29.6793 230.337 30.494C231.308 31.3087 231.793 32.4873 231.793 34.03V40.764H233.483V43H231.741ZM225.813 41.232C226.732 41.232 227.486 41.024 228.075 40.608C228.665 40.192 228.959 39.6547 228.959 38.996V37.046H226.437C224.392 37.046 223.369 37.6613 223.369 38.892V39.412C223.369 40.0187 223.586 40.478 224.019 40.79C224.453 41.0847 225.051 41.232 225.813 41.232Z" fill="#F6FAFE"/>
<path d="M0 34.5L24 0.5V68L0 34.5Z" fill="#188AEC"/>
</svg>
