<svg width="804" height="239" viewBox="0 0 804 239" fill="none" xmlns="http://www.w3.org/2000/svg">
<path d="M24.0715 180.346H50.2915V193H8.11151V113.428H24.0715V180.346ZM116.296 160.054C116.296 162.334 116.144 164.386 115.84 166.21H69.6697C70.0497 170.77 71.6457 174.342 74.4577 176.926C77.2697 179.51 80.7277 180.802 84.8317 180.802C90.7597 180.802 94.9777 178.256 97.4857 173.164H114.7C112.876 179.244 109.38 184.26 104.212 188.212C99.0437 192.088 92.6977 194.026 85.1737 194.026C79.0937 194.026 73.6217 192.696 68.7577 190.036C63.9697 187.3 60.2077 183.462 57.4717 178.522C54.8117 173.582 53.4817 167.882 53.4817 161.422C53.4817 154.886 54.8117 149.148 57.4717 144.208C60.1317 139.268 63.8557 135.468 68.6437 132.808C73.4317 130.148 78.9417 128.818 85.1737 128.818C91.1777 128.818 96.5357 130.11 101.248 132.694C106.036 135.278 109.722 138.964 112.306 143.752C114.966 148.464 116.296 153.898 116.296 160.054ZM99.7657 155.494C99.6897 151.39 98.2077 148.122 95.3197 145.69C92.4317 143.182 88.8977 141.928 84.7177 141.928C80.7657 141.928 77.4217 143.144 74.6857 145.576C72.0257 147.932 70.3917 151.238 69.7837 155.494H99.7657ZM143.677 142.954V173.506C143.677 175.634 144.171 177.192 145.159 178.18C146.223 179.092 147.971 179.548 150.403 179.548H157.813V193H147.781C134.329 193 127.603 186.464 127.603 173.392V142.954H120.079V129.844H127.603V114.226H143.677V129.844H157.813V142.954H143.677ZM169.634 113.428H186.392L174.08 142.156H163.136L169.634 113.428ZM219.155 194.026C213.987 194.026 209.351 193.114 205.247 191.29C201.143 189.39 197.875 186.844 195.443 183.652C193.087 180.46 191.795 176.926 191.567 173.05H207.641C207.945 175.482 209.123 177.496 211.175 179.092C213.303 180.688 215.925 181.486 219.041 181.486C222.081 181.486 224.437 180.878 226.109 179.662C227.857 178.446 228.731 176.888 228.731 174.988C228.731 172.936 227.667 171.416 225.539 170.428C223.487 169.364 220.181 168.224 215.621 167.008C210.909 165.868 207.033 164.69 203.993 163.474C201.029 162.258 198.445 160.396 196.241 157.888C194.113 155.38 193.049 151.998 193.049 147.742C193.049 144.246 194.037 141.054 196.013 138.166C198.065 135.278 200.953 132.998 204.677 131.326C208.477 129.654 212.923 128.818 218.015 128.818C225.539 128.818 231.543 130.718 236.027 134.518C240.511 138.242 242.981 143.296 243.437 149.68H228.161C227.933 147.172 226.869 145.196 224.969 143.752C223.145 142.232 220.675 141.472 217.559 141.472C214.671 141.472 212.429 142.004 210.833 143.068C209.313 144.132 208.553 145.614 208.553 147.514C208.553 149.642 209.617 151.276 211.745 152.416C213.873 153.48 217.179 154.582 221.663 155.722C226.223 156.862 229.985 158.04 232.949 159.256C235.913 160.472 238.459 162.372 240.587 164.956C242.791 167.464 243.931 170.808 244.007 174.988C244.007 178.636 242.981 181.904 240.929 184.792C238.953 187.68 236.065 189.96 232.265 191.632C228.541 193.228 224.171 194.026 219.155 194.026ZM274.468 161.422C274.468 154.886 275.798 149.186 278.458 144.322C281.118 139.382 284.804 135.582 289.516 132.922C294.228 130.186 299.624 128.818 305.704 128.818C313.532 128.818 319.992 130.794 325.084 134.746C330.252 138.622 333.71 144.094 335.458 151.162H318.244C317.332 148.426 315.774 146.298 313.57 144.778C311.442 143.182 308.782 142.384 305.59 142.384C301.03 142.384 297.42 144.056 294.76 147.4C292.1 150.668 290.77 155.342 290.77 161.422C290.77 167.426 292.1 172.1 294.76 175.444C297.42 178.712 301.03 180.346 305.59 180.346C312.05 180.346 316.268 177.458 318.244 171.682H335.458C333.71 178.522 330.252 183.956 325.084 187.984C319.916 192.012 313.456 194.026 305.704 194.026C299.624 194.026 294.228 192.696 289.516 190.036C284.804 187.3 281.118 183.5 278.458 178.636C275.798 173.696 274.468 167.958 274.468 161.422ZM372.344 194.026C366.264 194.026 360.792 192.696 355.928 190.036C351.064 187.3 347.226 183.462 344.414 178.522C341.678 173.582 340.31 167.882 340.31 161.422C340.31 154.962 341.716 149.262 344.528 144.322C347.416 139.382 351.33 135.582 356.27 132.922C361.21 130.186 366.72 128.818 372.8 128.818C378.88 128.818 384.39 130.186 389.33 132.922C394.27 135.582 398.146 139.382 400.958 144.322C403.846 149.262 405.29 154.962 405.29 161.422C405.29 167.882 403.808 173.582 400.844 178.522C397.956 183.462 394.004 187.3 388.988 190.036C384.048 192.696 378.5 194.026 372.344 194.026ZM372.344 180.118C375.232 180.118 377.93 179.434 380.438 178.066C383.022 176.622 385.074 174.494 386.594 171.682C388.114 168.87 388.874 165.45 388.874 161.422C388.874 155.418 387.278 150.82 384.086 147.628C380.97 144.36 377.132 142.726 372.572 142.726C368.012 142.726 364.174 144.36 361.058 147.628C358.018 150.82 356.498 155.418 356.498 161.422C356.498 167.426 357.98 172.062 360.944 175.33C363.984 178.522 367.784 180.118 372.344 180.118ZM449.145 128.932C456.669 128.932 462.749 131.326 467.385 136.114C472.021 140.826 474.339 147.438 474.339 155.95V193H458.379V158.116C458.379 153.1 457.125 149.262 454.617 146.602C452.109 143.866 448.689 142.498 444.357 142.498C439.949 142.498 436.453 143.866 433.869 146.602C431.361 149.262 430.107 153.1 430.107 158.116V193H414.147V129.844H430.107V137.71C432.235 134.974 434.933 132.846 438.201 131.326C441.545 129.73 445.193 128.932 449.145 128.932ZM521.665 128.932C529.189 128.932 535.269 131.326 539.905 136.114C544.541 140.826 546.859 147.438 546.859 155.95V193H530.899V158.116C530.899 153.1 529.645 149.262 527.137 146.602C524.629 143.866 521.209 142.498 516.877 142.498C512.469 142.498 508.973 143.866 506.389 146.602C503.881 149.262 502.627 153.1 502.627 158.116V193H486.667V129.844H502.627V137.71C504.755 134.974 507.453 132.846 510.721 131.326C514.065 129.73 517.713 128.932 521.665 128.932ZM617.896 160.054C617.896 162.334 617.744 164.386 617.44 166.21H571.27C571.65 170.77 573.246 174.342 576.058 176.926C578.87 179.51 582.328 180.802 586.432 180.802C592.36 180.802 596.578 178.256 599.086 173.164H616.3C614.476 179.244 610.98 184.26 605.812 188.212C600.644 192.088 594.298 194.026 586.774 194.026C580.694 194.026 575.222 192.696 570.358 190.036C565.57 187.3 561.808 183.462 559.072 178.522C556.412 173.582 555.082 167.882 555.082 161.422C555.082 154.886 556.412 149.148 559.072 144.208C561.732 139.268 565.456 135.468 570.244 132.808C575.032 130.148 580.542 128.818 586.774 128.818C592.778 128.818 598.136 130.11 602.848 132.694C607.636 135.278 611.322 138.964 613.906 143.752C616.566 148.464 617.896 153.898 617.896 160.054ZM601.366 155.494C601.29 151.39 599.808 148.122 596.92 145.69C594.032 143.182 590.498 141.928 586.318 141.928C582.366 141.928 579.022 143.144 576.286 145.576C573.626 147.932 571.992 151.238 571.384 155.494H601.366ZM622.591 161.422C622.591 154.886 623.921 149.186 626.581 144.322C629.241 139.382 632.927 135.582 637.639 132.922C642.351 130.186 647.747 128.818 653.827 128.818C661.655 128.818 668.115 130.794 673.207 134.746C678.375 138.622 681.833 144.094 683.581 151.162H666.367C665.455 148.426 663.897 146.298 661.693 144.778C659.565 143.182 656.905 142.384 653.713 142.384C649.153 142.384 645.543 144.056 642.883 147.4C640.223 150.668 638.893 155.342 638.893 161.422C638.893 167.426 640.223 172.1 642.883 175.444C645.543 178.712 649.153 180.346 653.713 180.346C660.173 180.346 664.391 177.458 666.367 171.682H683.581C681.833 178.522 678.375 183.956 673.207 187.984C668.039 192.012 661.579 194.026 653.827 194.026C647.747 194.026 642.351 192.696 637.639 190.036C632.927 187.3 629.241 183.5 626.581 178.636C623.921 173.696 622.591 167.958 622.591 161.422ZM711.005 142.954V173.506C711.005 175.634 711.499 177.192 712.487 178.18C713.551 179.092 715.299 179.548 717.731 179.548H725.141V193H715.109C701.657 193 694.931 186.464 694.931 173.392V142.954H687.407V129.844H694.931V114.226H711.005V129.844H725.141V142.954H711.005Z" fill="#454D5F"/>
<path fill-rule="evenodd" clip-rule="evenodd" d="M677.103 63.9138C677.224 53.1214 675.825 42.2307 674.392 31.6865C674.076 29.4174 672.01 27.7857 669.827 28.2024C667.601 28.4628 666.062 30.5573 666.336 32.6695C667.734 42.887 669.127 53.4407 668.986 63.7344C668.945 65.9309 670.742 67.8042 672.988 67.8748C675.233 67.9458 677.061 66.1107 677.103 63.9138Z" fill="#282D46"/>
<path fill-rule="evenodd" clip-rule="evenodd" d="M725.105 83.6673C737.225 63.1028 746.681 41.0664 759.327 20.6974C760.526 18.8629 759.938 16.3305 758.045 15.1564C756.151 13.9828 753.63 14.4908 752.473 16.4821C739.779 36.8641 730.276 58.9131 718.107 79.4906C716.988 81.4719 717.638 83.9869 719.573 85.1497C721.465 86.156 723.986 85.6486 725.105 83.6673Z" fill="#282D46"/>
<path fill-rule="evenodd" clip-rule="evenodd" d="M796.487 96.9902C787.198 99.9834 777.909 102.976 768.619 105.969C766.463 106.547 765.302 108.877 765.996 111.045C766.69 113.212 768.946 114.288 771.104 113.71C780.408 110.712 789.711 107.716 799.014 104.719C801.129 103.985 802.278 101.659 801.573 99.4941C800.909 97.4863 798.6 96.2559 796.487 96.9902Z" fill="#282D46"/>
</svg>
