<svg width="217" height="169" viewBox="0 0 217 169" fill="none" xmlns="http://www.w3.org/2000/svg">
<path d="M1.70413 156.832H5.65613C6.37079 156.832 7.01613 156.949 7.59213 157.184C8.17879 157.419 8.67479 157.771 9.08013 158.24C9.49613 158.699 9.81613 159.28 10.0401 159.984C10.2641 160.677 10.3761 161.488 10.3761 162.416C10.3761 163.344 10.2641 164.16 10.0401 164.864C9.81613 165.557 9.49613 166.139 9.08013 166.608C8.67479 167.067 8.17879 167.413 7.59213 167.648C7.01613 167.883 6.37079 168 5.65613 168H1.70413V156.832ZM5.65613 166.4C6.48813 166.4 7.16013 166.139 7.67213 165.616C8.18413 165.093 8.44013 164.325 8.44013 163.312V161.52C8.44013 160.507 8.18413 159.739 7.67213 159.216C7.16013 158.693 6.48813 158.432 5.65613 158.432H3.51213V166.4H5.65613ZM15.762 168.192C15.186 168.192 14.658 168.091 14.178 167.888C13.7087 167.685 13.3087 167.397 12.978 167.024C12.6473 166.64 12.3913 166.181 12.21 165.648C12.0287 165.104 11.938 164.501 11.938 163.84C11.938 163.179 12.0287 162.581 12.21 162.048C12.3913 161.504 12.6473 161.045 12.978 160.672C13.3087 160.288 13.7087 159.995 14.178 159.792C14.658 159.589 15.186 159.488 15.762 159.488C16.338 159.488 16.8607 159.589 17.33 159.792C17.81 159.995 18.2153 160.288 18.546 160.672C18.8767 161.045 19.1327 161.504 19.314 162.048C19.4953 162.581 19.586 163.179 19.586 163.84C19.586 164.501 19.4953 165.104 19.314 165.648C19.1327 166.181 18.8767 166.64 18.546 167.024C18.2153 167.397 17.81 167.685 17.33 167.888C16.8607 168.091 16.338 168.192 15.762 168.192ZM15.762 166.752C16.3593 166.752 16.8393 166.571 17.202 166.208C17.5647 165.835 17.746 165.28 17.746 164.544V163.136C17.746 162.4 17.5647 161.851 17.202 161.488C16.8393 161.115 16.3593 160.928 15.762 160.928C15.1647 160.928 14.6847 161.115 14.322 161.488C13.9593 161.851 13.778 162.4 13.778 163.136V164.544C13.778 165.28 13.9593 165.835 14.322 166.208C14.6847 166.571 15.1647 166.752 15.762 166.752ZM24.7453 168.192C24.1479 168.192 23.6146 168.091 23.1453 167.888C22.6759 167.685 22.2813 167.397 21.9613 167.024C21.6413 166.64 21.3959 166.181 21.2253 165.648C21.0546 165.104 20.9693 164.501 20.9693 163.84C20.9693 163.179 21.0546 162.581 21.2253 162.048C21.3959 161.504 21.6413 161.045 21.9613 160.672C22.2813 160.288 22.6759 159.995 23.1453 159.792C23.6146 159.589 24.1479 159.488 24.7453 159.488C25.5773 159.488 26.2599 159.675 26.7933 160.048C27.3266 160.421 27.7159 160.917 27.9613 161.536L26.5213 162.208C26.4039 161.824 26.1959 161.52 25.8973 161.296C25.6093 161.061 25.2253 160.944 24.7453 160.944C24.1053 160.944 23.6199 161.147 23.2893 161.552C22.9693 161.947 22.8093 162.464 22.8093 163.104V164.592C22.8093 165.232 22.9693 165.755 23.2893 166.16C23.6199 166.555 24.1053 166.752 24.7453 166.752C25.2573 166.752 25.6626 166.629 25.9613 166.384C26.2706 166.128 26.5159 165.792 26.6973 165.376L28.0253 166.08C27.7479 166.763 27.3319 167.285 26.7773 167.648C26.2226 168.011 25.5453 168.192 24.7453 168.192ZM34.7255 166.624H34.6615C34.5868 166.827 34.4855 167.024 34.3575 167.216C34.2402 167.408 34.0855 167.579 33.8935 167.728C33.7122 167.867 33.4882 167.979 33.2215 168.064C32.9655 168.149 32.6668 168.192 32.3255 168.192C31.4615 168.192 30.7895 167.915 30.3095 167.36C29.8402 166.805 29.6055 166.011 29.6055 164.976V159.68H31.3495V164.752C31.3495 166.043 31.8828 166.688 32.9495 166.688C33.1735 166.688 33.3922 166.661 33.6055 166.608C33.8188 166.544 34.0055 166.453 34.1655 166.336C34.3362 166.219 34.4695 166.069 34.5655 165.888C34.6722 165.707 34.7255 165.493 34.7255 165.248V159.68H36.4695V168H34.7255V166.624ZM38.9668 168V159.68H40.7108V161.056H40.7908C40.8761 160.843 40.9774 160.64 41.0948 160.448C41.2228 160.256 41.3721 160.091 41.5428 159.952C41.7241 159.803 41.9321 159.691 42.1668 159.616C42.4121 159.531 42.6948 159.488 43.0148 159.488C43.5801 159.488 44.0814 159.627 44.5188 159.904C44.9561 160.181 45.2761 160.608 45.4788 161.184H45.5268C45.6761 160.715 45.9641 160.315 46.3908 159.984C46.8174 159.653 47.3668 159.488 48.0388 159.488C48.8708 159.488 49.5161 159.771 49.9748 160.336C50.4334 160.891 50.6628 161.685 50.6628 162.72V168H48.9188V162.928C48.9188 162.288 48.7961 161.808 48.5508 161.488C48.3054 161.157 47.9161 160.992 47.3828 160.992C47.1588 160.992 46.9454 161.024 46.7428 161.088C46.5401 161.141 46.3588 161.227 46.1988 161.344C46.0494 161.461 45.9268 161.611 45.8308 161.792C45.7348 161.973 45.6868 162.181 45.6868 162.416V168H43.9428V162.928C43.9428 161.637 43.4361 160.992 42.4227 160.992C42.2094 160.992 41.9961 161.024 41.7828 161.088C41.5801 161.141 41.3988 161.227 41.2388 161.344C41.0788 161.461 40.9508 161.611 40.8548 161.792C40.7588 161.973 40.7108 162.181 40.7108 162.416V168H38.9668ZM56.3401 168.192C55.7428 168.192 55.2095 168.091 54.7401 167.888C54.2708 167.685 53.8708 167.397 53.5401 167.024C53.2095 166.64 52.9535 166.181 52.7721 165.648C52.6015 165.104 52.5161 164.501 52.5161 163.84C52.5161 163.179 52.6015 162.581 52.7721 162.048C52.9535 161.504 53.2095 161.045 53.5401 160.672C53.8708 160.288 54.2708 159.995 54.7401 159.792C55.2095 159.589 55.7428 159.488 56.3401 159.488C56.9481 159.488 57.4815 159.595 57.9401 159.808C58.4095 160.021 58.7988 160.32 59.1081 160.704C59.4175 161.077 59.6468 161.515 59.7961 162.016C59.9561 162.517 60.0361 163.056 60.0361 163.632V164.288H54.3241V164.56C54.3241 165.2 54.5108 165.728 54.8841 166.144C55.2681 166.549 55.8121 166.752 56.5161 166.752C57.0281 166.752 57.4601 166.64 57.8121 166.416C58.1641 166.192 58.4628 165.888 58.7081 165.504L59.7321 166.512C59.4228 167.024 58.9748 167.435 58.3881 167.744C57.8015 168.043 57.1188 168.192 56.3401 168.192ZM56.3401 160.848C56.0415 160.848 55.7641 160.901 55.5081 161.008C55.2628 161.115 55.0495 161.264 54.8681 161.456C54.6975 161.648 54.5641 161.877 54.4681 162.144C54.3721 162.411 54.3241 162.704 54.3241 163.024V163.136H58.1961V162.976C58.1961 162.336 58.0308 161.824 57.7001 161.44C57.3695 161.045 56.9161 160.848 56.3401 160.848ZM61.9668 168V159.68H63.7108V161.056H63.7908C63.9721 160.608 64.2441 160.235 64.6068 159.936C64.9801 159.637 65.4868 159.488 66.1268 159.488C66.9801 159.488 67.6414 159.771 68.1108 160.336C68.5908 160.891 68.8308 161.685 68.8308 162.72V168H67.0868V162.944C67.0868 161.643 66.5641 160.992 65.5188 160.992C65.2948 160.992 65.0708 161.024 64.8468 161.088C64.6334 161.141 64.4414 161.227 64.2708 161.344C64.1001 161.461 63.9614 161.611 63.8548 161.792C63.7588 161.973 63.7108 162.187 63.7108 162.432V168H61.9668ZM73.552 168C72.944 168 72.4853 167.845 72.176 167.536C71.8667 167.216 71.712 166.768 71.712 166.192V161.104H70.416V159.68H71.12C71.408 159.68 71.6053 159.616 71.712 159.488C71.8293 159.36 71.888 159.152 71.888 158.864V157.408H73.456V159.68H75.2V161.104H73.456V166.576H75.072V168H73.552ZM81.753 158.192C81.3903 158.192 81.1237 158.107 80.953 157.936C80.793 157.765 80.713 157.547 80.713 157.28V157.008C80.713 156.741 80.793 156.523 80.953 156.352C81.1237 156.181 81.3903 156.096 81.753 156.096C82.1157 156.096 82.377 156.181 82.537 156.352C82.697 156.523 82.777 156.741 82.777 157.008V157.28C82.777 157.547 82.697 157.765 82.537 157.936C82.377 158.107 82.1157 158.192 81.753 158.192ZM80.873 159.68H82.617V168H80.873V159.68ZM85.1074 168V159.68H86.8514V161.056H86.9314C87.1127 160.608 87.3847 160.235 87.7474 159.936C88.1207 159.637 88.6274 159.488 89.2674 159.488C90.1207 159.488 90.782 159.771 91.2514 160.336C91.7314 160.891 91.9714 161.685 91.9714 162.72V168H90.2274V162.944C90.2274 161.643 89.7047 160.992 88.6594 160.992C88.4354 160.992 88.2114 161.024 87.9874 161.088C87.774 161.141 87.582 161.227 87.4114 161.344C87.2407 161.461 87.102 161.611 86.9954 161.792C86.8994 161.973 86.8514 162.187 86.8514 162.432V168H85.1074ZM97.0286 168.192C96.2393 168.192 95.578 168.053 95.0446 167.776C94.5113 167.499 94.0473 167.115 93.6526 166.624L94.7726 165.6C95.082 165.973 95.4233 166.267 95.7966 166.48C96.1806 166.683 96.6233 166.784 97.1246 166.784C97.6366 166.784 98.0153 166.688 98.2606 166.496C98.5166 166.293 98.6446 166.016 98.6446 165.664C98.6446 165.397 98.554 165.173 98.3726 164.992C98.202 164.8 97.898 164.677 97.4606 164.624L96.6926 164.528C95.8393 164.421 95.1673 164.176 94.6766 163.792C94.1966 163.397 93.9566 162.816 93.9566 162.048C93.9566 161.643 94.0313 161.285 94.1806 160.976C94.33 160.656 94.538 160.389 94.8046 160.176C95.082 159.952 95.4073 159.781 95.7806 159.664C96.1646 159.547 96.586 159.488 97.0446 159.488C97.7913 159.488 98.3993 159.605 98.8686 159.84C99.3486 160.075 99.7753 160.4 100.149 160.816L99.0766 161.84C98.8633 161.584 98.5806 161.365 98.2286 161.184C97.8873 160.992 97.4926 160.896 97.0446 160.896C96.5646 160.896 96.2073 160.992 95.9726 161.184C95.7486 161.376 95.6366 161.627 95.6366 161.936C95.6366 162.256 95.738 162.496 95.9406 162.656C96.1433 162.816 96.4686 162.933 96.9166 163.008L97.6846 163.104C98.602 163.243 99.2686 163.515 99.6846 163.92C100.111 164.315 100.325 164.848 100.325 165.52C100.325 165.925 100.245 166.293 100.085 166.624C99.9353 166.944 99.7166 167.221 99.4286 167.456C99.1406 167.691 98.794 167.872 98.3886 168C97.9833 168.128 97.53 168.192 97.0286 168.192ZM104.49 168C103.882 168 103.423 167.845 103.114 167.536C102.804 167.216 102.65 166.768 102.65 166.192V161.104H101.354V159.68H102.058C102.346 159.68 102.543 159.616 102.65 159.488C102.767 159.36 102.826 159.152 102.826 158.864V157.408H104.394V159.68H106.138V161.104H104.394V166.576H106.01V168H104.49ZM114.125 168C113.667 168 113.315 167.872 113.069 167.616C112.824 167.349 112.675 167.013 112.621 166.608H112.541C112.381 167.131 112.088 167.525 111.661 167.792C111.235 168.059 110.717 168.192 110.109 168.192C109.245 168.192 108.579 167.968 108.109 167.52C107.651 167.072 107.421 166.469 107.421 165.712C107.421 164.88 107.72 164.256 108.317 163.84C108.925 163.424 109.811 163.216 110.973 163.216H112.477V162.512C112.477 162 112.339 161.605 112.061 161.328C111.784 161.051 111.352 160.912 110.765 160.912C110.275 160.912 109.875 161.019 109.565 161.232C109.256 161.445 108.995 161.717 108.781 162.048L107.741 161.104C108.019 160.635 108.408 160.251 108.909 159.952C109.411 159.643 110.067 159.488 110.877 159.488C111.955 159.488 112.781 159.739 113.357 160.24C113.933 160.741 114.221 161.461 114.221 162.4V166.576H115.101V168H114.125ZM110.605 166.864C111.149 166.864 111.597 166.747 111.949 166.512C112.301 166.267 112.477 165.941 112.477 165.536V164.336H111.005C109.8 164.336 109.197 164.709 109.197 165.456V165.744C109.197 166.117 109.32 166.4 109.565 166.592C109.821 166.773 110.168 166.864 110.605 166.864ZM116.811 168V159.68H118.555V161.056H118.635C118.816 160.608 119.088 160.235 119.451 159.936C119.824 159.637 120.331 159.488 120.971 159.488C121.824 159.488 122.485 159.771 122.955 160.336C123.435 160.891 123.675 161.685 123.675 162.72V168H121.931V162.944C121.931 161.643 121.408 160.992 120.363 160.992C120.139 160.992 119.915 161.024 119.691 161.088C119.477 161.141 119.285 161.227 119.115 161.344C118.944 161.461 118.805 161.611 118.699 161.792C118.603 161.973 118.555 162.187 118.555 162.432V168H116.811ZM128.396 168C127.788 168 127.329 167.845 127.02 167.536C126.71 167.216 126.556 166.768 126.556 166.192V161.104H125.26V159.68H125.964C126.252 159.68 126.449 159.616 126.556 159.488C126.673 159.36 126.732 159.152 126.732 158.864V157.408H128.3V159.68H130.044V161.104H128.3V166.576H129.916V168H128.396ZM137.525 168L134.693 159.68H136.421L137.685 163.472L138.533 166.384H138.629L139.477 163.472L140.773 159.68H142.437L139.573 168H137.525ZM147.043 168.192C146.446 168.192 145.913 168.091 145.443 167.888C144.974 167.685 144.574 167.397 144.243 167.024C143.913 166.64 143.657 166.181 143.475 165.648C143.305 165.104 143.219 164.501 143.219 163.84C143.219 163.179 143.305 162.581 143.475 162.048C143.657 161.504 143.913 161.045 144.243 160.672C144.574 160.288 144.974 159.995 145.443 159.792C145.913 159.589 146.446 159.488 147.043 159.488C147.651 159.488 148.185 159.595 148.643 159.808C149.113 160.021 149.502 160.32 149.811 160.704C150.121 161.077 150.35 161.515 150.499 162.016C150.659 162.517 150.739 163.056 150.739 163.632V164.288H145.027V164.56C145.027 165.2 145.214 165.728 145.587 166.144C145.971 166.549 146.515 166.752 147.219 166.752C147.731 166.752 148.163 166.64 148.515 166.416C148.867 166.192 149.166 165.888 149.411 165.504L150.435 166.512C150.126 167.024 149.678 167.435 149.091 167.744C148.505 168.043 147.822 168.192 147.043 168.192ZM147.043 160.848C146.745 160.848 146.467 160.901 146.211 161.008C145.966 161.115 145.753 161.264 145.571 161.456C145.401 161.648 145.267 161.877 145.171 162.144C145.075 162.411 145.027 162.704 145.027 163.024V163.136H148.899V162.976C148.899 162.336 148.734 161.824 148.403 161.44C148.073 161.045 147.619 160.848 147.043 160.848ZM152.67 168V159.68H154.414V161.28H154.494C154.611 160.853 154.857 160.48 155.23 160.16C155.603 159.84 156.121 159.68 156.782 159.68H157.246V161.36H156.558C155.865 161.36 155.331 161.472 154.958 161.696C154.595 161.92 154.414 162.251 154.414 162.688V168H152.67ZM159.675 158.192C159.312 158.192 159.046 158.107 158.875 157.936C158.715 157.765 158.635 157.547 158.635 157.28V157.008C158.635 156.741 158.715 156.523 158.875 156.352C159.046 156.181 159.312 156.096 159.675 156.096C160.038 156.096 160.299 156.181 160.459 156.352C160.619 156.523 160.699 156.741 160.699 157.008V157.28C160.699 157.547 160.619 157.765 160.459 157.936C160.299 158.107 160.038 158.192 159.675 158.192ZM158.795 159.68H160.539V168H158.795V159.68ZM163.461 161.104H162.197V159.68H163.461V158.304C163.461 157.632 163.637 157.109 163.989 156.736C164.341 156.352 164.869 156.16 165.573 156.16H166.949V157.584H165.205V159.68H170.149V168H168.405V161.104H165.205V168H163.461V161.104ZM169.285 158.192C168.923 158.192 168.656 158.107 168.485 157.936C168.325 157.765 168.245 157.547 168.245 157.28V157.008C168.245 156.741 168.325 156.523 168.485 156.352C168.656 156.181 168.923 156.096 169.285 156.096C169.648 156.096 169.909 156.181 170.069 156.352C170.229 156.523 170.309 156.741 170.309 157.008V157.28C170.309 157.547 170.229 157.765 170.069 157.936C169.909 158.107 169.648 158.192 169.285 158.192ZM175.855 168.192C175.257 168.192 174.724 168.091 174.255 167.888C173.785 167.685 173.391 167.397 173.071 167.024C172.751 166.64 172.505 166.181 172.335 165.648C172.164 165.104 172.079 164.501 172.079 163.84C172.079 163.179 172.164 162.581 172.335 162.048C172.505 161.504 172.751 161.045 173.071 160.672C173.391 160.288 173.785 159.995 174.255 159.792C174.724 159.589 175.257 159.488 175.855 159.488C176.687 159.488 177.369 159.675 177.903 160.048C178.436 160.421 178.825 160.917 179.071 161.536L177.631 162.208C177.513 161.824 177.305 161.52 177.007 161.296C176.719 161.061 176.335 160.944 175.855 160.944C175.215 160.944 174.729 161.147 174.399 161.552C174.079 161.947 173.919 162.464 173.919 163.104V164.592C173.919 165.232 174.079 165.755 174.399 166.16C174.729 166.555 175.215 166.752 175.855 166.752C176.367 166.752 176.772 166.629 177.071 166.384C177.38 166.128 177.625 165.792 177.807 165.376L179.135 166.08C178.857 166.763 178.441 167.285 177.887 167.648C177.332 168.011 176.655 168.192 175.855 168.192ZM186.891 168C186.432 168 186.08 167.872 185.835 167.616C185.59 167.349 185.44 167.013 185.387 166.608H185.307C185.147 167.131 184.854 167.525 184.427 167.792C184 168.059 183.483 168.192 182.875 168.192C182.011 168.192 181.344 167.968 180.875 167.52C180.416 167.072 180.187 166.469 180.187 165.712C180.187 164.88 180.486 164.256 181.083 163.84C181.691 163.424 182.576 163.216 183.739 163.216H185.243V162.512C185.243 162 185.104 161.605 184.827 161.328C184.55 161.051 184.118 160.912 183.531 160.912C183.04 160.912 182.64 161.019 182.331 161.232C182.022 161.445 181.76 161.717 181.547 162.048L180.507 161.104C180.784 160.635 181.174 160.251 181.675 159.952C182.176 159.643 182.832 159.488 183.643 159.488C184.72 159.488 185.547 159.739 186.123 160.24C186.699 160.741 186.987 161.461 186.987 162.4V166.576H187.867V168H186.891ZM183.371 166.864C183.915 166.864 184.363 166.747 184.715 166.512C185.067 166.267 185.243 165.941 185.243 165.536V164.336H183.771C182.566 164.336 181.963 164.709 181.963 165.456V165.744C181.963 166.117 182.086 166.4 182.331 166.592C182.587 166.773 182.934 166.864 183.371 166.864ZM191.833 168C191.225 168 190.767 167.845 190.457 167.536C190.148 167.216 189.993 166.768 189.993 166.192V161.104H188.697V159.68H189.401C189.689 159.68 189.887 159.616 189.993 159.488C190.111 159.36 190.169 159.152 190.169 158.864V157.408H191.737V159.68H193.481V161.104H191.737V166.576H193.353V168H191.833ZM196.253 158.192C195.89 158.192 195.624 158.107 195.453 157.936C195.293 157.765 195.213 157.547 195.213 157.28V157.008C195.213 156.741 195.293 156.523 195.453 156.352C195.624 156.181 195.89 156.096 196.253 156.096C196.616 156.096 196.877 156.181 197.037 156.352C197.197 156.523 197.277 156.741 197.277 157.008V157.28C197.277 157.547 197.197 157.765 197.037 157.936C196.877 158.107 196.616 158.192 196.253 158.192ZM195.373 159.68H197.117V168H195.373V159.68ZM202.871 168.192C202.295 168.192 201.767 168.091 201.287 167.888C200.818 167.685 200.418 167.397 200.087 167.024C199.757 166.64 199.501 166.181 199.319 165.648C199.138 165.104 199.047 164.501 199.047 163.84C199.047 163.179 199.138 162.581 199.319 162.048C199.501 161.504 199.757 161.045 200.087 160.672C200.418 160.288 200.818 159.995 201.287 159.792C201.767 159.589 202.295 159.488 202.871 159.488C203.447 159.488 203.97 159.589 204.439 159.792C204.919 159.995 205.325 160.288 205.655 160.672C205.986 161.045 206.242 161.504 206.423 162.048C206.605 162.581 206.695 163.179 206.695 163.84C206.695 164.501 206.605 165.104 206.423 165.648C206.242 166.181 205.986 166.64 205.655 167.024C205.325 167.397 204.919 167.685 204.439 167.888C203.97 168.091 203.447 168.192 202.871 168.192ZM202.871 166.752C203.469 166.752 203.949 166.571 204.311 166.208C204.674 165.835 204.855 165.28 204.855 164.544V163.136C204.855 162.4 204.674 161.851 204.311 161.488C203.949 161.115 203.469 160.928 202.871 160.928C202.274 160.928 201.794 161.115 201.431 161.488C201.069 161.851 200.887 162.4 200.887 163.136V164.544C200.887 165.28 201.069 165.835 201.431 166.208C201.794 166.571 202.274 166.752 202.871 166.752ZM208.639 168V159.68H210.383V161.056H210.463C210.644 160.608 210.916 160.235 211.279 159.936C211.652 159.637 212.159 159.488 212.799 159.488C213.652 159.488 214.313 159.771 214.783 160.336C215.263 160.891 215.503 161.685 215.503 162.72V168H213.759V162.944C213.759 161.643 213.236 160.992 212.191 160.992C211.967 160.992 211.743 161.024 211.519 161.088C211.305 161.141 211.113 161.227 210.943 161.344C210.772 161.461 210.633 161.611 210.527 161.792C210.431 161.973 210.383 162.187 210.383 162.432V168H208.639Z" fill="#282D46"/>
<circle cx="108.5" cy="64.5" r="64.5" fill="#F6FAFE"/>
<path fill-rule="evenodd" clip-rule="evenodd" d="M94.1381 47.0675C93.7393 47.1516 93.1346 47.397 92.722 47.6421C92.0514 48.0405 91.3766 48.8287 91.0615 49.5815C90.8217 50.1547 90.7482 50.6086 90.7482 51.5171V52.3162H91.7526H92.757V51.5674C92.757 50.7768 92.823 50.4469 93.0579 50.0628C93.2137 49.8083 93.6415 49.4035 93.9054 49.261C94.4598 48.9617 93.8182 48.9786 104.634 48.9786C115.514 48.9786 114.821 48.9593 115.383 49.2784C115.743 49.4826 116.136 49.9126 116.326 50.3107L116.486 50.6474L116.512 52.3026L116.537 53.9578L117.528 52.7573L118.52 51.5567V51.1687C118.52 49.8816 117.892 48.6365 116.847 47.8522C116.488 47.583 115.886 47.2835 115.382 47.1233L115.03 47.0117L104.76 47.0025C95.8333 46.9945 94.4436 47.003 94.1381 47.0675ZM122.426 50.1361C121.808 50.8831 120.729 52.1892 120.028 53.0385C119.327 53.8879 118.68 54.6724 118.589 54.782C118.498 54.8916 118.081 55.396 117.664 55.9029C117.246 56.4097 116.484 57.3331 115.971 57.9549L115.038 59.0854L114.582 58.6691C114.331 58.4402 113.245 57.4449 112.167 56.4573L110.209 54.6619L110.033 54.8524C109.936 54.9572 109.265 55.6791 108.542 56.4567C107.819 57.2343 107.229 57.8929 107.231 57.9203C107.234 57.9617 114.083 64.2669 115.163 65.223L115.497 65.5185L117.954 62.5414C119.305 60.9039 121.897 57.7637 123.714 55.5631C125.531 53.3625 127.009 51.5561 127 51.549C126.99 51.5419 126.237 50.9317 125.325 50.1929C124.414 49.4542 123.641 48.8336 123.609 48.8138C123.571 48.7907 123.147 49.2642 122.426 50.1361ZM93.8539 52.2674C93.1363 52.6435 93.0827 53.6148 93.7537 54.0825C93.9473 54.2175 94.0106 54.2341 94.3344 54.2341C94.6481 54.2341 94.7268 54.215 94.9096 54.0951C95.1468 53.9394 95.293 53.7325 95.3744 53.4373C95.494 53.0033 95.2233 52.4542 94.7945 52.2611C94.5231 52.1388 94.0939 52.1417 93.8539 52.2674ZM90.312 52.7378C90.0516 52.8502 89.9253 53.1841 90.051 53.4279C90.1909 53.6993 90.2364 53.7087 91.4175 53.7099L92.5137 53.711L92.6604 53.5654C92.9264 53.3016 92.8333 52.8825 92.4758 52.7344C92.2401 52.6367 90.5402 52.6394 90.312 52.7378ZM98.1307 53.8106V54.259H102.073H106.015V53.8106V53.3623H102.073H98.1307V53.8106ZM90.7482 55.3549V56.6003H91.7526H92.757V55.3549V54.1095H91.7526H90.7482V55.3549ZM98.1307 56.7995V57.2478H102.073H106.015V56.7995V56.3512H102.073H98.1307V56.7995ZM94.0509 56.4976C93.6467 56.6265 93.3478 56.9675 93.2822 57.3745C93.1695 58.0738 93.8732 58.7077 94.5766 58.5403C95.4966 58.3214 95.6878 57.0642 94.8704 56.6085C94.6457 56.4833 94.2598 56.431 94.0509 56.4976ZM90.1592 57.1745C89.999 57.3334 89.9847 57.37 90.0098 57.5558C90.0271 57.6838 90.0867 57.81 90.1679 57.8906L90.2983 58.02L91.3257 58.0353C92.1873 58.0481 92.3805 58.0377 92.523 57.9706C92.9051 57.7908 92.9043 57.2485 92.5218 57.0544C92.4514 57.0188 92.0397 56.9988 91.3742 56.9988H90.3364L90.1592 57.1745ZM90.7482 59.6639V60.9341H91.7526H92.757V59.6639V58.3936H91.7526H90.7482V59.6639ZM98.1307 59.8382V60.2865H102.073H106.015V59.8382V59.3899H102.073H98.1307V59.8382ZM93.8834 60.879C93.4862 61.058 93.2116 61.553 93.2816 61.9641C93.3304 62.251 93.5095 62.5303 93.7537 62.7004C93.9479 62.8359 94.0101 62.852 94.339 62.852C94.6679 62.852 94.7301 62.8359 94.9243 62.7004C95.7864 62.0994 95.385 60.7869 94.339 60.7869C94.2009 60.7869 93.9959 60.8283 93.8834 60.879ZM90.312 61.3558C90.0516 61.4681 89.9253 61.802 90.051 62.0458C90.1909 62.3172 90.2364 62.3266 91.4175 62.3278L92.5137 62.3289L92.6604 62.1833C92.9264 61.9195 92.8333 61.5004 92.4758 61.3523C92.2401 61.2546 90.5402 61.2573 90.312 61.3558ZM98.1307 62.8522V63.3252H102.075H106.019L106.005 62.8644L105.99 62.4037L102.06 62.3914L98.1307 62.3791V62.8522ZM90.7482 63.9728V65.2182H91.7526H92.757V63.9728V62.7274H91.7526H90.7482V63.9728ZM94.0509 65.1156C93.6467 65.2444 93.3478 65.5854 93.2822 65.9924C93.1695 66.6917 93.8732 67.3256 94.5766 67.1582C95.4966 66.9393 95.6878 65.6821 94.8704 65.2264C94.6457 65.1012 94.2598 65.049 94.0509 65.1156ZM117.503 66.3984L116.512 67.6014L116.51 72.3253C116.51 75.329 116.491 77.1287 116.458 77.2677C116.245 78.1857 115.441 78.8586 114.427 78.9688C114.142 78.9998 110.41 79.0131 104.308 79.0049L94.6403 78.9919L94.3166 78.876C93.6547 78.639 93.1319 78.1587 92.8974 77.5722C92.8062 77.3441 92.7832 77.1605 92.7599 76.4763L92.7319 75.6543L91.7347 75.6408L90.7375 75.6273L90.7611 76.5873C90.7805 77.3778 90.8038 77.6117 90.8933 77.9124C91.3249 79.3637 92.4902 80.4645 94.0263 80.872L94.4394 80.9816L104.258 80.9965C111.042 81.0068 114.238 80.9947 114.6 80.9575C116.436 80.7686 117.871 79.5936 118.401 77.8462C118.485 77.5679 118.492 77.1851 118.507 72.2918C118.516 69.4014 118.517 66.6222 118.509 66.1159L118.495 65.1954L117.503 66.3984ZM98.1307 65.8658V66.3141H105.262H112.393V65.8658V65.4174H105.262H98.1307V65.8658ZM90.1592 65.7924C89.999 65.9513 89.9847 65.9879 90.0098 66.1737C90.0271 66.3017 90.0867 66.4279 90.1679 66.5085L90.2983 66.6379L91.3257 66.6532C92.1873 66.666 92.3805 66.6556 92.523 66.5885C92.9051 66.4087 92.9043 65.8664 92.5218 65.6723C92.4514 65.6367 92.0397 65.6167 91.3742 65.6167H90.3364L90.1592 65.7924ZM90.7482 68.2807V69.552H91.7535H92.7587L92.7453 68.2942L92.7319 67.0364L91.7401 67.0229L90.7482 67.0094V68.2807ZM98.1307 68.9045V69.3528H105.262H112.393V68.9045V68.4561H105.262H98.1307V68.9045ZM93.8834 69.4969C93.4862 69.6759 93.2116 70.1709 93.2816 70.582C93.3304 70.8689 93.5095 71.1482 93.7537 71.3184C93.9479 71.4538 94.0101 71.4699 94.339 71.4699C94.6679 71.4699 94.7301 71.4538 94.9248 71.3183C95.6173 70.836 95.5209 69.7975 94.7542 69.4797C94.5056 69.3766 94.134 69.384 93.8834 69.4969ZM90.312 69.9737C90.0516 70.086 89.9253 70.4199 90.051 70.6637C90.1909 70.9351 90.2364 70.9446 91.4175 70.9458L92.5137 70.9468L92.6604 70.8012C92.9264 70.5374 92.8333 70.1183 92.4758 69.9702C92.2401 69.8725 90.5402 69.8752 90.312 69.9737ZM90.7482 72.5907V73.8361H91.7526H92.757V72.5907V71.3454H91.7526H90.7482V72.5907ZM98.1307 71.9182V72.3918L105.249 72.3792L112.368 72.3666V71.9182V71.4699L105.249 71.4573L98.1307 71.4446V71.9182ZM94.0509 73.7335C93.6467 73.8623 93.3478 74.2033 93.2822 74.6103C93.1695 75.3097 93.8732 75.9435 94.5766 75.7761C95.4966 75.5572 95.6878 74.3001 94.8704 73.8444C94.6457 73.7191 94.2598 73.6669 94.0509 73.7335ZM90.1592 74.4104C89.999 74.5692 89.9847 74.6058 90.0098 74.7916C90.0271 74.9196 90.0867 75.0458 90.1679 75.1264L90.2983 75.2558L91.3393 75.2719C92.2359 75.2858 92.4022 75.2765 92.5377 75.205C92.9062 75.0103 92.897 74.4806 92.5218 74.2903C92.4514 74.2546 92.0397 74.2346 91.3742 74.2346H90.3364L90.1592 74.4104ZM98.1307 74.932V75.3803H105.262H112.393V74.932V74.4837H105.262H98.1307V74.932Z" fill="#188AEC"/>
</svg>
