<svg width="447" height="440" viewBox="0 0 447 440" fill="none" xmlns="http://www.w3.org/2000/svg">
<line opacity="0.4" x1="159" y1="439" x2="392" y2="439" stroke="#CBD4DC" stroke-width="2"/>
<path d="M12.584 13.672H12.536L11.72 15.304L9.544 19.256L7.416 15.32L6.568 13.56H6.52V21H4.232V9.832H6.808L9.544 15.064H9.576L12.28 9.832H14.872V21H12.584V13.672ZM23.4214 21C22.9947 21 22.6374 20.8667 22.3494 20.6C22.072 20.3333 21.896 19.976 21.8214 19.528H21.7254C21.5974 20.072 21.3147 20.488 20.8774 20.776C20.44 21.0533 19.9014 21.192 19.2614 21.192C18.4187 21.192 17.7734 20.968 17.3254 20.52C16.8774 20.072 16.6534 19.48 16.6534 18.744C16.6534 17.8587 16.9734 17.2027 17.6134 16.776C18.264 16.3387 19.144 16.12 20.2534 16.12H21.5814V15.592C21.5814 15.1867 21.4747 14.8667 21.2614 14.632C21.048 14.3867 20.6907 14.264 20.1894 14.264C19.72 14.264 19.3467 14.3653 19.0694 14.568C18.792 14.7707 18.5627 15 18.3814 15.256L16.9734 14.008C17.3147 13.5067 17.7414 13.1173 18.2534 12.84C18.776 12.552 19.48 12.408 20.3654 12.408C21.56 12.408 22.456 12.6693 23.0534 13.192C23.6507 13.7147 23.9494 14.4773 23.9494 15.48V19.16H24.7334V21H23.4214ZM20.1414 19.544C20.536 19.544 20.872 19.4587 21.1494 19.288C21.4374 19.1173 21.5814 18.84 21.5814 18.456V17.464H20.4294C19.5014 17.464 19.0374 17.7787 19.0374 18.408V18.648C19.0374 18.9573 19.1334 19.1867 19.3254 19.336C19.5174 19.4747 19.7894 19.544 20.1414 19.544ZM29.1708 21.192C28.3601 21.192 27.6774 21.064 27.1228 20.808C26.5681 20.5413 26.0721 20.168 25.6348 19.688L27.0268 18.28C27.3254 18.6107 27.6561 18.872 28.0188 19.064C28.3814 19.256 28.7921 19.352 29.2508 19.352C29.7201 19.352 30.0454 19.2827 30.2268 19.144C30.4081 18.9947 30.4988 18.7973 30.4988 18.552C30.4988 18.1573 30.2161 17.9227 29.6508 17.848L28.7388 17.736C26.8508 17.5013 25.9068 16.6373 25.9068 15.144C25.9068 14.7387 25.9814 14.3707 26.1308 14.04C26.2908 13.6987 26.5094 13.4107 26.7868 13.176C27.0748 12.9307 27.4161 12.744 27.8108 12.616C28.2161 12.4773 28.6694 12.408 29.1708 12.408C29.6081 12.408 29.9921 12.44 30.3228 12.504C30.6641 12.5573 30.9628 12.6427 31.2188 12.76C31.4854 12.8667 31.7254 13.0053 31.9388 13.176C32.1628 13.336 32.3814 13.5173 32.5948 13.72L31.2348 15.112C30.9681 14.8453 30.6641 14.6373 30.3228 14.488C29.9921 14.328 29.6508 14.248 29.2988 14.248C28.8934 14.248 28.6054 14.312 28.4348 14.44C28.2641 14.568 28.1788 14.7387 28.1788 14.952C28.1788 15.176 28.2374 15.352 28.3548 15.48C28.4828 15.5973 28.7174 15.6827 29.0588 15.736L30.0028 15.864C31.8481 16.1093 32.7708 16.952 32.7708 18.392C32.7708 18.7973 32.6854 19.1707 32.5148 19.512C32.3441 19.8533 32.0988 20.152 31.7788 20.408C31.4694 20.6533 31.0908 20.8453 30.6428 20.984C30.2054 21.1227 29.7148 21.192 29.1708 21.192ZM36.7373 21C35.9266 21 35.3293 20.8027 34.9453 20.408C34.5719 20.0133 34.3853 19.4427 34.3853 18.696V9.16H36.7533V19.16H37.8093V21H36.7373ZM42.637 21.192C42.0183 21.192 41.4637 21.0907 40.973 20.888C40.493 20.6853 40.0823 20.392 39.741 20.008C39.4103 19.624 39.1543 19.16 38.973 18.616C38.7917 18.072 38.701 17.464 38.701 16.792C38.701 16.12 38.7917 15.512 38.973 14.968C39.1543 14.424 39.4103 13.9653 39.741 13.592C40.0823 13.208 40.493 12.9147 40.973 12.712C41.4637 12.5093 42.0183 12.408 42.637 12.408C43.2557 12.408 43.805 12.5093 44.285 12.712C44.7757 12.9147 45.1863 13.208 45.517 13.592C45.8583 13.9653 46.1197 14.424 46.301 14.968C46.4823 15.512 46.573 16.12 46.573 16.792C46.573 17.464 46.4823 18.072 46.301 18.616C46.1197 19.16 45.8583 19.624 45.517 20.008C45.1863 20.392 44.7757 20.6853 44.285 20.888C43.805 21.0907 43.2557 21.192 42.637 21.192ZM42.637 19.32C43.1063 19.32 43.469 19.176 43.725 18.888C43.981 18.6 44.109 18.1893 44.109 17.656V15.944C44.109 15.4107 43.981 15 43.725 14.712C43.469 14.424 43.1063 14.28 42.637 14.28C42.1677 14.28 41.805 14.424 41.549 14.712C41.293 15 41.165 15.4107 41.165 15.944V17.656C41.165 18.1893 41.293 18.6 41.549 18.888C41.805 19.176 42.1677 19.32 42.637 19.32ZM47.304 12.6H49.592L50.408 15.992L50.984 18.552H51.048L51.72 15.992L52.68 12.6H54.84L55.816 15.992L56.504 18.552H56.568L57.144 15.992L57.96 12.6H60.152L57.832 21H55.352L54.328 17.448L53.736 15.272H53.688L53.112 17.448L52.088 21H49.656L47.304 12.6ZM65.4664 21V9.832H70.7464C71.269 9.832 71.7384 9.92267 72.1544 10.104C72.5704 10.2747 72.9224 10.5147 73.2104 10.824C73.509 11.1333 73.7384 11.512 73.8984 11.96C74.0584 12.3973 74.1384 12.8773 74.1384 13.4C74.1384 13.9333 74.0584 14.4187 73.8984 14.856C73.7384 15.2933 73.509 15.6667 73.2104 15.976C72.9224 16.2853 72.5704 16.5307 72.1544 16.712C71.7384 16.8827 71.269 16.968 70.7464 16.968H67.8984V21H65.4664ZM67.8984 14.856H70.4584C70.821 14.856 71.1037 14.7653 71.3064 14.584C71.5197 14.392 71.6264 14.1147 71.6264 13.752V13.048C71.6264 12.6853 71.5197 12.4133 71.3064 12.232C71.1037 12.04 70.821 11.944 70.4584 11.944H67.8984V14.856ZM80.9744 12.6H83.1824L79.9504 22.296C79.737 22.9467 79.433 23.4267 79.0384 23.736C78.6544 24.0453 78.0997 24.2 77.3744 24.2H75.9024V22.36H77.4864L77.7744 21.432L74.8304 12.6H77.1824L78.4144 16.52L79.0224 18.952H79.1184L79.7424 16.52L80.9744 12.6ZM84.3853 21V12.6H86.7533V14.424H86.8333C86.8759 14.1893 86.9506 13.9653 87.0573 13.752C87.1639 13.528 87.3026 13.3307 87.4733 13.16C87.6546 12.9893 87.8679 12.856 88.1133 12.76C88.3586 12.6533 88.6466 12.6 88.9773 12.6H89.3933V14.808H88.8013C88.1079 14.808 87.5906 14.8987 87.2493 15.08C86.9186 15.2613 86.7533 15.5973 86.7533 16.088V21H84.3853ZM96.8433 21C96.4166 21 96.0593 20.8667 95.7713 20.6C95.4939 20.3333 95.3179 19.976 95.2433 19.528H95.1473C95.0193 20.072 94.7366 20.488 94.2993 20.776C93.8619 21.0533 93.3233 21.192 92.6833 21.192C91.8406 21.192 91.1953 20.968 90.7473 20.52C90.2993 20.072 90.0753 19.48 90.0753 18.744C90.0753 17.8587 90.3953 17.2027 91.0353 16.776C91.6859 16.3387 92.5659 16.12 93.6753 16.12H95.0033V15.592C95.0033 15.1867 94.8966 14.8667 94.6833 14.632C94.4699 14.3867 94.1126 14.264 93.6113 14.264C93.1419 14.264 92.7686 14.3653 92.4913 14.568C92.2139 14.7707 91.9846 15 91.8033 15.256L90.3953 14.008C90.7366 13.5067 91.1633 13.1173 91.6753 12.84C92.1979 12.552 92.9019 12.408 93.7873 12.408C94.9819 12.408 95.8779 12.6693 96.4753 13.192C97.0726 13.7147 97.3713 14.4773 97.3713 15.48V19.16H98.1553V21H96.8433ZM93.5633 19.544C93.9579 19.544 94.2939 19.4587 94.5713 19.288C94.8593 19.1173 95.0033 18.84 95.0033 18.456V17.464H93.8513C92.9233 17.464 92.4593 17.7787 92.4593 18.408V18.648C92.4593 18.9573 92.5553 19.1867 92.7473 19.336C92.9393 19.4747 93.2113 19.544 93.5633 19.544ZM99.7446 21V12.6H102.113V14.024H102.209C102.358 13.576 102.614 13.1973 102.977 12.888C103.339 12.568 103.835 12.408 104.465 12.408C105.041 12.408 105.531 12.552 105.937 12.84C106.342 13.128 106.635 13.5493 106.817 14.104H106.865C106.939 13.8693 107.051 13.6507 107.201 13.448C107.361 13.2347 107.553 13.0533 107.777 12.904C108.001 12.7547 108.251 12.6373 108.529 12.552C108.806 12.456 109.105 12.408 109.425 12.408C110.235 12.408 110.854 12.696 111.281 13.272C111.718 13.848 111.937 14.6693 111.937 15.736V21H109.569V15.928C109.569 14.8613 109.185 14.328 108.417 14.328C108.065 14.328 107.745 14.4293 107.457 14.632C107.169 14.8347 107.025 15.144 107.025 15.56V21H104.657V15.928C104.657 14.8613 104.273 14.328 103.505 14.328C103.334 14.328 103.163 14.3547 102.993 14.408C102.833 14.4507 102.683 14.5253 102.545 14.632C102.417 14.7387 102.31 14.872 102.225 15.032C102.15 15.1813 102.113 15.3573 102.113 15.56V21H99.7446ZM115.226 11.704C114.746 11.704 114.394 11.5973 114.17 11.384C113.956 11.16 113.85 10.8773 113.85 10.536V10.184C113.85 9.84267 113.956 9.56533 114.17 9.352C114.394 9.128 114.746 9.016 115.226 9.016C115.706 9.016 116.052 9.128 116.266 9.352C116.49 9.56533 116.602 9.84267 116.602 10.184V10.536C116.602 10.8773 116.49 11.16 116.266 11.384C116.052 11.5973 115.706 11.704 115.226 11.704ZM114.042 12.6H116.41V21H114.042V12.6ZM123.772 19.592H123.692C123.628 19.816 123.526 20.0293 123.388 20.232C123.249 20.424 123.078 20.5947 122.876 20.744C122.684 20.8827 122.46 20.9893 122.204 21.064C121.958 21.1493 121.702 21.192 121.436 21.192C120.369 21.192 119.564 20.8187 119.02 20.072C118.476 19.3147 118.204 18.2213 118.204 16.792C118.204 15.3627 118.476 14.2747 119.02 13.528C119.564 12.7813 120.369 12.408 121.436 12.408C121.98 12.408 122.46 12.5573 122.876 12.856C123.302 13.1547 123.574 13.5387 123.692 14.008H123.772V9.16H126.14V21H123.772V19.592ZM122.22 19.272C122.668 19.272 123.036 19.1653 123.324 18.952C123.622 18.728 123.772 18.424 123.772 18.04V15.56C123.772 15.176 123.622 14.8773 123.324 14.664C123.036 14.44 122.668 14.328 122.22 14.328C121.772 14.328 121.398 14.488 121.1 14.808C120.812 15.1173 120.668 15.5387 120.668 16.072V17.528C120.668 18.0613 120.812 18.488 121.1 18.808C121.398 19.1173 121.772 19.272 122.22 19.272Z" fill="#282D46"/>
<path d="M205.832 86H204.488V74.832H208.936C209.917 74.832 210.68 75.104 211.224 75.648C211.779 76.192 212.056 76.976 212.056 78C212.056 78.8213 211.864 79.4987 211.48 80.032C211.107 80.5547 210.552 80.9013 209.816 81.072L212.376 86H210.856L208.44 81.2H205.832V86ZM208.936 80.048C209.469 80.048 209.88 79.9093 210.168 79.632C210.467 79.3547 210.616 78.96 210.616 78.448V77.616C210.616 77.104 210.467 76.7093 210.168 76.432C209.88 76.1547 209.469 76.016 208.936 76.016H205.832V80.048H208.936ZM220.438 86C219.958 86 219.611 85.872 219.398 85.616C219.195 85.36 219.067 85.04 219.014 84.656H218.934C218.753 85.168 218.454 85.552 218.038 85.808C217.622 86.064 217.126 86.192 216.55 86.192C215.675 86.192 214.993 85.968 214.502 85.52C214.022 85.072 213.782 84.464 213.782 83.696C213.782 82.9173 214.065 82.32 214.63 81.904C215.206 81.488 216.097 81.28 217.302 81.28H218.934V80.464C218.934 79.8773 218.774 79.4293 218.454 79.12C218.134 78.8107 217.643 78.656 216.982 78.656C216.481 78.656 216.059 78.768 215.718 78.992C215.387 79.216 215.11 79.5147 214.886 79.888L214.118 79.168C214.342 78.72 214.699 78.3413 215.19 78.032C215.681 77.712 216.299 77.552 217.046 77.552C218.049 77.552 218.827 77.7973 219.382 78.288C219.937 78.7787 220.214 79.4613 220.214 80.336V84.88H221.158V86H220.438ZM216.758 85.104C217.078 85.104 217.371 85.0667 217.638 84.992C217.905 84.9173 218.134 84.8107 218.326 84.672C218.518 84.5333 218.667 84.3733 218.774 84.192C218.881 84.0107 218.934 83.8133 218.934 83.6V82.24H217.238C216.502 82.24 215.963 82.3467 215.622 82.56C215.291 82.7733 215.126 83.0827 215.126 83.488V83.824C215.126 84.2293 215.27 84.544 215.558 84.768C215.857 84.992 216.257 85.104 216.758 85.104ZM224.809 86C224.361 86 224.02 85.8773 223.785 85.632C223.561 85.376 223.449 85.0453 223.449 84.64V78.864H222.089V77.744H222.857C223.134 77.744 223.321 77.6907 223.417 77.584C223.524 77.4667 223.577 77.2693 223.577 76.992V75.456H224.729V77.744H226.537V78.864H224.729V84.88H226.409V86H224.809ZM231.636 86.192C231.071 86.192 230.559 86.0907 230.1 85.888C229.652 85.6853 229.263 85.3973 228.932 85.024C228.612 84.64 228.361 84.1867 228.18 83.664C228.009 83.1307 227.924 82.5333 227.924 81.872C227.924 81.2213 228.009 80.6293 228.18 80.096C228.361 79.5627 228.612 79.1093 228.932 78.736C229.263 78.352 229.652 78.0587 230.1 77.856C230.559 77.6533 231.071 77.552 231.636 77.552C232.191 77.552 232.687 77.6533 233.124 77.856C233.561 78.0587 233.935 78.3413 234.244 78.704C234.553 79.056 234.788 79.4773 234.948 79.968C235.119 80.4587 235.204 80.9973 235.204 81.584V82.192H229.268V82.576C229.268 82.928 229.321 83.2587 229.428 83.568C229.545 83.8667 229.705 84.128 229.908 84.352C230.121 84.576 230.377 84.752 230.676 84.88C230.985 85.008 231.332 85.072 231.716 85.072C232.239 85.072 232.692 84.9493 233.076 84.704C233.471 84.4587 233.775 84.1067 233.988 83.648L234.9 84.304C234.633 84.8693 234.217 85.328 233.652 85.68C233.087 86.0213 232.415 86.192 231.636 86.192ZM231.636 78.624C231.284 78.624 230.964 78.688 230.676 78.816C230.388 78.9333 230.137 79.104 229.924 79.328C229.721 79.552 229.561 79.8187 229.444 80.128C229.327 80.4267 229.268 80.7573 229.268 81.12V81.232H233.828V81.056C233.828 80.32 233.625 79.7333 233.22 79.296C232.825 78.848 232.297 78.624 231.636 78.624Z" fill="#282D46"/>
<path d="M210.248 211.016V221H208.904V211.016H205.352V209.832H213.8V211.016H210.248ZM214.798 221V212.744H216.078V214.264H216.158C216.307 213.869 216.574 213.517 216.958 213.208C217.342 212.899 217.87 212.744 218.542 212.744H219.038V214.024H218.286C217.592 214.024 217.048 214.157 216.654 214.424C216.27 214.68 216.078 215.005 216.078 215.4V221H214.798ZM225.761 219.656H225.697C225.611 219.848 225.505 220.04 225.377 220.232C225.259 220.413 225.11 220.579 224.929 220.728C224.747 220.867 224.529 220.979 224.273 221.064C224.017 221.149 223.718 221.192 223.377 221.192C222.523 221.192 221.846 220.92 221.345 220.376C220.843 219.821 220.593 219.043 220.593 218.04V212.744H221.873V217.816C221.873 219.299 222.502 220.04 223.761 220.04C224.017 220.04 224.262 220.008 224.497 219.944C224.742 219.88 224.955 219.784 225.137 219.656C225.329 219.528 225.478 219.368 225.585 219.176C225.702 218.973 225.761 218.733 225.761 218.456V212.744H227.041V221H225.761V219.656ZM232.246 221.192C231.478 221.192 230.833 221.048 230.31 220.76C229.798 220.461 229.356 220.067 228.982 219.576L229.894 218.84C230.214 219.245 230.572 219.56 230.966 219.784C231.361 219.997 231.82 220.104 232.342 220.104C232.886 220.104 233.308 219.987 233.606 219.752C233.916 219.517 234.07 219.187 234.07 218.76C234.07 218.44 233.964 218.168 233.75 217.944C233.548 217.709 233.174 217.549 232.63 217.464L231.974 217.368C231.59 217.315 231.238 217.235 230.918 217.128C230.598 217.011 230.316 216.861 230.07 216.68C229.836 216.488 229.649 216.253 229.51 215.976C229.382 215.699 229.318 215.368 229.318 214.984C229.318 214.579 229.393 214.227 229.542 213.928C229.692 213.619 229.894 213.363 230.15 213.16C230.417 212.957 230.732 212.808 231.094 212.712C231.457 212.605 231.846 212.552 232.262 212.552C232.934 212.552 233.494 212.669 233.942 212.904C234.401 213.139 234.801 213.464 235.142 213.88L234.294 214.648C234.113 214.392 233.846 214.163 233.494 213.96C233.142 213.747 232.7 213.64 232.166 213.64C231.633 213.64 231.228 213.757 230.95 213.992C230.684 214.216 230.55 214.525 230.55 214.92C230.55 215.325 230.684 215.619 230.95 215.8C231.228 215.981 231.622 216.115 232.134 216.2L232.774 216.296C233.692 216.435 234.342 216.701 234.726 217.096C235.11 217.48 235.302 217.987 235.302 218.616C235.302 219.416 235.03 220.045 234.486 220.504C233.942 220.963 233.196 221.192 232.246 221.192ZM239.278 221C238.83 221 238.488 220.877 238.254 220.632C238.03 220.376 237.918 220.045 237.918 219.64V213.864H236.558V212.744H237.326C237.603 212.744 237.79 212.691 237.886 212.584C237.992 212.467 238.046 212.269 238.046 211.992V210.456H239.198V212.744H241.006V213.864H239.198V219.88H240.878V221H239.278Z" fill="#282D46"/>
<path d="M205.832 287H204.488V275.832H208.936C209.917 275.832 210.68 276.104 211.224 276.648C211.779 277.192 212.056 277.976 212.056 279C212.056 279.821 211.864 280.499 211.48 281.032C211.107 281.555 210.552 281.901 209.816 282.072L212.376 287H210.856L208.44 282.2H205.832V287ZM208.936 281.048C209.469 281.048 209.88 280.909 210.168 280.632C210.467 280.355 210.616 279.96 210.616 279.448V278.616C210.616 278.104 210.467 277.709 210.168 277.432C209.88 277.155 209.469 277.016 208.936 277.016H205.832V281.048H208.936ZM217.464 287.192C216.899 287.192 216.387 287.091 215.928 286.888C215.48 286.685 215.091 286.397 214.76 286.024C214.44 285.64 214.189 285.187 214.008 284.664C213.837 284.131 213.752 283.533 213.752 282.872C213.752 282.221 213.837 281.629 214.008 281.096C214.189 280.563 214.44 280.109 214.76 279.736C215.091 279.352 215.48 279.059 215.928 278.856C216.387 278.653 216.899 278.552 217.464 278.552C218.019 278.552 218.515 278.653 218.952 278.856C219.389 279.059 219.763 279.341 220.072 279.704C220.381 280.056 220.616 280.477 220.776 280.968C220.947 281.459 221.032 281.997 221.032 282.584V283.192H215.096V283.576C215.096 283.928 215.149 284.259 215.256 284.568C215.373 284.867 215.533 285.128 215.736 285.352C215.949 285.576 216.205 285.752 216.504 285.88C216.813 286.008 217.16 286.072 217.544 286.072C218.067 286.072 218.52 285.949 218.904 285.704C219.299 285.459 219.603 285.107 219.816 284.648L220.728 285.304C220.461 285.869 220.045 286.328 219.48 286.68C218.915 287.021 218.243 287.192 217.464 287.192ZM217.464 279.624C217.112 279.624 216.792 279.688 216.504 279.816C216.216 279.933 215.965 280.104 215.752 280.328C215.549 280.552 215.389 280.819 215.272 281.128C215.155 281.427 215.096 281.757 215.096 282.12V282.232H219.656V282.056C219.656 281.32 219.453 280.733 219.048 280.296C218.653 279.848 218.125 279.624 217.464 279.624ZM224.501 287C224.053 287 223.712 286.877 223.477 286.632C223.253 286.376 223.141 286.056 223.141 285.672V275.16H224.421V285.88H225.637V287H224.501ZM233.501 287C233.021 287 232.674 286.872 232.461 286.616C232.258 286.36 232.13 286.04 232.077 285.656H231.997C231.815 286.168 231.517 286.552 231.101 286.808C230.685 287.064 230.189 287.192 229.613 287.192C228.738 287.192 228.055 286.968 227.565 286.52C227.085 286.072 226.845 285.464 226.845 284.696C226.845 283.917 227.127 283.32 227.693 282.904C228.269 282.488 229.159 282.28 230.365 282.28H231.997V281.464C231.997 280.877 231.837 280.429 231.517 280.12C231.197 279.811 230.706 279.656 230.045 279.656C229.543 279.656 229.122 279.768 228.781 279.992C228.45 280.216 228.173 280.515 227.949 280.888L227.181 280.168C227.405 279.72 227.762 279.341 228.253 279.032C228.743 278.712 229.362 278.552 230.109 278.552C231.111 278.552 231.89 278.797 232.445 279.288C232.999 279.779 233.277 280.461 233.277 281.336V285.88H234.221V287H233.501ZM229.821 286.104C230.141 286.104 230.434 286.067 230.701 285.992C230.967 285.917 231.197 285.811 231.389 285.672C231.581 285.533 231.73 285.373 231.837 285.192C231.943 285.011 231.997 284.813 231.997 284.6V283.24H230.301C229.565 283.24 229.026 283.347 228.685 283.56C228.354 283.773 228.189 284.083 228.189 284.488V284.824C228.189 285.229 228.333 285.544 228.621 285.768C228.919 285.992 229.319 286.104 229.821 286.104ZM237.872 287C237.424 287 237.082 286.877 236.848 286.632C236.624 286.376 236.512 286.045 236.512 285.64V279.864H235.152V278.744H235.92C236.197 278.744 236.384 278.691 236.48 278.584C236.586 278.467 236.64 278.269 236.64 277.992V276.456H237.792V278.744H239.6V279.864H237.792V285.88H239.472V287H237.872ZM242.297 276.808C242.02 276.808 241.817 276.744 241.689 276.616C241.572 276.477 241.513 276.301 241.513 276.088V275.88C241.513 275.667 241.572 275.496 241.689 275.368C241.817 275.229 242.02 275.16 242.297 275.16C242.574 275.16 242.772 275.229 242.889 275.368C243.017 275.496 243.081 275.667 243.081 275.88V276.088C243.081 276.301 243.017 276.477 242.889 276.616C242.772 276.744 242.574 276.808 242.297 276.808ZM241.657 278.744H242.937V287H241.657V278.744ZM248.777 287.192C248.222 287.192 247.716 287.091 247.257 286.888C246.798 286.685 246.404 286.397 246.073 286.024C245.753 285.64 245.502 285.187 245.321 284.664C245.14 284.131 245.049 283.533 245.049 282.872C245.049 282.221 245.14 281.629 245.321 281.096C245.502 280.563 245.753 280.109 246.073 279.736C246.404 279.352 246.798 279.059 247.257 278.856C247.716 278.653 248.222 278.552 248.777 278.552C249.332 278.552 249.833 278.653 250.281 278.856C250.74 279.059 251.134 279.352 251.465 279.736C251.796 280.109 252.052 280.563 252.233 281.096C252.414 281.629 252.505 282.221 252.505 282.872C252.505 283.533 252.414 284.131 252.233 284.664C252.052 285.187 251.796 285.64 251.465 286.024C251.134 286.397 250.74 286.685 250.281 286.888C249.833 287.091 249.332 287.192 248.777 287.192ZM248.777 286.056C249.47 286.056 250.036 285.843 250.473 285.416C250.91 284.989 251.129 284.339 251.129 283.464V282.28C251.129 281.405 250.91 280.755 250.473 280.328C250.036 279.901 249.47 279.688 248.777 279.688C248.084 279.688 247.518 279.901 247.081 280.328C246.644 280.755 246.425 281.405 246.425 282.28V283.464C246.425 284.339 246.644 284.989 247.081 285.416C247.518 285.843 248.084 286.056 248.777 286.056ZM254.61 287V278.744H255.89V280.088H255.954C256.157 279.619 256.439 279.245 256.802 278.968C257.175 278.691 257.671 278.552 258.29 278.552C259.143 278.552 259.815 278.829 260.306 279.384C260.807 279.928 261.058 280.701 261.058 281.704V287H259.778V281.928C259.778 280.445 259.154 279.704 257.906 279.704C257.65 279.704 257.399 279.736 257.154 279.8C256.919 279.864 256.706 279.96 256.514 280.088C256.322 280.216 256.167 280.381 256.05 280.584C255.943 280.776 255.89 281.005 255.89 281.272V287H254.61ZM266.184 287.192C265.416 287.192 264.77 287.048 264.248 286.76C263.736 286.461 263.293 286.067 262.92 285.576L263.832 284.84C264.152 285.245 264.509 285.56 264.904 285.784C265.298 285.997 265.757 286.104 266.28 286.104C266.824 286.104 267.245 285.987 267.544 285.752C267.853 285.517 268.008 285.187 268.008 284.76C268.008 284.44 267.901 284.168 267.688 283.944C267.485 283.709 267.112 283.549 266.568 283.464L265.912 283.368C265.528 283.315 265.176 283.235 264.856 283.128C264.536 283.011 264.253 282.861 264.008 282.68C263.773 282.488 263.586 282.253 263.448 281.976C263.32 281.699 263.256 281.368 263.256 280.984C263.256 280.579 263.33 280.227 263.48 279.928C263.629 279.619 263.832 279.363 264.088 279.16C264.354 278.957 264.669 278.808 265.032 278.712C265.394 278.605 265.784 278.552 266.2 278.552C266.872 278.552 267.432 278.669 267.88 278.904C268.338 279.139 268.738 279.464 269.08 279.88L268.232 280.648C268.05 280.392 267.784 280.163 267.432 279.96C267.08 279.747 266.637 279.64 266.104 279.64C265.57 279.64 265.165 279.757 264.888 279.992C264.621 280.216 264.488 280.525 264.488 280.92C264.488 281.325 264.621 281.619 264.888 281.8C265.165 281.981 265.56 282.115 266.072 282.2L266.712 282.296C267.629 282.435 268.28 282.701 268.664 283.096C269.048 283.48 269.24 283.987 269.24 284.616C269.24 285.416 268.968 286.045 268.424 286.504C267.88 286.963 267.133 287.192 266.184 287.192ZM271.501 275.16H272.781V280.088H272.845C273.047 279.619 273.33 279.245 273.693 278.968C274.066 278.691 274.562 278.552 275.181 278.552C276.034 278.552 276.706 278.829 277.197 279.384C277.698 279.928 277.949 280.701 277.949 281.704V287H276.669V281.928C276.669 280.445 276.045 279.704 274.797 279.704C274.541 279.704 274.29 279.736 274.045 279.8C273.81 279.864 273.597 279.96 273.405 280.088C273.213 280.216 273.058 280.381 272.941 280.584C272.834 280.776 272.781 281.005 272.781 281.272V287H271.501V275.16ZM281.234 276.808C280.957 276.808 280.754 276.744 280.626 276.616C280.509 276.477 280.45 276.301 280.45 276.088V275.88C280.45 275.667 280.509 275.496 280.626 275.368C280.754 275.229 280.957 275.16 281.234 275.16C281.512 275.16 281.709 275.229 281.826 275.368C281.954 275.496 282.018 275.667 282.018 275.88V276.088C282.018 276.301 281.954 276.477 281.826 276.616C281.709 276.744 281.512 276.808 281.234 276.808ZM280.594 278.744H281.874V287H280.594V278.744ZM284.594 278.744H285.874V280.088H285.938C286.152 279.565 286.461 279.181 286.866 278.936C287.282 278.68 287.778 278.552 288.354 278.552C288.866 278.552 289.33 278.653 289.746 278.856C290.162 279.059 290.514 279.347 290.802 279.72C291.101 280.093 291.325 280.547 291.474 281.08C291.634 281.613 291.714 282.211 291.714 282.872C291.714 283.533 291.634 284.131 291.474 284.664C291.325 285.197 291.101 285.651 290.802 286.024C290.514 286.397 290.162 286.685 289.746 286.888C289.33 287.091 288.866 287.192 288.354 287.192C287.234 287.192 286.429 286.68 285.938 285.656H285.874V290.2H284.594V278.744ZM288.002 286.04C288.728 286.04 289.298 285.816 289.714 285.368C290.13 284.909 290.338 284.312 290.338 283.576V282.168C290.338 281.432 290.13 280.84 289.714 280.392C289.298 279.933 288.728 279.704 288.002 279.704C287.714 279.704 287.437 279.747 287.17 279.832C286.914 279.907 286.69 280.013 286.498 280.152C286.306 280.291 286.152 280.461 286.034 280.664C285.928 280.856 285.874 281.064 285.874 281.288V284.36C285.874 284.627 285.928 284.867 286.034 285.08C286.152 285.283 286.306 285.459 286.498 285.608C286.69 285.747 286.914 285.853 287.17 285.928C287.437 286.003 287.714 286.04 288.002 286.04ZM296.356 287.192C295.588 287.192 294.942 287.048 294.42 286.76C293.908 286.461 293.465 286.067 293.092 285.576L294.004 284.84C294.324 285.245 294.681 285.56 295.076 285.784C295.47 285.997 295.929 286.104 296.452 286.104C296.996 286.104 297.417 285.987 297.716 285.752C298.025 285.517 298.18 285.187 298.18 284.76C298.18 284.44 298.073 284.168 297.86 283.944C297.657 283.709 297.284 283.549 296.74 283.464L296.084 283.368C295.7 283.315 295.348 283.235 295.028 283.128C294.708 283.011 294.425 282.861 294.18 282.68C293.945 282.488 293.758 282.253 293.62 281.976C293.492 281.699 293.428 281.368 293.428 280.984C293.428 280.579 293.502 280.227 293.652 279.928C293.801 279.619 294.004 279.363 294.26 279.16C294.526 278.957 294.841 278.808 295.204 278.712C295.566 278.605 295.956 278.552 296.372 278.552C297.044 278.552 297.604 278.669 298.052 278.904C298.51 279.139 298.91 279.464 299.252 279.88L298.404 280.648C298.222 280.392 297.956 280.163 297.604 279.96C297.252 279.747 296.809 279.64 296.276 279.64C295.742 279.64 295.337 279.757 295.06 279.992C294.793 280.216 294.66 280.525 294.66 280.92C294.66 281.325 294.793 281.619 295.06 281.8C295.337 281.981 295.732 282.115 296.244 282.2L296.884 282.296C297.801 282.435 298.452 282.701 298.836 283.096C299.22 283.48 299.412 283.987 299.412 284.616C299.412 285.416 299.14 286.045 298.596 286.504C298.052 286.963 297.305 287.192 296.356 287.192Z" fill="#282D46"/>
<path d="M207.624 354.192C206.717 354.192 205.944 354.021 205.304 353.68C204.664 353.328 204.12 352.848 203.672 352.24L204.664 351.408C205.059 351.931 205.496 352.331 205.976 352.608C206.456 352.875 207.021 353.008 207.672 353.008C208.472 353.008 209.08 352.816 209.496 352.432C209.923 352.048 210.136 351.536 210.136 350.896C210.136 350.363 209.976 349.952 209.656 349.664C209.336 349.376 208.808 349.147 208.072 348.976L207.16 348.768C206.136 348.533 205.352 348.181 204.808 347.712C204.275 347.232 204.008 346.56 204.008 345.696C204.008 345.205 204.099 344.768 204.28 344.384C204.461 344 204.712 343.68 205.032 343.424C205.363 343.168 205.752 342.976 206.2 342.848C206.659 342.709 207.16 342.64 207.704 342.64C208.547 342.64 209.267 342.795 209.864 343.104C210.472 343.413 210.984 343.867 211.4 344.464L210.392 345.2C210.083 344.773 209.709 344.437 209.272 344.192C208.835 343.947 208.291 343.824 207.64 343.824C206.925 343.824 206.36 343.979 205.944 344.288C205.539 344.587 205.336 345.04 205.336 345.648C205.336 346.181 205.507 346.587 205.848 346.864C206.2 347.131 206.728 347.344 207.432 347.504L208.344 347.712C209.443 347.957 210.237 348.331 210.728 348.832C211.219 349.333 211.464 350 211.464 350.832C211.464 351.344 211.373 351.808 211.192 352.224C211.021 352.64 210.771 352.992 210.44 353.28C210.109 353.568 209.704 353.792 209.224 353.952C208.755 354.112 208.221 354.192 207.624 354.192ZM216.761 354.192C216.196 354.192 215.684 354.091 215.225 353.888C214.777 353.685 214.388 353.397 214.057 353.024C213.737 352.64 213.486 352.187 213.305 351.664C213.134 351.131 213.049 350.533 213.049 349.872C213.049 349.221 213.134 348.629 213.305 348.096C213.486 347.563 213.737 347.109 214.057 346.736C214.388 346.352 214.777 346.059 215.225 345.856C215.684 345.653 216.196 345.552 216.761 345.552C217.316 345.552 217.812 345.653 218.249 345.856C218.686 346.059 219.06 346.341 219.369 346.704C219.678 347.056 219.913 347.477 220.073 347.968C220.244 348.459 220.329 348.997 220.329 349.584V350.192H214.393V350.576C214.393 350.928 214.446 351.259 214.553 351.568C214.67 351.867 214.83 352.128 215.033 352.352C215.246 352.576 215.502 352.752 215.801 352.88C216.11 353.008 216.457 353.072 216.841 353.072C217.364 353.072 217.817 352.949 218.201 352.704C218.596 352.459 218.9 352.107 219.113 351.648L220.025 352.304C219.758 352.869 219.342 353.328 218.777 353.68C218.212 354.021 217.54 354.192 216.761 354.192ZM216.761 346.624C216.409 346.624 216.089 346.688 215.801 346.816C215.513 346.933 215.262 347.104 215.049 347.328C214.846 347.552 214.686 347.819 214.569 348.128C214.452 348.427 214.393 348.757 214.393 349.12V349.232H218.953V349.056C218.953 348.32 218.75 347.733 218.345 347.296C217.95 346.848 217.422 346.624 216.761 346.624ZM225.542 354.192C224.977 354.192 224.465 354.091 224.006 353.888C223.558 353.685 223.169 353.397 222.838 353.024C222.518 352.64 222.267 352.187 222.086 351.664C221.915 351.131 221.83 350.533 221.83 349.872C221.83 349.221 221.915 348.629 222.086 348.096C222.267 347.563 222.518 347.109 222.838 346.736C223.169 346.352 223.558 346.059 224.006 345.856C224.465 345.653 224.977 345.552 225.542 345.552C226.097 345.552 226.593 345.653 227.03 345.856C227.467 346.059 227.841 346.341 228.15 346.704C228.459 347.056 228.694 347.477 228.854 347.968C229.025 348.459 229.11 348.997 229.11 349.584V350.192H223.174V350.576C223.174 350.928 223.227 351.259 223.334 351.568C223.451 351.867 223.611 352.128 223.814 352.352C224.027 352.576 224.283 352.752 224.582 352.88C224.891 353.008 225.238 353.072 225.622 353.072C226.145 353.072 226.598 352.949 226.982 352.704C227.377 352.459 227.681 352.107 227.894 351.648L228.806 352.304C228.539 352.869 228.123 353.328 227.558 353.68C226.993 354.021 226.321 354.192 225.542 354.192ZM225.542 346.624C225.19 346.624 224.87 346.688 224.582 346.816C224.294 346.933 224.043 347.104 223.83 347.328C223.627 347.552 223.467 347.819 223.35 348.128C223.233 348.427 223.174 348.757 223.174 349.12V349.232H227.734V349.056C227.734 348.32 227.531 347.733 227.126 347.296C226.731 346.848 226.203 346.624 225.542 346.624ZM231.219 354V345.744H232.499V347.088H232.563C232.659 346.875 232.766 346.677 232.883 346.496C233.011 346.304 233.161 346.139 233.331 346C233.513 345.861 233.721 345.755 233.955 345.68C234.19 345.595 234.467 345.552 234.787 345.552C235.331 345.552 235.833 345.685 236.291 345.952C236.75 346.208 237.091 346.635 237.315 347.232H237.347C237.497 346.784 237.774 346.395 238.179 346.064C238.595 345.723 239.155 345.552 239.859 345.552C240.702 345.552 241.358 345.829 241.827 346.384C242.307 346.928 242.547 347.701 242.547 348.704V354H241.267V348.928C241.267 348.192 241.123 347.637 240.835 347.264C240.547 346.891 240.089 346.704 239.459 346.704C239.203 346.704 238.958 346.736 238.723 346.8C238.499 346.864 238.297 346.96 238.115 347.088C237.934 347.216 237.79 347.381 237.683 347.584C237.577 347.776 237.523 348.005 237.523 348.272V354H236.243V348.928C236.243 348.192 236.099 347.637 235.811 347.264C235.523 346.891 235.075 346.704 234.467 346.704C234.211 346.704 233.966 346.736 233.731 346.8C233.497 346.864 233.289 346.96 233.107 347.088C232.926 347.216 232.777 347.381 232.659 347.584C232.553 347.776 232.499 348.005 232.499 348.272V354H231.219ZM246.548 354C246.1 354 245.759 353.877 245.524 353.632C245.3 353.376 245.188 353.056 245.188 352.672V342.16H246.468V352.88H247.684V354H246.548ZM252.652 354.192C252.086 354.192 251.574 354.091 251.116 353.888C250.668 353.685 250.278 353.397 249.948 353.024C249.628 352.64 249.377 352.187 249.196 351.664C249.025 351.131 248.94 350.533 248.94 349.872C248.94 349.221 249.025 348.629 249.196 348.096C249.377 347.563 249.628 347.109 249.948 346.736C250.278 346.352 250.668 346.059 251.116 345.856C251.574 345.653 252.086 345.552 252.652 345.552C253.206 345.552 253.702 345.653 254.14 345.856C254.577 346.059 254.95 346.341 255.26 346.704C255.569 347.056 255.804 347.477 255.964 347.968C256.134 348.459 256.22 348.997 256.22 349.584V350.192H250.284V350.576C250.284 350.928 250.337 351.259 250.444 351.568C250.561 351.867 250.721 352.128 250.924 352.352C251.137 352.576 251.393 352.752 251.692 352.88C252.001 353.008 252.348 353.072 252.732 353.072C253.254 353.072 253.708 352.949 254.092 352.704C254.486 352.459 254.79 352.107 255.004 351.648L255.916 352.304C255.649 352.869 255.233 353.328 254.668 353.68C254.102 354.021 253.43 354.192 252.652 354.192ZM252.652 346.624C252.3 346.624 251.98 346.688 251.692 346.816C251.404 346.933 251.153 347.104 250.94 347.328C250.737 347.552 250.577 347.819 250.46 348.128C250.342 348.427 250.284 348.757 250.284 349.12V349.232H254.844V349.056C254.844 348.32 254.641 347.733 254.236 347.296C253.841 346.848 253.313 346.624 252.652 346.624ZM260.809 354.192C260.041 354.192 259.395 354.048 258.873 353.76C258.361 353.461 257.918 353.067 257.545 352.576L258.457 351.84C258.777 352.245 259.134 352.56 259.529 352.784C259.923 352.997 260.382 353.104 260.905 353.104C261.449 353.104 261.87 352.987 262.169 352.752C262.478 352.517 262.633 352.187 262.633 351.76C262.633 351.44 262.526 351.168 262.313 350.944C262.11 350.709 261.737 350.549 261.193 350.464L260.537 350.368C260.153 350.315 259.801 350.235 259.481 350.128C259.161 350.011 258.878 349.861 258.633 349.68C258.398 349.488 258.211 349.253 258.073 348.976C257.945 348.699 257.881 348.368 257.881 347.984C257.881 347.579 257.955 347.227 258.105 346.928C258.254 346.619 258.457 346.363 258.713 346.16C258.979 345.957 259.294 345.808 259.657 345.712C260.019 345.605 260.409 345.552 260.825 345.552C261.497 345.552 262.057 345.669 262.505 345.904C262.963 346.139 263.363 346.464 263.705 346.88L262.857 347.648C262.675 347.392 262.409 347.163 262.057 346.96C261.705 346.747 261.262 346.64 260.729 346.64C260.195 346.64 259.79 346.757 259.513 346.992C259.246 347.216 259.113 347.525 259.113 347.92C259.113 348.325 259.246 348.619 259.513 348.8C259.79 348.981 260.185 349.115 260.697 349.2L261.337 349.296C262.254 349.435 262.905 349.701 263.289 350.096C263.673 350.48 263.865 350.987 263.865 351.616C263.865 352.416 263.593 353.045 263.049 353.504C262.505 353.963 261.758 354.192 260.809 354.192ZM268.512 354.192C267.744 354.192 267.099 354.048 266.576 353.76C266.064 353.461 265.621 353.067 265.248 352.576L266.16 351.84C266.48 352.245 266.837 352.56 267.232 352.784C267.627 352.997 268.085 353.104 268.608 353.104C269.152 353.104 269.573 352.987 269.872 352.752C270.181 352.517 270.336 352.187 270.336 351.76C270.336 351.44 270.229 351.168 270.016 350.944C269.813 350.709 269.44 350.549 268.896 350.464L268.24 350.368C267.856 350.315 267.504 350.235 267.184 350.128C266.864 350.011 266.581 349.861 266.336 349.68C266.101 349.488 265.915 349.253 265.776 348.976C265.648 348.699 265.584 348.368 265.584 347.984C265.584 347.579 265.659 347.227 265.808 346.928C265.957 346.619 266.16 346.363 266.416 346.16C266.683 345.957 266.997 345.808 267.36 345.712C267.723 345.605 268.112 345.552 268.528 345.552C269.2 345.552 269.76 345.669 270.208 345.904C270.667 346.139 271.067 346.464 271.408 346.88L270.56 347.648C270.379 347.392 270.112 347.163 269.76 346.96C269.408 346.747 268.965 346.64 268.432 346.64C267.899 346.64 267.493 346.757 267.216 346.992C266.949 347.216 266.816 347.525 266.816 347.92C266.816 348.325 266.949 348.619 267.216 348.8C267.493 348.981 267.888 349.115 268.4 349.2L269.04 349.296C269.957 349.435 270.608 349.701 270.992 350.096C271.376 350.48 271.568 350.987 271.568 351.616C271.568 352.416 271.296 353.045 270.752 353.504C270.208 353.963 269.461 354.192 268.512 354.192ZM277.61 345.744H278.89V347.088H278.954C279.167 346.565 279.477 346.181 279.882 345.936C280.298 345.68 280.794 345.552 281.37 345.552C281.882 345.552 282.346 345.653 282.762 345.856C283.178 346.059 283.53 346.347 283.818 346.72C284.117 347.093 284.341 347.547 284.49 348.08C284.65 348.613 284.73 349.211 284.73 349.872C284.73 350.533 284.65 351.131 284.49 351.664C284.341 352.197 284.117 352.651 283.818 353.024C283.53 353.397 283.178 353.685 282.762 353.888C282.346 354.091 281.882 354.192 281.37 354.192C280.25 354.192 279.445 353.68 278.954 352.656H278.89V357.2H277.61V345.744ZM281.018 353.04C281.743 353.04 282.314 352.816 282.73 352.368C283.146 351.909 283.354 351.312 283.354 350.576V349.168C283.354 348.432 283.146 347.84 282.73 347.392C282.314 346.933 281.743 346.704 281.018 346.704C280.73 346.704 280.453 346.747 280.186 346.832C279.93 346.907 279.706 347.013 279.514 347.152C279.322 347.291 279.167 347.461 279.05 347.664C278.943 347.856 278.89 348.064 278.89 348.288V351.36C278.89 351.627 278.943 351.867 279.05 352.08C279.167 352.283 279.322 352.459 279.514 352.608C279.706 352.747 279.93 352.853 280.186 352.928C280.453 353.003 280.73 353.04 281.018 353.04ZM286.891 354V345.744H288.171V347.264H288.251C288.401 346.869 288.667 346.517 289.051 346.208C289.435 345.899 289.963 345.744 290.635 345.744H291.131V347.024H290.379C289.686 347.024 289.142 347.157 288.747 347.424C288.363 347.68 288.171 348.005 288.171 348.4V354H286.891ZM295.808 354.192C295.253 354.192 294.747 354.091 294.288 353.888C293.829 353.685 293.435 353.397 293.104 353.024C292.784 352.64 292.533 352.187 292.352 351.664C292.171 351.131 292.08 350.533 292.08 349.872C292.08 349.221 292.171 348.629 292.352 348.096C292.533 347.563 292.784 347.109 293.104 346.736C293.435 346.352 293.829 346.059 294.288 345.856C294.747 345.653 295.253 345.552 295.808 345.552C296.363 345.552 296.864 345.653 297.312 345.856C297.771 346.059 298.165 346.352 298.496 346.736C298.827 347.109 299.083 347.563 299.264 348.096C299.445 348.629 299.536 349.221 299.536 349.872C299.536 350.533 299.445 351.131 299.264 351.664C299.083 352.187 298.827 352.64 298.496 353.024C298.165 353.397 297.771 353.685 297.312 353.888C296.864 354.091 296.363 354.192 295.808 354.192ZM295.808 353.056C296.501 353.056 297.067 352.843 297.504 352.416C297.941 351.989 298.16 351.339 298.16 350.464V349.28C298.16 348.405 297.941 347.755 297.504 347.328C297.067 346.901 296.501 346.688 295.808 346.688C295.115 346.688 294.549 346.901 294.112 347.328C293.675 347.755 293.456 348.405 293.456 349.28V350.464C293.456 351.339 293.675 351.989 294.112 352.416C294.549 352.843 295.115 353.056 295.808 353.056ZM304.713 354.192C304.137 354.192 303.62 354.091 303.161 353.888C302.703 353.685 302.313 353.397 301.993 353.024C301.684 352.651 301.444 352.197 301.273 351.664C301.113 351.131 301.033 350.533 301.033 349.872C301.033 349.211 301.113 348.613 301.273 348.08C301.444 347.547 301.684 347.093 301.993 346.72C302.313 346.347 302.703 346.059 303.161 345.856C303.62 345.653 304.137 345.552 304.713 345.552C305.535 345.552 306.191 345.733 306.681 346.096C307.183 346.448 307.556 346.912 307.801 347.488L306.729 348.032C306.58 347.605 306.335 347.275 305.993 347.04C305.652 346.805 305.225 346.688 304.713 346.688C304.329 346.688 303.993 346.752 303.705 346.88C303.417 346.997 303.177 347.168 302.985 347.392C302.793 347.605 302.649 347.867 302.553 348.176C302.457 348.475 302.409 348.805 302.409 349.168V350.576C302.409 351.301 302.601 351.899 302.985 352.368C303.38 352.827 303.956 353.056 304.713 353.056C305.748 353.056 306.495 352.576 306.953 351.616L307.881 352.24C307.615 352.837 307.215 353.312 306.681 353.664C306.159 354.016 305.503 354.192 304.713 354.192ZM312.698 354.192C312.133 354.192 311.621 354.091 311.162 353.888C310.714 353.685 310.325 353.397 309.994 353.024C309.674 352.64 309.424 352.187 309.242 351.664C309.072 351.131 308.986 350.533 308.986 349.872C308.986 349.221 309.072 348.629 309.242 348.096C309.424 347.563 309.674 347.109 309.994 346.736C310.325 346.352 310.714 346.059 311.162 345.856C311.621 345.653 312.133 345.552 312.698 345.552C313.253 345.552 313.749 345.653 314.186 345.856C314.624 346.059 314.997 346.341 315.306 346.704C315.616 347.056 315.85 347.477 316.01 347.968C316.181 348.459 316.266 348.997 316.266 349.584V350.192H310.33V350.576C310.33 350.928 310.384 351.259 310.49 351.568C310.608 351.867 310.768 352.128 310.97 352.352C311.184 352.576 311.44 352.752 311.738 352.88C312.048 353.008 312.394 353.072 312.778 353.072C313.301 353.072 313.754 352.949 314.138 352.704C314.533 352.459 314.837 352.107 315.05 351.648L315.962 352.304C315.696 352.869 315.28 353.328 314.714 353.68C314.149 354.021 313.477 354.192 312.698 354.192ZM312.698 346.624C312.346 346.624 312.026 346.688 311.738 346.816C311.45 346.933 311.2 347.104 310.986 347.328C310.784 347.552 310.624 347.819 310.506 348.128C310.389 348.427 310.33 348.757 310.33 349.12V349.232H314.89V349.056C314.89 348.32 314.688 347.733 314.282 347.296C313.888 346.848 313.36 346.624 312.698 346.624ZM320.856 354.192C320.088 354.192 319.442 354.048 318.92 353.76C318.408 353.461 317.965 353.067 317.592 352.576L318.504 351.84C318.824 352.245 319.181 352.56 319.576 352.784C319.97 352.997 320.429 353.104 320.952 353.104C321.496 353.104 321.917 352.987 322.216 352.752C322.525 352.517 322.68 352.187 322.68 351.76C322.68 351.44 322.573 351.168 322.36 350.944C322.157 350.709 321.784 350.549 321.24 350.464L320.584 350.368C320.2 350.315 319.848 350.235 319.528 350.128C319.208 350.011 318.925 349.861 318.68 349.68C318.445 349.488 318.258 349.253 318.12 348.976C317.992 348.699 317.928 348.368 317.928 347.984C317.928 347.579 318.002 347.227 318.152 346.928C318.301 346.619 318.504 346.363 318.76 346.16C319.026 345.957 319.341 345.808 319.704 345.712C320.066 345.605 320.456 345.552 320.872 345.552C321.544 345.552 322.104 345.669 322.552 345.904C323.01 346.139 323.41 346.464 323.752 346.88L322.904 347.648C322.722 347.392 322.456 347.163 322.104 346.96C321.752 346.747 321.309 346.64 320.776 346.64C320.242 346.64 319.837 346.757 319.56 346.992C319.293 347.216 319.16 347.525 319.16 347.92C319.16 348.325 319.293 348.619 319.56 348.8C319.837 348.981 320.232 349.115 320.744 349.2L321.384 349.296C322.301 349.435 322.952 349.701 323.336 350.096C323.72 350.48 323.912 350.987 323.912 351.616C323.912 352.416 323.64 353.045 323.096 353.504C322.552 353.963 321.805 354.192 320.856 354.192ZM328.559 354.192C327.791 354.192 327.145 354.048 326.623 353.76C326.111 353.461 325.668 353.067 325.295 352.576L326.207 351.84C326.527 352.245 326.884 352.56 327.279 352.784C327.673 352.997 328.132 353.104 328.655 353.104C329.199 353.104 329.62 352.987 329.919 352.752C330.228 352.517 330.383 352.187 330.383 351.76C330.383 351.44 330.276 351.168 330.063 350.944C329.86 350.709 329.487 350.549 328.943 350.464L328.287 350.368C327.903 350.315 327.551 350.235 327.231 350.128C326.911 350.011 326.628 349.861 326.383 349.68C326.148 349.488 325.961 349.253 325.823 348.976C325.695 348.699 325.631 348.368 325.631 347.984C325.631 347.579 325.705 347.227 325.855 346.928C326.004 346.619 326.207 346.363 326.463 346.16C326.729 345.957 327.044 345.808 327.407 345.712C327.769 345.605 328.159 345.552 328.575 345.552C329.247 345.552 329.807 345.669 330.255 345.904C330.713 346.139 331.113 346.464 331.455 346.88L330.607 347.648C330.425 347.392 330.159 347.163 329.807 346.96C329.455 346.747 329.012 346.64 328.479 346.64C327.945 346.64 327.54 346.757 327.263 346.992C326.996 347.216 326.863 347.525 326.863 347.92C326.863 348.325 326.996 348.619 327.263 348.8C327.54 348.981 327.935 349.115 328.447 349.2L329.087 349.296C330.004 349.435 330.655 349.701 331.039 350.096C331.423 350.48 331.615 350.987 331.615 351.616C331.615 352.416 331.343 353.045 330.799 353.504C330.255 353.963 329.508 354.192 328.559 354.192Z" fill="#282D46"/>
<path d="M170 388V46L0 388H170Z" fill="#CBD4DC"/>
<line opacity="0.4" x1="176" y1="45" x2="409" y2="45" stroke="#CBD4DC" stroke-width="2"/>
<line opacity="0.4" x1="176" y1="252" x2="409" y2="252" stroke="#CBD4DC" stroke-width="2"/>
<line opacity="0.4" x1="176" y1="320" x2="409" y2="320" stroke="#CBD4DC" stroke-width="2"/>
<path d="M170 119H389C398.428 119 403.142 119 406.071 121.929C409 124.858 409 129.572 409 139V168C409 177.428 409 182.142 406.071 185.071C403.142 188 398.428 188 389 188H170V119Z" fill="#188AEC"/>
<path d="M261.369 162.288C259.961 162.288 258.761 162.032 257.769 161.52C256.793 161.008 255.953 160.32 255.249 159.456L257.121 157.704C257.713 158.424 258.361 158.968 259.065 159.336C259.785 159.704 260.601 159.888 261.513 159.888C262.585 159.888 263.393 159.648 263.937 159.168C264.481 158.688 264.753 158.04 264.753 157.224C264.753 156.568 264.561 156.048 264.177 155.664C263.793 155.28 263.113 154.992 262.137 154.8L260.649 154.536C259.017 154.232 257.793 153.696 256.977 152.928C256.161 152.16 255.753 151.104 255.753 149.76C255.753 149.024 255.889 148.36 256.161 147.768C256.449 147.16 256.841 146.656 257.337 146.256C257.849 145.84 258.465 145.52 259.185 145.296C259.905 145.072 260.713 144.96 261.609 144.96C262.873 144.96 263.969 145.184 264.897 145.632C265.825 146.064 266.617 146.696 267.273 147.528L265.377 149.208C264.945 148.648 264.417 148.2 263.793 147.864C263.169 147.528 262.393 147.36 261.465 147.36C260.505 147.36 259.761 147.552 259.233 147.936C258.705 148.32 258.441 148.88 258.441 149.616C258.441 150.32 258.657 150.848 259.089 151.2C259.521 151.536 260.193 151.792 261.105 151.968L262.593 152.28C264.273 152.6 265.497 153.144 266.265 153.912C267.049 154.68 267.441 155.736 267.441 157.08C267.441 157.864 267.305 158.576 267.033 159.216C266.761 159.856 266.361 160.408 265.833 160.872C265.321 161.32 264.689 161.672 263.937 161.928C263.185 162.168 262.329 162.288 261.369 162.288ZM270.505 149.52H273.121V151.584H273.241C273.513 150.832 273.953 150.256 274.561 149.856C275.185 149.44 275.913 149.232 276.745 149.232C278.329 149.232 279.553 149.808 280.417 150.96C281.281 152.096 281.713 153.696 281.713 155.76C281.713 157.824 281.281 159.432 280.417 160.584C279.553 161.72 278.329 162.288 276.745 162.288C275.913 162.288 275.185 162.08 274.561 161.664C273.953 161.248 273.513 160.672 273.241 159.936H273.121V166.8H270.505V149.52ZM275.953 160.032C276.865 160.032 277.593 159.744 278.137 159.168C278.681 158.576 278.953 157.8 278.953 156.84V154.68C278.953 153.72 278.681 152.952 278.137 152.376C277.593 151.784 276.865 151.488 275.953 151.488C275.153 151.488 274.481 151.688 273.937 152.088C273.393 152.472 273.121 152.984 273.121 153.624V157.896C273.121 158.536 273.393 159.056 273.937 159.456C274.481 159.84 275.153 160.032 275.953 160.032ZM289.604 162.288C288.708 162.288 287.908 162.136 287.204 161.832C286.5 161.528 285.9 161.096 285.404 160.536C284.908 159.96 284.524 159.272 284.252 158.472C283.996 157.656 283.868 156.752 283.868 155.76C283.868 154.768 283.996 153.872 284.252 153.072C284.524 152.256 284.908 151.568 285.404 151.008C285.9 150.432 286.5 149.992 287.204 149.688C287.908 149.384 288.708 149.232 289.604 149.232C290.516 149.232 291.316 149.392 292.004 149.712C292.708 150.032 293.292 150.48 293.756 151.056C294.22 151.616 294.564 152.272 294.788 153.024C295.028 153.776 295.148 154.584 295.148 155.448V156.432H286.58V156.84C286.58 157.8 286.86 158.592 287.42 159.216C287.996 159.824 288.812 160.128 289.868 160.128C290.636 160.128 291.284 159.96 291.812 159.624C292.34 159.288 292.788 158.832 293.156 158.256L294.692 159.768C294.228 160.536 293.556 161.152 292.676 161.616C291.796 162.064 290.772 162.288 289.604 162.288ZM289.604 151.272C289.156 151.272 288.74 151.352 288.356 151.512C287.988 151.672 287.668 151.896 287.396 152.184C287.14 152.472 286.94 152.816 286.796 153.216C286.652 153.616 286.58 154.056 286.58 154.536V154.704H292.388V154.464C292.388 153.504 292.14 152.736 291.644 152.16C291.148 151.568 290.468 151.272 289.604 151.272ZM302.94 162.288C302.044 162.288 301.244 162.136 300.54 161.832C299.836 161.528 299.236 161.096 298.74 160.536C298.244 159.96 297.86 159.272 297.588 158.472C297.332 157.656 297.204 156.752 297.204 155.76C297.204 154.768 297.332 153.872 297.588 153.072C297.86 152.256 298.244 151.568 298.74 151.008C299.236 150.432 299.836 149.992 300.54 149.688C301.244 149.384 302.044 149.232 302.94 149.232C303.852 149.232 304.652 149.392 305.34 149.712C306.044 150.032 306.628 150.48 307.092 151.056C307.556 151.616 307.9 152.272 308.124 153.024C308.364 153.776 308.484 154.584 308.484 155.448V156.432H299.916V156.84C299.916 157.8 300.196 158.592 300.756 159.216C301.332 159.824 302.148 160.128 303.204 160.128C303.972 160.128 304.62 159.96 305.148 159.624C305.676 159.288 306.124 158.832 306.492 158.256L308.028 159.768C307.564 160.536 306.892 161.152 306.012 161.616C305.132 162.064 304.108 162.288 302.94 162.288ZM302.94 151.272C302.492 151.272 302.076 151.352 301.692 151.512C301.324 151.672 301.004 151.896 300.732 152.184C300.476 152.472 300.276 152.816 300.132 153.216C299.988 153.616 299.916 154.056 299.916 154.536V154.704H305.724V154.464C305.724 153.504 305.476 152.736 304.98 152.16C304.484 151.568 303.804 151.272 302.94 151.272ZM319.228 159.936H319.108C318.836 160.672 318.388 161.248 317.764 161.664C317.156 162.08 316.436 162.288 315.604 162.288C314.02 162.288 312.796 161.72 311.932 160.584C311.068 159.432 310.636 157.824 310.636 155.76C310.636 153.696 311.068 152.096 311.932 150.96C312.796 149.808 314.02 149.232 315.604 149.232C316.436 149.232 317.156 149.44 317.764 149.856C318.388 150.256 318.836 150.832 319.108 151.584H319.228V144.24H321.844V162H319.228V159.936ZM316.396 160.032C317.196 160.032 317.868 159.84 318.412 159.456C318.956 159.056 319.228 158.536 319.228 157.896V153.624C319.228 152.984 318.956 152.472 318.412 152.088C317.868 151.688 317.196 151.488 316.396 151.488C315.484 151.488 314.756 151.784 314.212 152.376C313.668 152.952 313.396 153.72 313.396 154.68V156.84C313.396 157.8 313.668 158.576 314.212 159.168C314.756 159.744 315.484 160.032 316.396 160.032Z" fill="#F6FAFE"/>
<path d="M146 153.5L170 119.5V187L146 153.5Z" fill="#188AEC"/>
</svg>
