<svg width="438" height="174" viewBox="0 0 438 174" fill="none" xmlns="http://www.w3.org/2000/svg">
<path d="M0 90C0 55.1161 0 37.6741 10.837 26.837C21.6741 16 39.1161 16 74 16H364C398.884 16 416.326 16 427.163 26.837C438 37.6741 438 55.1161 438 90V100C438 134.884 438 152.326 427.163 163.163C416.326 174 398.884 174 364 174H74C39.1161 174 21.6741 174 10.837 163.163C0 152.326 0 134.884 0 100V90Z" fill="#F6FAFE"/>
<path d="M71.648 87.192C70.912 87.192 70.2453 87.0747 69.648 86.84C69.0613 86.5947 68.5547 86.232 68.128 85.752C67.712 85.272 67.392 84.68 67.168 83.976C66.944 83.2613 66.832 82.4347 66.832 81.496C66.832 80.5573 66.944 79.7253 67.168 79C67.392 78.264 67.712 77.6507 68.128 77.16C68.5547 76.6587 69.0613 76.28 69.648 76.024C70.2453 75.768 70.912 75.64 71.648 75.64C72.6507 75.64 73.4827 75.8533 74.144 76.28C74.8053 76.7067 75.3333 77.352 75.728 78.216L73.92 79.176C73.76 78.6747 73.4987 78.2747 73.136 77.976C72.7733 77.6667 72.2773 77.512 71.648 77.512C70.8587 77.512 70.2293 77.7787 69.76 78.312C69.3013 78.8453 69.072 79.592 69.072 80.552V82.312C69.072 83.2827 69.3013 84.0293 69.76 84.552C70.2293 85.064 70.8587 85.32 71.648 85.32C72.2773 85.32 72.7893 85.1493 73.184 84.808C73.5893 84.4667 73.8827 84.0453 74.064 83.544L75.776 84.552C75.3707 85.384 74.832 86.0347 74.16 86.504C73.488 86.9627 72.6507 87.192 71.648 87.192ZM77.4496 75.16H79.4976V80.04H79.5776C79.7483 79.592 80.015 79.2187 80.3776 78.92C80.751 78.6107 81.263 78.456 81.9136 78.456C82.7776 78.456 83.439 78.7387 83.8976 79.304C84.3563 79.8693 84.5856 80.6747 84.5856 81.72V87H82.5376V81.928C82.5376 81.3307 82.431 80.8827 82.2176 80.584C82.0043 80.2853 81.6523 80.136 81.1616 80.136C80.9483 80.136 80.7403 80.168 80.5376 80.232C80.3456 80.2853 80.1696 80.3707 80.0096 80.488C79.8603 80.5947 79.7376 80.7333 79.6416 80.904C79.5456 81.064 79.4976 81.256 79.4976 81.48V87H77.4496V75.16ZM87.8799 77.432C87.4532 77.432 87.1439 77.336 86.9519 77.144C86.7705 76.952 86.6799 76.7067 86.6799 76.408V76.088C86.6799 75.7893 86.7705 75.544 86.9519 75.352C87.1439 75.16 87.4532 75.064 87.8799 75.064C88.2959 75.064 88.5999 75.16 88.7919 75.352C88.9839 75.544 89.0799 75.7893 89.0799 76.088V76.408C89.0799 76.7067 88.9839 76.952 88.7919 77.144C88.5999 77.336 88.2959 77.432 87.8799 77.432ZM86.8559 78.648H88.9039V87H86.8559V78.648ZM93.3258 87C92.6218 87 92.1044 86.824 91.7738 86.472C91.4431 86.12 91.2778 85.624 91.2778 84.984V75.16H93.3258V85.368H94.4298V87H93.3258ZM101.165 85.608H101.085C100.936 86.088 100.653 86.472 100.237 86.76C99.8209 87.048 99.3355 87.192 98.7809 87.192C97.7249 87.192 96.9142 86.8133 96.3489 86.056C95.7942 85.2987 95.5169 84.216 95.5169 82.808C95.5169 81.4107 95.7942 80.3387 96.3489 79.592C96.9142 78.8347 97.7249 78.456 98.7809 78.456C99.3355 78.456 99.8209 78.6 100.237 78.888C100.653 79.1653 100.936 79.544 101.085 80.024H101.165V75.16H103.213V87H101.165V85.608ZM99.4369 85.496C99.9275 85.496 100.338 85.3787 100.669 85.144C101 84.9093 101.165 84.5733 101.165 84.136V81.48C101.165 81.0747 101 80.7493 100.669 80.504C100.338 80.2587 99.9275 80.136 99.4369 80.136C98.9035 80.136 98.4715 80.3173 98.1409 80.68C97.8209 81.032 97.6609 81.5067 97.6609 82.104V83.544C97.6609 84.1413 97.8209 84.616 98.1409 84.968C98.4715 85.32 98.9035 85.496 99.4369 85.496ZM105.575 87V78.648H107.623V80.376H107.703C107.756 80.152 107.836 79.9387 107.943 79.736C108.06 79.5227 108.209 79.336 108.391 79.176C108.572 79.016 108.785 78.888 109.031 78.792C109.287 78.696 109.58 78.648 109.911 78.648H110.359V80.584H109.719C109.025 80.584 108.503 80.6853 108.151 80.888C107.799 81.0907 107.623 81.4213 107.623 81.88V87H105.575ZM115.154 87.192C114.535 87.192 113.98 87.0907 113.49 86.888C113.01 86.6747 112.599 86.3813 112.258 86.008C111.927 85.624 111.671 85.1653 111.49 84.632C111.308 84.088 111.218 83.48 111.218 82.808C111.218 82.1467 111.303 81.5493 111.474 81.016C111.655 80.4827 111.911 80.0293 112.242 79.656C112.572 79.272 112.978 78.9787 113.458 78.776C113.938 78.5627 114.482 78.456 115.09 78.456C115.74 78.456 116.306 78.568 116.786 78.792C117.266 79.016 117.66 79.32 117.97 79.704C118.279 80.088 118.508 80.536 118.658 81.048C118.818 81.5493 118.898 82.088 118.898 82.664V83.336H113.346V83.544C113.346 84.152 113.516 84.6427 113.858 85.016C114.199 85.3787 114.706 85.56 115.378 85.56C115.89 85.56 116.306 85.4533 116.626 85.24C116.956 85.0267 117.25 84.7547 117.506 84.424L118.61 85.656C118.268 86.136 117.799 86.5147 117.202 86.792C116.615 87.0587 115.932 87.192 115.154 87.192ZM115.122 79.992C114.578 79.992 114.146 80.1733 113.826 80.536C113.506 80.8987 113.346 81.368 113.346 81.944V82.072H116.77V81.928C116.77 81.352 116.626 80.888 116.338 80.536C116.06 80.1733 115.655 79.992 115.122 79.992ZM120.7 87V78.648H122.748V80.04H122.828C122.998 79.592 123.265 79.2187 123.628 78.92C124.001 78.6107 124.513 78.456 125.164 78.456C126.028 78.456 126.689 78.7387 127.148 79.304C127.606 79.8693 127.836 80.6747 127.836 81.72V87H125.788V81.928C125.788 81.3307 125.681 80.8827 125.468 80.584C125.254 80.2853 124.902 80.136 124.412 80.136C124.198 80.136 123.99 80.168 123.788 80.232C123.596 80.2853 123.42 80.3707 123.26 80.488C123.11 80.5947 122.988 80.7333 122.892 80.904C122.796 81.064 122.748 81.256 122.748 81.48V87H120.7ZM140.031 87C139.583 87 139.226 86.872 138.959 86.616C138.703 86.3493 138.543 85.9973 138.479 85.56H138.383C138.244 86.104 137.962 86.5147 137.535 86.792C137.108 87.0587 136.58 87.192 135.951 87.192C135.098 87.192 134.442 86.968 133.983 86.52C133.524 86.072 133.295 85.4747 133.295 84.728C133.295 83.864 133.604 83.224 134.223 82.808C134.842 82.3813 135.722 82.168 136.863 82.168H138.287V81.56C138.287 81.0907 138.164 80.728 137.919 80.472C137.674 80.216 137.279 80.088 136.735 80.088C136.255 80.088 135.866 80.1947 135.567 80.408C135.279 80.6107 135.034 80.856 134.831 81.144L133.615 80.056C133.924 79.576 134.335 79.192 134.847 78.904C135.359 78.6053 136.036 78.456 136.879 78.456C138.01 78.456 138.868 78.712 139.455 79.224C140.042 79.736 140.335 80.472 140.335 81.432V85.368H141.167V87H140.031ZM136.639 85.704C137.098 85.704 137.487 85.6027 137.807 85.4C138.127 85.1973 138.287 84.8987 138.287 84.504V83.4H136.975C135.908 83.4 135.375 83.7413 135.375 84.424V84.696C135.375 85.0373 135.482 85.2933 135.695 85.464C135.919 85.624 136.234 85.704 136.639 85.704ZM142.825 87V78.648H144.873V80.376H144.953C145.006 80.152 145.086 79.9387 145.193 79.736C145.31 79.5227 145.459 79.336 145.641 79.176C145.822 79.016 146.035 78.888 146.281 78.792C146.537 78.696 146.83 78.648 147.161 78.648H147.609V80.584H146.969C146.275 80.584 145.753 80.6853 145.401 80.888C145.049 81.0907 144.873 81.4213 144.873 81.88V87H142.825ZM152.404 87.192C151.785 87.192 151.23 87.0907 150.74 86.888C150.26 86.6747 149.849 86.3813 149.508 86.008C149.177 85.624 148.921 85.1653 148.74 84.632C148.558 84.088 148.468 83.48 148.468 82.808C148.468 82.1467 148.553 81.5493 148.724 81.016C148.905 80.4827 149.161 80.0293 149.492 79.656C149.822 79.272 150.228 78.9787 150.708 78.776C151.188 78.5627 151.732 78.456 152.34 78.456C152.99 78.456 153.556 78.568 154.036 78.792C154.516 79.016 154.91 79.32 155.22 79.704C155.529 80.088 155.758 80.536 155.908 81.048C156.068 81.5493 156.148 82.088 156.148 82.664V83.336H150.596V83.544C150.596 84.152 150.766 84.6427 151.108 85.016C151.449 85.3787 151.956 85.56 152.628 85.56C153.14 85.56 153.556 85.4533 153.876 85.24C154.206 85.0267 154.5 84.7547 154.756 84.424L155.86 85.656C155.518 86.136 155.049 86.5147 154.452 86.792C153.865 87.0587 153.182 87.192 152.404 87.192ZM152.372 79.992C151.828 79.992 151.396 80.1733 151.076 80.536C150.756 80.8987 150.596 81.368 150.596 81.944V82.072H154.02V81.928C154.02 81.352 153.876 80.888 153.588 80.536C153.31 80.1733 152.905 79.992 152.372 79.992ZM165.107 87.192C164.488 87.192 163.934 87.0907 163.443 86.888C162.963 86.6747 162.552 86.3813 162.211 86.008C161.88 85.624 161.624 85.1653 161.443 84.632C161.262 84.088 161.171 83.48 161.171 82.808C161.171 82.1467 161.256 81.5493 161.427 81.016C161.608 80.4827 161.864 80.0293 162.195 79.656C162.526 79.272 162.931 78.9787 163.411 78.776C163.891 78.5627 164.435 78.456 165.043 78.456C165.694 78.456 166.259 78.568 166.739 78.792C167.219 79.016 167.614 79.32 167.923 79.704C168.232 80.088 168.462 80.536 168.611 81.048C168.771 81.5493 168.851 82.088 168.851 82.664V83.336H163.299V83.544C163.299 84.152 163.47 84.6427 163.811 85.016C164.152 85.3787 164.659 85.56 165.331 85.56C165.843 85.56 166.259 85.4533 166.579 85.24C166.91 85.0267 167.203 84.7547 167.459 84.424L168.563 85.656C168.222 86.136 167.752 86.5147 167.155 86.792C166.568 87.0587 165.886 87.192 165.107 87.192ZM165.075 79.992C164.531 79.992 164.099 80.1733 163.779 80.536C163.459 80.8987 163.299 81.368 163.299 81.944V82.072H166.723V81.928C166.723 81.352 166.579 80.888 166.291 80.536C166.014 80.1733 165.608 79.992 165.075 79.992ZM169.538 87L172.386 82.76L169.602 78.648H171.938L173.666 81.416H173.73L175.442 78.648H177.618L174.786 82.792L177.634 87H175.298L173.538 84.12H173.474L171.714 87H169.538ZM181.73 87C181.026 87 180.487 86.8187 180.114 86.456C179.751 86.0827 179.57 85.5547 179.57 84.872V80.28H178.338V78.648H178.978C179.287 78.648 179.495 78.5787 179.602 78.44C179.719 78.2907 179.778 78.072 179.778 77.784V76.36H181.618V78.648H183.33V80.28H181.618V85.368H183.202V87H181.73ZM185.106 87V78.648H187.154V80.376H187.234C187.287 80.152 187.367 79.9387 187.474 79.736C187.591 79.5227 187.741 79.336 187.922 79.176C188.103 79.016 188.317 78.888 188.562 78.792C188.818 78.696 189.111 78.648 189.442 78.648H189.89V80.584H189.25C188.557 80.584 188.034 80.6853 187.682 80.888C187.33 81.0907 187.154 81.4213 187.154 81.88V87H185.106ZM194.685 87.192C194.066 87.192 193.512 87.0907 193.021 86.888C192.541 86.6747 192.13 86.3813 191.789 86.008C191.458 85.624 191.202 85.1653 191.021 84.632C190.84 84.088 190.749 83.48 190.749 82.808C190.749 82.1467 190.834 81.5493 191.005 81.016C191.186 80.4827 191.442 80.0293 191.773 79.656C192.104 79.272 192.509 78.9787 192.989 78.776C193.469 78.5627 194.013 78.456 194.621 78.456C195.272 78.456 195.837 78.568 196.317 78.792C196.797 79.016 197.192 79.32 197.501 79.704C197.81 80.088 198.04 80.536 198.189 81.048C198.349 81.5493 198.429 82.088 198.429 82.664V83.336H192.877V83.544C192.877 84.152 193.048 84.6427 193.389 85.016C193.73 85.3787 194.237 85.56 194.909 85.56C195.421 85.56 195.837 85.4533 196.157 85.24C196.488 85.0267 196.781 84.7547 197.037 84.424L198.141 85.656C197.8 86.136 197.33 86.5147 196.733 86.792C196.146 87.0587 195.464 87.192 194.685 87.192ZM194.653 79.992C194.109 79.992 193.677 80.1733 193.357 80.536C193.037 80.8987 192.877 81.368 192.877 81.944V82.072H196.301V81.928C196.301 81.352 196.157 80.888 195.869 80.536C195.592 80.1733 195.186 79.992 194.653 79.992ZM200.231 87V78.648H202.279V80.04H202.359C202.519 79.6027 202.775 79.2293 203.127 78.92C203.479 78.6107 203.97 78.456 204.599 78.456C205.175 78.456 205.671 78.5947 206.087 78.872C206.503 79.1493 206.812 79.5707 207.015 80.136H207.047C207.196 79.6667 207.49 79.272 207.927 78.952C208.375 78.6213 208.935 78.456 209.607 78.456C210.428 78.456 211.058 78.7387 211.495 79.304C211.943 79.8693 212.167 80.6747 212.167 81.72V87H210.119V81.928C210.119 80.7333 209.671 80.136 208.775 80.136C208.572 80.136 208.375 80.168 208.183 80.232C208.002 80.2853 207.836 80.3707 207.687 80.488C207.548 80.5947 207.436 80.7333 207.351 80.904C207.266 81.064 207.223 81.256 207.223 81.48V87H205.175V81.928C205.175 80.7333 204.727 80.136 203.831 80.136C203.639 80.136 203.447 80.168 203.255 80.232C203.074 80.2853 202.908 80.3707 202.759 80.488C202.62 80.5947 202.503 80.7333 202.407 80.904C202.322 81.064 202.279 81.256 202.279 81.48V87H200.231ZM217.81 87.192C217.191 87.192 216.637 87.0907 216.146 86.888C215.666 86.6747 215.255 86.3813 214.914 86.008C214.583 85.624 214.327 85.1653 214.146 84.632C213.965 84.088 213.874 83.48 213.874 82.808C213.874 82.1467 213.959 81.5493 214.13 81.016C214.311 80.4827 214.567 80.0293 214.898 79.656C215.229 79.272 215.634 78.9787 216.114 78.776C216.594 78.5627 217.138 78.456 217.746 78.456C218.397 78.456 218.962 78.568 219.442 78.792C219.922 79.016 220.317 79.32 220.626 79.704C220.935 80.088 221.165 80.536 221.314 81.048C221.474 81.5493 221.554 82.088 221.554 82.664V83.336H216.002V83.544C216.002 84.152 216.173 84.6427 216.514 85.016C216.855 85.3787 217.362 85.56 218.034 85.56C218.546 85.56 218.962 85.4533 219.282 85.24C219.613 85.0267 219.906 84.7547 220.162 84.424L221.266 85.656C220.925 86.136 220.455 86.5147 219.858 86.792C219.271 87.0587 218.589 87.192 217.81 87.192ZM217.778 79.992C217.234 79.992 216.802 80.1733 216.482 80.536C216.162 80.8987 216.002 81.368 216.002 81.944V82.072H219.426V81.928C219.426 81.352 219.282 80.888 218.994 80.536C218.717 80.1733 218.311 79.992 217.778 79.992ZM225.404 87C224.7 87 224.183 86.824 223.852 86.472C223.521 86.12 223.356 85.624 223.356 84.984V75.16H225.404V85.368H226.508V87H225.404ZM233.07 78.648H234.99L231.63 88.488C231.523 88.7867 231.4 89.0427 231.262 89.256C231.134 89.48 230.979 89.6613 230.798 89.8C230.616 89.9387 230.398 90.04 230.142 90.104C229.886 90.168 229.587 90.2 229.246 90.2H228.014V88.568H229.518L229.902 87.4L226.91 78.648H228.942L230.398 83.064L230.942 85.176H231.038L231.614 83.064L233.07 78.648ZM240.122 87V78.648H242.17V80.376H242.25C242.303 80.152 242.383 79.9387 242.49 79.736C242.607 79.5227 242.756 79.336 242.938 79.176C243.119 79.016 243.332 78.888 243.578 78.792C243.834 78.696 244.127 78.648 244.458 78.648H244.906V80.584H244.266C243.572 80.584 243.05 80.6853 242.698 80.888C242.346 81.0907 242.17 81.4213 242.17 81.88V87H240.122ZM249.701 87.192C249.082 87.192 248.527 87.0907 248.037 86.888C247.557 86.6747 247.146 86.3813 246.805 86.008C246.474 85.624 246.218 85.1653 246.037 84.632C245.855 84.088 245.765 83.48 245.765 82.808C245.765 82.1467 245.85 81.5493 246.021 81.016C246.202 80.4827 246.458 80.0293 246.789 79.656C247.119 79.272 247.525 78.9787 248.005 78.776C248.485 78.5627 249.029 78.456 249.637 78.456C250.287 78.456 250.853 78.568 251.333 78.792C251.813 79.016 252.207 79.32 252.517 79.704C252.826 80.088 253.055 80.536 253.205 81.048C253.365 81.5493 253.445 82.088 253.445 82.664V83.336H247.893V83.544C247.893 84.152 248.063 84.6427 248.405 85.016C248.746 85.3787 249.253 85.56 249.925 85.56C250.437 85.56 250.853 85.4533 251.173 85.24C251.503 85.0267 251.797 84.7547 252.053 84.424L253.157 85.656C252.815 86.136 252.346 86.5147 251.749 86.792C251.162 87.0587 250.479 87.192 249.701 87.192ZM249.669 79.992C249.125 79.992 248.693 80.1733 248.373 80.536C248.053 80.8987 247.893 81.368 247.893 81.944V82.072H251.317V81.928C251.317 81.352 251.173 80.888 250.885 80.536C250.607 80.1733 250.202 79.992 249.669 79.992ZM257.983 87.192C257.183 87.192 256.511 87.0587 255.967 86.792C255.423 86.5147 254.943 86.136 254.527 85.656L255.775 84.44C256.084 84.792 256.42 85.0693 256.783 85.272C257.156 85.4747 257.583 85.576 258.062 85.576C258.553 85.576 258.905 85.4907 259.119 85.32C259.343 85.1493 259.455 84.9147 259.455 84.616C259.455 84.3707 259.375 84.1787 259.215 84.04C259.065 83.8907 258.804 83.7893 258.431 83.736L257.599 83.624C256.692 83.5067 255.999 83.2507 255.519 82.856C255.049 82.4507 254.815 81.864 254.815 81.096C254.815 80.6907 254.889 80.328 255.039 80.008C255.188 79.6773 255.401 79.4 255.679 79.176C255.956 78.9413 256.287 78.7653 256.671 78.648C257.065 78.52 257.503 78.456 257.983 78.456C258.388 78.456 258.745 78.488 259.055 78.552C259.375 78.6053 259.663 78.6907 259.919 78.808C260.175 78.9147 260.409 79.0533 260.623 79.224C260.836 79.384 261.044 79.5653 261.247 79.768L260.047 80.968C259.801 80.712 259.508 80.4987 259.167 80.328C258.825 80.1573 258.452 80.072 258.047 80.072C257.599 80.072 257.273 80.152 257.071 80.312C256.879 80.472 256.783 80.68 256.783 80.936C256.783 81.2133 256.863 81.4267 257.023 81.576C257.193 81.7147 257.476 81.816 257.871 81.88L258.719 81.992C260.521 82.248 261.423 83.0693 261.423 84.456C261.423 84.8613 261.337 85.2347 261.167 85.576C261.007 85.9067 260.777 86.1947 260.479 86.44C260.18 86.6747 259.817 86.8613 259.391 87C258.975 87.128 258.505 87.192 257.983 87.192ZM264.255 77.432C263.828 77.432 263.519 77.336 263.327 77.144C263.146 76.952 263.055 76.7067 263.055 76.408V76.088C263.055 75.7893 263.146 75.544 263.327 75.352C263.519 75.16 263.828 75.064 264.255 75.064C264.671 75.064 264.975 75.16 265.167 75.352C265.359 75.544 265.455 75.7893 265.455 76.088V76.408C265.455 76.7067 265.359 76.952 265.167 77.144C264.975 77.336 264.671 77.432 264.255 77.432ZM263.231 78.648H265.279V87H263.231V78.648ZM269.701 87C268.997 87 268.479 86.824 268.149 86.472C267.818 86.12 267.653 85.624 267.653 84.984V75.16H269.701V85.368H270.805V87H269.701ZM273.38 77.432C272.953 77.432 272.644 77.336 272.452 77.144C272.271 76.952 272.18 76.7067 272.18 76.408V76.088C272.18 75.7893 272.271 75.544 272.452 75.352C272.644 75.16 272.953 75.064 273.38 75.064C273.796 75.064 274.1 75.16 274.292 75.352C274.484 75.544 274.58 75.7893 274.58 76.088V76.408C274.58 76.7067 274.484 76.952 274.292 77.144C274.1 77.336 273.796 77.432 273.38 77.432ZM272.356 78.648H274.404V87H272.356V78.648ZM280.154 87.192C279.535 87.192 278.98 87.0907 278.49 86.888C278.01 86.6747 277.599 86.3813 277.258 86.008C276.927 85.624 276.671 85.1653 276.49 84.632C276.308 84.088 276.218 83.48 276.218 82.808C276.218 82.1467 276.303 81.5493 276.474 81.016C276.655 80.4827 276.911 80.0293 277.242 79.656C277.572 79.272 277.978 78.9787 278.458 78.776C278.938 78.5627 279.482 78.456 280.09 78.456C280.74 78.456 281.306 78.568 281.786 78.792C282.266 79.016 282.66 79.32 282.97 79.704C283.279 80.088 283.508 80.536 283.658 81.048C283.818 81.5493 283.898 82.088 283.898 82.664V83.336H278.346V83.544C278.346 84.152 278.516 84.6427 278.858 85.016C279.199 85.3787 279.706 85.56 280.378 85.56C280.89 85.56 281.306 85.4533 281.626 85.24C281.956 85.0267 282.25 84.7547 282.506 84.424L283.61 85.656C283.268 86.136 282.799 86.5147 282.202 86.792C281.615 87.0587 280.932 87.192 280.154 87.192ZM280.122 79.992C279.578 79.992 279.146 80.1733 278.826 80.536C278.506 80.8987 278.346 81.368 278.346 81.944V82.072H281.77V81.928C281.77 81.352 281.626 80.888 281.338 80.536C281.06 80.1733 280.655 79.992 280.122 79.992ZM285.7 87V78.648H287.748V80.04H287.828C287.998 79.592 288.265 79.2187 288.628 78.92C289.001 78.6107 289.513 78.456 290.164 78.456C291.028 78.456 291.689 78.7387 292.148 79.304C292.606 79.8693 292.836 80.6747 292.836 81.72V87H290.788V81.928C290.788 81.3307 290.681 80.8827 290.468 80.584C290.254 80.2853 289.902 80.136 289.412 80.136C289.198 80.136 288.99 80.168 288.788 80.232C288.596 80.2853 288.42 80.3707 288.26 80.488C288.11 80.5947 287.988 80.7333 287.892 80.904C287.796 81.064 287.748 81.256 287.748 81.48V87H285.7ZM297.714 87C297.01 87 296.471 86.8187 296.098 86.456C295.735 86.0827 295.554 85.5547 295.554 84.872V80.28H294.322V78.648H294.962C295.271 78.648 295.479 78.5787 295.586 78.44C295.703 78.2907 295.762 78.072 295.762 77.784V76.36H297.602V78.648H299.314V80.28H297.602V85.368H299.186V87H297.714ZM304.616 83.144V81.112H309.192V83.144H304.616ZM315.09 75.16H317.138V80.024H317.202C317.352 79.544 317.634 79.1653 318.05 78.888C318.466 78.6 318.952 78.456 319.506 78.456C320.573 78.456 321.384 78.8347 321.938 79.592C322.504 80.3387 322.786 81.4107 322.786 82.808C322.786 84.216 322.504 85.2987 321.938 86.056C321.384 86.8133 320.573 87.192 319.506 87.192C318.952 87.192 318.466 87.048 318.05 86.76C317.645 86.472 317.362 86.088 317.202 85.608H317.138V87H315.09V75.16ZM318.85 85.496C319.384 85.496 319.816 85.32 320.146 84.968C320.477 84.616 320.642 84.1413 320.642 83.544V82.104C320.642 81.5067 320.477 81.032 320.146 80.68C319.816 80.3173 319.384 80.136 318.85 80.136C318.36 80.136 317.949 80.2587 317.618 80.504C317.298 80.7493 317.138 81.0747 317.138 81.48V84.136C317.138 84.5733 317.298 84.9093 317.618 85.144C317.949 85.3787 318.36 85.496 318.85 85.496ZM329.676 85.608H329.596C329.521 85.8213 329.42 86.024 329.292 86.216C329.175 86.3973 329.02 86.5627 328.828 86.712C328.647 86.8613 328.423 86.9787 328.156 87.064C327.9 87.1493 327.601 87.192 327.26 87.192C326.396 87.192 325.735 86.9093 325.276 86.344C324.817 85.7787 324.588 84.9733 324.588 83.928V78.648H326.636V83.72C326.636 84.296 326.748 84.7387 326.972 85.048C327.196 85.3467 327.553 85.496 328.044 85.496C328.247 85.496 328.444 85.4693 328.636 85.416C328.839 85.3627 329.015 85.2827 329.164 85.176C329.313 85.0587 329.436 84.92 329.532 84.76C329.628 84.5893 329.676 84.392 329.676 84.168V78.648H331.724V87H329.676V85.608ZM336.698 87C335.994 87 335.456 86.8187 335.082 86.456C334.72 86.0827 334.538 85.5547 334.538 84.872V80.28H333.306V78.648H333.946C334.256 78.648 334.464 78.5787 334.57 78.44C334.688 78.2907 334.746 78.072 334.746 77.784V76.36H336.586V78.648H338.298V80.28H336.586V85.368H338.17V87H336.698ZM346.464 87C345.76 87 345.221 86.8187 344.848 86.456C344.485 86.0827 344.304 85.5547 344.304 84.872V80.28H343.072V78.648H343.712C344.021 78.648 344.229 78.5787 344.336 78.44C344.453 78.2907 344.512 78.072 344.512 77.784V76.36H346.352V78.648H348.064V80.28H346.352V85.368H347.936V87H346.464ZM349.84 75.16H351.888V80.04H351.968C352.139 79.592 352.406 79.2187 352.768 78.92C353.142 78.6107 353.654 78.456 354.304 78.456C355.168 78.456 355.83 78.7387 356.288 79.304C356.747 79.8693 356.976 80.6747 356.976 81.72V87H354.928V81.928C354.928 81.3307 354.822 80.8827 354.608 80.584C354.395 80.2853 354.043 80.136 353.552 80.136C353.339 80.136 353.131 80.168 352.928 80.232C352.736 80.2853 352.56 80.3707 352.4 80.488C352.251 80.5947 352.128 80.7333 352.032 80.904C351.936 81.064 351.888 81.256 351.888 81.48V87H349.84V75.16ZM362.623 87.192C362.004 87.192 361.449 87.0907 360.959 86.888C360.479 86.6747 360.068 86.3813 359.727 86.008C359.396 85.624 359.14 85.1653 358.959 84.632C358.777 84.088 358.687 83.48 358.687 82.808C358.687 82.1467 358.772 81.5493 358.943 81.016C359.124 80.4827 359.38 80.0293 359.711 79.656C360.041 79.272 360.447 78.9787 360.927 78.776C361.407 78.5627 361.951 78.456 362.559 78.456C363.209 78.456 363.775 78.568 364.255 78.792C364.735 79.016 365.129 79.32 365.439 79.704C365.748 80.088 365.977 80.536 366.127 81.048C366.287 81.5493 366.367 82.088 366.367 82.664V83.336H360.815V83.544C360.815 84.152 360.985 84.6427 361.327 85.016C361.668 85.3787 362.175 85.56 362.847 85.56C363.359 85.56 363.775 85.4533 364.095 85.24C364.425 85.0267 364.719 84.7547 364.975 84.424L366.079 85.656C365.737 86.136 365.268 86.5147 364.671 86.792C364.084 87.0587 363.401 87.192 362.623 87.192ZM362.591 79.992C362.047 79.992 361.615 80.1733 361.295 80.536C360.975 80.8987 360.815 81.368 360.815 81.944V82.072H364.239V81.928C364.239 81.352 364.095 80.888 363.807 80.536C363.529 80.1733 363.124 79.992 362.591 79.992ZM373.195 78.648H375.115L371.755 88.488C371.648 88.7867 371.525 89.0427 371.387 89.256C371.259 89.48 371.104 89.6613 370.923 89.8C370.741 89.9387 370.523 90.04 370.267 90.104C370.011 90.168 369.712 90.2 369.371 90.2H368.139V88.568H369.643L370.027 87.4L367.035 78.648H369.067L370.523 83.064L371.067 85.176H371.163L371.739 83.064L373.195 78.648ZM67.184 115V106.648H69.232V108.04H69.312C69.4827 107.592 69.7493 107.219 70.112 106.92C70.4853 106.611 70.9973 106.456 71.648 106.456C72.512 106.456 73.1733 106.739 73.632 107.304C74.0907 107.869 74.32 108.675 74.32 109.72V115H72.272V109.928C72.272 109.331 72.1653 108.883 71.952 108.584C71.7387 108.285 71.3867 108.136 70.896 108.136C70.6827 108.136 70.4747 108.168 70.272 108.232C70.08 108.285 69.904 108.371 69.744 108.488C69.5947 108.595 69.472 108.733 69.376 108.904C69.28 109.064 69.232 109.256 69.232 109.48V115H67.184ZM79.9663 115.192C79.3476 115.192 78.7929 115.091 78.3023 114.888C77.8223 114.675 77.4116 114.381 77.0703 114.008C76.7396 113.624 76.4836 113.165 76.3023 112.632C76.1209 112.088 76.0303 111.48 76.0303 110.808C76.0303 110.147 76.1156 109.549 76.2863 109.016C76.4676 108.483 76.7236 108.029 77.0543 107.656C77.3849 107.272 77.7903 106.979 78.2703 106.776C78.7503 106.563 79.2943 106.456 79.9023 106.456C80.5529 106.456 81.1183 106.568 81.5983 106.792C82.0783 107.016 82.4729 107.32 82.7823 107.704C83.0916 108.088 83.3209 108.536 83.4703 109.048C83.6303 109.549 83.7103 110.088 83.7103 110.664V111.336H78.1583V111.544C78.1583 112.152 78.3289 112.643 78.6703 113.016C79.0116 113.379 79.5183 113.56 80.1903 113.56C80.7023 113.56 81.1183 113.453 81.4383 113.24C81.7689 113.027 82.0623 112.755 82.3183 112.424L83.4223 113.656C83.0809 114.136 82.6116 114.515 82.0143 114.792C81.4276 115.059 80.7449 115.192 79.9663 115.192ZM79.9343 107.992C79.3903 107.992 78.9583 108.173 78.6383 108.536C78.3183 108.899 78.1583 109.368 78.1583 109.944V110.072H81.5823V109.928C81.5823 109.352 81.4383 108.888 81.1503 108.536C80.8729 108.173 80.4676 107.992 79.9343 107.992ZM88.8881 115.192C88.2695 115.192 87.7148 115.091 87.2241 114.888C86.7441 114.675 86.3335 114.381 85.9921 114.008C85.6615 113.624 85.4055 113.165 85.2241 112.632C85.0428 112.088 84.9521 111.48 84.9521 110.808C84.9521 110.147 85.0375 109.549 85.2081 109.016C85.3895 108.483 85.6455 108.029 85.9761 107.656C86.3068 107.272 86.7121 106.979 87.1921 106.776C87.6721 106.563 88.2161 106.456 88.8241 106.456C89.4748 106.456 90.0401 106.568 90.5201 106.792C91.0001 107.016 91.3948 107.32 91.7041 107.704C92.0135 108.088 92.2428 108.536 92.3921 109.048C92.5521 109.549 92.6321 110.088 92.6321 110.664V111.336H87.0801V111.544C87.0801 112.152 87.2508 112.643 87.5921 113.016C87.9335 113.379 88.4401 113.56 89.1121 113.56C89.6241 113.56 90.0401 113.453 90.3601 113.24C90.6908 113.027 90.9841 112.755 91.2401 112.424L92.3441 113.656C92.0028 114.136 91.5335 114.515 90.9361 114.792C90.3495 115.059 89.6668 115.192 88.8881 115.192ZM88.8561 107.992C88.3121 107.992 87.8801 108.173 87.5601 108.536C87.2401 108.899 87.0801 109.368 87.0801 109.944V110.072H90.5041V109.928C90.5041 109.352 90.3601 108.888 90.0721 108.536C89.7948 108.173 89.3895 107.992 88.8561 107.992ZM99.618 113.608H99.538C99.3887 114.088 99.106 114.472 98.69 114.76C98.274 115.048 97.7887 115.192 97.234 115.192C96.178 115.192 95.3673 114.813 94.802 114.056C94.2473 113.299 93.97 112.216 93.97 110.808C93.97 109.411 94.2473 108.339 94.802 107.592C95.3673 106.835 96.178 106.456 97.234 106.456C97.7887 106.456 98.274 106.6 98.69 106.888C99.106 107.165 99.3887 107.544 99.538 108.024H99.618V103.16H101.666V115H99.618V113.608ZM97.89 113.496C98.3807 113.496 98.7913 113.379 99.122 113.144C99.4527 112.909 99.618 112.573 99.618 112.136V109.48C99.618 109.075 99.4527 108.749 99.122 108.504C98.7913 108.259 98.3807 108.136 97.89 108.136C97.3567 108.136 96.9247 108.317 96.594 108.68C96.274 109.032 96.114 109.507 96.114 110.104V111.544C96.114 112.141 96.274 112.616 96.594 112.968C96.9247 113.32 97.3567 113.496 97.89 113.496ZM110.417 115C109.713 115 109.174 114.819 108.801 114.456C108.438 114.083 108.257 113.555 108.257 112.872V108.28H107.025V106.648H107.665C107.974 106.648 108.182 106.579 108.289 106.44C108.406 106.291 108.465 106.072 108.465 105.784V104.36H110.305V106.648H112.017V108.28H110.305V113.368H111.889V115H110.417ZM113.793 103.16H115.841V108.04H115.921C116.092 107.592 116.359 107.219 116.721 106.92C117.095 106.611 117.607 106.456 118.257 106.456C119.121 106.456 119.783 106.739 120.241 107.304C120.7 107.869 120.929 108.675 120.929 109.72V115H118.881V109.928C118.881 109.331 118.775 108.883 118.561 108.584C118.348 108.285 117.996 108.136 117.505 108.136C117.292 108.136 117.084 108.168 116.881 108.232C116.689 108.285 116.513 108.371 116.353 108.488C116.204 108.595 116.081 108.733 115.985 108.904C115.889 109.064 115.841 109.256 115.841 109.48V115H113.793V103.16ZM126.576 115.192C125.957 115.192 125.402 115.091 124.912 114.888C124.432 114.675 124.021 114.381 123.68 114.008C123.349 113.624 123.093 113.165 122.912 112.632C122.73 112.088 122.64 111.48 122.64 110.808C122.64 110.147 122.725 109.549 122.896 109.016C123.077 108.483 123.333 108.029 123.664 107.656C123.994 107.272 124.4 106.979 124.88 106.776C125.36 106.563 125.904 106.456 126.512 106.456C127.162 106.456 127.728 106.568 128.208 106.792C128.688 107.016 129.082 107.32 129.392 107.704C129.701 108.088 129.93 108.536 130.08 109.048C130.24 109.549 130.32 110.088 130.32 110.664V111.336H124.768V111.544C124.768 112.152 124.938 112.643 125.28 113.016C125.621 113.379 126.128 113.56 126.8 113.56C127.312 113.56 127.728 113.453 128.048 113.24C128.378 113.027 128.672 112.755 128.928 112.424L130.032 113.656C129.69 114.136 129.221 114.515 128.624 114.792C128.037 115.059 127.354 115.192 126.576 115.192ZM126.544 107.992C126 107.992 125.568 108.173 125.248 108.536C124.928 108.899 124.768 109.368 124.768 109.944V110.072H128.192V109.928C128.192 109.352 128.048 108.888 127.76 108.536C127.482 108.173 127.077 107.992 126.544 107.992ZM139.199 115.192C138.58 115.192 138.031 115.091 137.551 114.888C137.071 114.685 136.665 114.392 136.335 114.008C136.015 113.624 135.769 113.165 135.599 112.632C135.428 112.088 135.343 111.48 135.343 110.808C135.343 110.136 135.428 109.533 135.599 109C135.769 108.467 136.015 108.013 136.335 107.64C136.665 107.256 137.071 106.963 137.551 106.76C138.031 106.557 138.58 106.456 139.199 106.456C140.041 106.456 140.735 106.643 141.279 107.016C141.833 107.389 142.233 107.907 142.479 108.568L140.799 109.32C140.703 108.968 140.521 108.68 140.255 108.456C139.999 108.221 139.647 108.104 139.199 108.104C138.623 108.104 138.191 108.285 137.903 108.648C137.625 109.011 137.487 109.485 137.487 110.072V111.592C137.487 112.179 137.625 112.653 137.903 113.016C138.191 113.368 138.623 113.544 139.199 113.544C139.689 113.544 140.068 113.421 140.335 113.176C140.601 112.92 140.809 112.605 140.959 112.232L142.527 112.984C142.249 113.72 141.828 114.275 141.263 114.648C140.697 115.011 140.009 115.192 139.199 115.192ZM144.106 103.16H146.154V108.04H146.234C146.405 107.592 146.671 107.219 147.034 106.92C147.407 106.611 147.919 106.456 148.57 106.456C149.434 106.456 150.095 106.739 150.554 107.304C151.013 107.869 151.242 108.675 151.242 109.72V115H149.194V109.928C149.194 109.331 149.087 108.883 148.874 108.584C148.661 108.285 148.309 108.136 147.818 108.136C147.605 108.136 147.397 108.168 147.194 108.232C147.002 108.285 146.826 108.371 146.666 108.488C146.517 108.595 146.394 108.733 146.298 108.904C146.202 109.064 146.154 109.256 146.154 109.48V115H144.106V103.16ZM159.656 115C159.208 115 158.851 114.872 158.584 114.616C158.328 114.349 158.168 113.997 158.104 113.56H158.008C157.869 114.104 157.587 114.515 157.16 114.792C156.733 115.059 156.205 115.192 155.576 115.192C154.723 115.192 154.067 114.968 153.608 114.52C153.149 114.072 152.92 113.475 152.92 112.728C152.92 111.864 153.229 111.224 153.848 110.808C154.467 110.381 155.347 110.168 156.488 110.168H157.912V109.56C157.912 109.091 157.789 108.728 157.544 108.472C157.299 108.216 156.904 108.088 156.36 108.088C155.88 108.088 155.491 108.195 155.192 108.408C154.904 108.611 154.659 108.856 154.456 109.144L153.24 108.056C153.549 107.576 153.96 107.192 154.472 106.904C154.984 106.605 155.661 106.456 156.504 106.456C157.635 106.456 158.493 106.712 159.08 107.224C159.667 107.736 159.96 108.472 159.96 109.432V113.368H160.792V115H159.656ZM156.264 113.704C156.723 113.704 157.112 113.603 157.432 113.4C157.752 113.197 157.912 112.899 157.912 112.504V111.4H156.6C155.533 111.4 155 111.741 155 112.424V112.696C155 113.037 155.107 113.293 155.32 113.464C155.544 113.624 155.859 113.704 156.264 113.704ZM162.45 115V106.648H164.498V108.04H164.578C164.748 107.592 165.015 107.219 165.378 106.92C165.751 106.611 166.263 106.456 166.914 106.456C167.778 106.456 168.439 106.739 168.898 107.304C169.356 107.869 169.586 108.675 169.586 109.72V115H167.538V109.928C167.538 109.331 167.431 108.883 167.218 108.584C167.004 108.285 166.652 108.136 166.162 108.136C165.948 108.136 165.74 108.168 165.538 108.232C165.346 108.285 165.17 108.371 165.01 108.488C164.86 108.595 164.738 108.733 164.642 108.904C164.546 109.064 164.498 109.256 164.498 109.48V115H162.45ZM175.152 115.192C174.533 115.192 173.984 115.091 173.504 114.888C173.024 114.685 172.619 114.392 172.288 114.008C171.968 113.624 171.723 113.165 171.552 112.632C171.381 112.088 171.296 111.48 171.296 110.808C171.296 110.136 171.381 109.533 171.552 109C171.723 108.467 171.968 108.013 172.288 107.64C172.619 107.256 173.024 106.963 173.504 106.76C173.984 106.557 174.533 106.456 175.152 106.456C175.995 106.456 176.688 106.643 177.232 107.016C177.787 107.389 178.187 107.907 178.432 108.568L176.752 109.32C176.656 108.968 176.475 108.68 176.208 108.456C175.952 108.221 175.6 108.104 175.152 108.104C174.576 108.104 174.144 108.285 173.856 108.648C173.579 109.011 173.44 109.485 173.44 110.072V111.592C173.44 112.179 173.579 112.653 173.856 113.016C174.144 113.368 174.576 113.544 175.152 113.544C175.643 113.544 176.021 113.421 176.288 113.176C176.555 112.92 176.763 112.605 176.912 112.232L178.48 112.984C178.203 113.72 177.781 114.275 177.216 114.648C176.651 115.011 175.963 115.192 175.152 115.192ZM183.357 115.192C182.738 115.192 182.184 115.091 181.693 114.888C181.213 114.675 180.802 114.381 180.461 114.008C180.13 113.624 179.874 113.165 179.693 112.632C179.512 112.088 179.421 111.48 179.421 110.808C179.421 110.147 179.506 109.549 179.677 109.016C179.858 108.483 180.114 108.029 180.445 107.656C180.776 107.272 181.181 106.979 181.661 106.776C182.141 106.563 182.685 106.456 183.293 106.456C183.944 106.456 184.509 106.568 184.989 106.792C185.469 107.016 185.864 107.32 186.173 107.704C186.482 108.088 186.712 108.536 186.861 109.048C187.021 109.549 187.101 110.088 187.101 110.664V111.336H181.549V111.544C181.549 112.152 181.72 112.643 182.061 113.016C182.402 113.379 182.909 113.56 183.581 113.56C184.093 113.56 184.509 113.453 184.829 113.24C185.16 113.027 185.453 112.755 185.709 112.424L186.813 113.656C186.472 114.136 186.002 114.515 185.405 114.792C184.818 115.059 184.136 115.192 183.357 115.192ZM183.325 107.992C182.781 107.992 182.349 108.173 182.029 108.536C181.709 108.899 181.549 109.368 181.549 109.944V110.072H184.973V109.928C184.973 109.352 184.829 108.888 184.541 108.536C184.264 108.173 183.858 107.992 183.325 107.992ZM195.292 115C194.588 115 194.049 114.819 193.676 114.456C193.313 114.083 193.132 113.555 193.132 112.872V108.28H191.9V106.648H192.54C192.849 106.648 193.057 106.579 193.164 106.44C193.281 106.291 193.34 106.072 193.34 105.784V104.36H195.18V106.648H196.892V108.28H195.18V113.368H196.764V115H195.292ZM201.918 115.192C201.321 115.192 200.782 115.091 200.302 114.888C199.833 114.685 199.427 114.392 199.086 114.008C198.755 113.624 198.499 113.165 198.318 112.632C198.137 112.088 198.046 111.48 198.046 110.808C198.046 110.136 198.137 109.533 198.318 109C198.499 108.467 198.755 108.013 199.086 107.64C199.427 107.256 199.833 106.963 200.302 106.76C200.782 106.557 201.321 106.456 201.918 106.456C202.515 106.456 203.054 106.557 203.534 106.76C204.014 106.963 204.419 107.256 204.75 107.64C205.091 108.013 205.353 108.467 205.534 109C205.715 109.533 205.806 110.136 205.806 110.808C205.806 111.48 205.715 112.088 205.534 112.632C205.353 113.165 205.091 113.624 204.75 114.008C204.419 114.392 204.014 114.685 203.534 114.888C203.054 115.091 202.515 115.192 201.918 115.192ZM201.918 113.544C202.462 113.544 202.889 113.379 203.198 113.048C203.507 112.717 203.662 112.232 203.662 111.592V110.04C203.662 109.411 203.507 108.931 203.198 108.6C202.889 108.269 202.462 108.104 201.918 108.104C201.385 108.104 200.963 108.269 200.654 108.6C200.345 108.931 200.19 109.411 200.19 110.04V111.592C200.19 112.232 200.345 112.717 200.654 113.048C200.963 113.379 201.385 113.544 201.918 113.544ZM211.403 106.648H213.451V108.024H213.515C213.664 107.544 213.947 107.165 214.363 106.888C214.779 106.6 215.264 106.456 215.819 106.456C216.885 106.456 217.696 106.835 218.251 107.592C218.816 108.339 219.099 109.411 219.099 110.808C219.099 112.216 218.816 113.299 218.251 114.056C217.696 114.813 216.885 115.192 215.819 115.192C215.264 115.192 214.779 115.048 214.363 114.76C213.957 114.472 213.675 114.088 213.515 113.608H213.451V118.2H211.403V106.648ZM215.163 113.496C215.696 113.496 216.128 113.32 216.459 112.968C216.789 112.616 216.955 112.141 216.955 111.544V110.104C216.955 109.507 216.789 109.032 216.459 108.68C216.128 108.317 215.696 108.136 215.163 108.136C214.672 108.136 214.261 108.259 213.931 108.504C213.611 108.749 213.451 109.075 213.451 109.48V112.136C213.451 112.573 213.611 112.909 213.931 113.144C214.261 113.379 214.672 113.496 215.163 113.496ZM220.997 115V106.648H223.045V108.376H223.125C223.178 108.152 223.258 107.939 223.365 107.736C223.482 107.523 223.631 107.336 223.812 107.176C223.994 107.016 224.207 106.888 224.453 106.792C224.709 106.696 225.002 106.648 225.333 106.648H225.781V108.584H225.141C224.447 108.584 223.925 108.685 223.573 108.888C223.221 109.091 223.045 109.421 223.045 109.88V115H220.997ZM230.512 115.192C229.914 115.192 229.376 115.091 228.896 114.888C228.426 114.685 228.021 114.392 227.68 114.008C227.349 113.624 227.093 113.165 226.912 112.632C226.73 112.088 226.64 111.48 226.64 110.808C226.64 110.136 226.73 109.533 226.912 109C227.093 108.467 227.349 108.013 227.68 107.64C228.021 107.256 228.426 106.963 228.896 106.76C229.376 106.557 229.914 106.456 230.512 106.456C231.109 106.456 231.648 106.557 232.128 106.76C232.608 106.963 233.013 107.256 233.344 107.64C233.685 108.013 233.946 108.467 234.128 109C234.309 109.533 234.4 110.136 234.4 110.808C234.4 111.48 234.309 112.088 234.128 112.632C233.946 113.165 233.685 113.624 233.344 114.008C233.013 114.392 232.608 114.685 232.128 114.888C231.648 115.091 231.109 115.192 230.512 115.192ZM230.512 113.544C231.056 113.544 231.482 113.379 231.792 113.048C232.101 112.717 232.256 112.232 232.256 111.592V110.04C232.256 109.411 232.101 108.931 231.792 108.6C231.482 108.269 231.056 108.104 230.512 108.104C229.978 108.104 229.557 108.269 229.248 108.6C228.938 108.931 228.784 109.411 228.784 110.04V111.592C228.784 112.232 228.938 112.717 229.248 113.048C229.557 113.379 229.978 113.544 230.512 113.544ZM239.511 115.192C238.893 115.192 238.343 115.091 237.863 114.888C237.383 114.685 236.978 114.392 236.647 114.008C236.327 113.624 236.082 113.165 235.911 112.632C235.741 112.088 235.655 111.48 235.655 110.808C235.655 110.136 235.741 109.533 235.911 109C236.082 108.467 236.327 108.013 236.647 107.64C236.978 107.256 237.383 106.963 237.863 106.76C238.343 106.557 238.893 106.456 239.511 106.456C240.354 106.456 241.047 106.643 241.591 107.016C242.146 107.389 242.546 107.907 242.791 108.568L241.111 109.32C241.015 108.968 240.834 108.68 240.567 108.456C240.311 108.221 239.959 108.104 239.511 108.104C238.935 108.104 238.503 108.285 238.215 108.648C237.938 109.011 237.799 109.485 237.799 110.072V111.592C237.799 112.179 237.938 112.653 238.215 113.016C238.503 113.368 238.935 113.544 239.511 113.544C240.002 113.544 240.381 113.421 240.647 113.176C240.914 112.92 241.122 112.605 241.271 112.232L242.839 112.984C242.562 113.72 242.141 114.275 241.575 114.648C241.01 115.011 240.322 115.192 239.511 115.192ZM247.716 115.192C247.098 115.192 246.543 115.091 246.052 114.888C245.572 114.675 245.162 114.381 244.82 114.008C244.49 113.624 244.234 113.165 244.052 112.632C243.871 112.088 243.78 111.48 243.78 110.808C243.78 110.147 243.866 109.549 244.036 109.016C244.218 108.483 244.474 108.029 244.804 107.656C245.135 107.272 245.54 106.979 246.02 106.776C246.5 106.563 247.044 106.456 247.652 106.456C248.303 106.456 248.868 106.568 249.348 106.792C249.828 107.016 250.223 107.32 250.532 107.704C250.842 108.088 251.071 108.536 251.22 109.048C251.38 109.549 251.46 110.088 251.46 110.664V111.336H245.908V111.544C245.908 112.152 246.079 112.643 246.42 113.016C246.762 113.379 247.268 113.56 247.94 113.56C248.452 113.56 248.868 113.453 249.188 113.24C249.519 113.027 249.812 112.755 250.068 112.424L251.172 113.656C250.831 114.136 250.362 114.515 249.764 114.792C249.178 115.059 248.495 115.192 247.716 115.192ZM247.684 107.992C247.14 107.992 246.708 108.173 246.388 108.536C246.068 108.899 245.908 109.368 245.908 109.944V110.072H249.332V109.928C249.332 109.352 249.188 108.888 248.9 108.536C248.623 108.173 248.218 107.992 247.684 107.992ZM255.998 115.192C255.198 115.192 254.526 115.059 253.982 114.792C253.438 114.515 252.958 114.136 252.542 113.656L253.79 112.44C254.099 112.792 254.435 113.069 254.798 113.272C255.171 113.475 255.598 113.576 256.078 113.576C256.569 113.576 256.921 113.491 257.134 113.32C257.358 113.149 257.47 112.915 257.47 112.616C257.47 112.371 257.39 112.179 257.23 112.04C257.081 111.891 256.819 111.789 256.446 111.736L255.614 111.624C254.707 111.507 254.014 111.251 253.534 110.856C253.065 110.451 252.83 109.864 252.83 109.096C252.83 108.691 252.905 108.328 253.054 108.008C253.203 107.677 253.417 107.4 253.694 107.176C253.971 106.941 254.302 106.765 254.686 106.648C255.081 106.52 255.518 106.456 255.998 106.456C256.403 106.456 256.761 106.488 257.07 106.552C257.39 106.605 257.678 106.691 257.934 106.808C258.19 106.915 258.425 107.053 258.638 107.224C258.851 107.384 259.059 107.565 259.262 107.768L258.062 108.968C257.817 108.712 257.523 108.499 257.182 108.328C256.841 108.157 256.467 108.072 256.062 108.072C255.614 108.072 255.289 108.152 255.086 108.312C254.894 108.472 254.798 108.68 254.798 108.936C254.798 109.213 254.878 109.427 255.038 109.576C255.209 109.715 255.491 109.816 255.886 109.88L256.734 109.992C258.537 110.248 259.438 111.069 259.438 112.456C259.438 112.861 259.353 113.235 259.182 113.576C259.022 113.907 258.793 114.195 258.494 114.44C258.195 114.675 257.833 114.861 257.406 115C256.99 115.128 256.521 115.192 255.998 115.192ZM263.873 115.192C263.073 115.192 262.401 115.059 261.857 114.792C261.313 114.515 260.833 114.136 260.417 113.656L261.665 112.44C261.974 112.792 262.31 113.069 262.673 113.272C263.046 113.475 263.473 113.576 263.953 113.576C264.444 113.576 264.796 113.491 265.009 113.32C265.233 113.149 265.345 112.915 265.345 112.616C265.345 112.371 265.265 112.179 265.105 112.04C264.956 111.891 264.694 111.789 264.321 111.736L263.489 111.624C262.582 111.507 261.889 111.251 261.409 110.856C260.94 110.451 260.705 109.864 260.705 109.096C260.705 108.691 260.78 108.328 260.929 108.008C261.078 107.677 261.292 107.4 261.569 107.176C261.846 106.941 262.177 106.765 262.561 106.648C262.956 106.52 263.393 106.456 263.873 106.456C264.278 106.456 264.636 106.488 264.945 106.552C265.265 106.605 265.553 106.691 265.809 106.808C266.065 106.915 266.3 107.053 266.513 107.224C266.726 107.384 266.934 107.565 267.137 107.768L265.937 108.968C265.692 108.712 265.398 108.499 265.057 108.328C264.716 108.157 264.342 108.072 263.937 108.072C263.489 108.072 263.164 108.152 262.961 108.312C262.769 108.472 262.673 108.68 262.673 108.936C262.673 109.213 262.753 109.427 262.913 109.576C263.084 109.715 263.366 109.816 263.761 109.88L264.609 109.992C266.412 110.248 267.313 111.069 267.313 112.456C267.313 112.861 267.228 113.235 267.057 113.576C266.897 113.907 266.668 114.195 266.369 114.44C266.07 114.675 265.708 114.861 265.281 115C264.865 115.128 264.396 115.192 263.873 115.192ZM275.511 115C274.807 115 274.268 114.819 273.895 114.456C273.532 114.083 273.351 113.555 273.351 112.872V108.28H272.119V106.648H272.759C273.068 106.648 273.276 106.579 273.383 106.44C273.5 106.291 273.559 106.072 273.559 105.784V104.36H275.399V106.648H277.111V108.28H275.399V113.368H276.983V115H275.511ZM278.887 103.16H280.935V108.04H281.015C281.186 107.592 281.452 107.219 281.815 106.92C282.188 106.611 282.7 106.456 283.351 106.456C284.215 106.456 284.876 106.739 285.335 107.304C285.794 107.869 286.023 108.675 286.023 109.72V115H283.975V109.928C283.975 109.331 283.868 108.883 283.655 108.584C283.442 108.285 283.09 108.136 282.599 108.136C282.386 108.136 282.178 108.168 281.975 108.232C281.783 108.285 281.607 108.371 281.447 108.488C281.298 108.595 281.175 108.733 281.079 108.904C280.983 109.064 280.935 109.256 280.935 109.48V115H278.887V103.16ZM291.669 115.192C291.051 115.192 290.496 115.091 290.005 114.888C289.525 114.675 289.115 114.381 288.773 114.008C288.443 113.624 288.187 113.165 288.005 112.632C287.824 112.088 287.733 111.48 287.733 110.808C287.733 110.147 287.819 109.549 287.989 109.016C288.171 108.483 288.427 108.029 288.757 107.656C289.088 107.272 289.493 106.979 289.973 106.776C290.453 106.563 290.997 106.456 291.605 106.456C292.256 106.456 292.821 106.568 293.301 106.792C293.781 107.016 294.176 107.32 294.485 107.704C294.795 108.088 295.024 108.536 295.173 109.048C295.333 109.549 295.413 110.088 295.413 110.664V111.336H289.861V111.544C289.861 112.152 290.032 112.643 290.373 113.016C290.715 113.379 291.221 113.56 291.893 113.56C292.405 113.56 292.821 113.453 293.141 113.24C293.472 113.027 293.765 112.755 294.021 112.424L295.125 113.656C294.784 114.136 294.315 114.515 293.717 114.792C293.131 115.059 292.448 115.192 291.669 115.192ZM291.637 107.992C291.093 107.992 290.661 108.173 290.341 108.536C290.021 108.899 289.861 109.368 289.861 109.944V110.072H293.285V109.928C293.285 109.352 293.141 108.888 292.853 108.536C292.576 108.173 292.171 107.992 291.637 107.992ZM298.239 105.432C297.813 105.432 297.503 105.336 297.311 105.144C297.13 104.952 297.039 104.707 297.039 104.408V104.088C297.039 103.789 297.13 103.544 297.311 103.352C297.503 103.16 297.813 103.064 298.239 103.064C298.655 103.064 298.959 103.16 299.151 103.352C299.343 103.544 299.439 103.789 299.439 104.088V104.408C299.439 104.707 299.343 104.952 299.151 105.144C298.959 105.336 298.655 105.432 298.239 105.432ZM297.215 106.648H299.263V115H297.215V106.648ZM301.637 115V106.648H303.685V108.376H303.765C303.818 108.152 303.898 107.939 304.005 107.736C304.122 107.523 304.272 107.336 304.453 107.176C304.634 107.016 304.848 106.888 305.093 106.792C305.349 106.696 305.642 106.648 305.973 106.648H306.421V108.584H305.781C305.088 108.584 304.565 108.685 304.213 108.888C303.861 109.091 303.685 109.421 303.685 109.88V115H301.637ZM315.076 115.192C314.457 115.192 313.902 115.091 313.412 114.888C312.932 114.675 312.521 114.381 312.18 114.008C311.849 113.624 311.593 113.165 311.412 112.632C311.23 112.088 311.14 111.48 311.14 110.808C311.14 110.147 311.225 109.549 311.396 109.016C311.577 108.483 311.833 108.029 312.164 107.656C312.494 107.272 312.9 106.979 313.38 106.776C313.86 106.563 314.404 106.456 315.012 106.456C315.662 106.456 316.228 106.568 316.708 106.792C317.188 107.016 317.582 107.32 317.892 107.704C318.201 108.088 318.43 108.536 318.58 109.048C318.74 109.549 318.82 110.088 318.82 110.664V111.336H313.268V111.544C313.268 112.152 313.438 112.643 313.78 113.016C314.121 113.379 314.628 113.56 315.3 113.56C315.812 113.56 316.228 113.453 316.548 113.24C316.878 113.027 317.172 112.755 317.428 112.424L318.532 113.656C318.19 114.136 317.721 114.515 317.124 114.792C316.537 115.059 315.854 115.192 315.076 115.192ZM315.044 107.992C314.5 107.992 314.068 108.173 313.748 108.536C313.428 108.899 313.268 109.368 313.268 109.944V110.072H316.692V109.928C316.692 109.352 316.548 108.888 316.26 108.536C315.982 108.173 315.577 107.992 315.044 107.992ZM319.507 115L322.355 110.76L319.571 106.648H321.907L323.635 109.416H323.699L325.411 106.648H327.587L324.755 110.792L327.603 115H325.267L323.507 112.12H323.443L321.683 115H319.507ZM329.09 106.648H331.138V108.024H331.202C331.352 107.544 331.634 107.165 332.05 106.888C332.466 106.6 332.952 106.456 333.506 106.456C334.573 106.456 335.384 106.835 335.938 107.592C336.504 108.339 336.786 109.411 336.786 110.808C336.786 112.216 336.504 113.299 335.938 114.056C335.384 114.813 334.573 115.192 333.506 115.192C332.952 115.192 332.466 115.048 332.05 114.76C331.645 114.472 331.362 114.088 331.202 113.608H331.138V118.2H329.09V106.648ZM332.85 113.496C333.384 113.496 333.816 113.32 334.146 112.968C334.477 112.616 334.642 112.141 334.642 111.544V110.104C334.642 109.507 334.477 109.032 334.146 108.68C333.816 108.317 333.384 108.136 332.85 108.136C332.36 108.136 331.949 108.259 331.618 108.504C331.298 108.749 331.138 109.075 331.138 109.48V112.136C331.138 112.573 331.298 112.909 331.618 113.144C331.949 113.379 332.36 113.496 332.85 113.496ZM342.06 115.192C341.441 115.192 340.887 115.091 340.396 114.888C339.916 114.675 339.505 114.381 339.164 114.008C338.833 113.624 338.577 113.165 338.396 112.632C338.215 112.088 338.124 111.48 338.124 110.808C338.124 110.147 338.209 109.549 338.38 109.016C338.561 108.483 338.817 108.029 339.148 107.656C339.479 107.272 339.884 106.979 340.364 106.776C340.844 106.563 341.388 106.456 341.996 106.456C342.647 106.456 343.212 106.568 343.692 106.792C344.172 107.016 344.567 107.32 344.876 107.704C345.185 108.088 345.415 108.536 345.564 109.048C345.724 109.549 345.804 110.088 345.804 110.664V111.336H340.252V111.544C340.252 112.152 340.423 112.643 340.764 113.016C341.105 113.379 341.612 113.56 342.284 113.56C342.796 113.56 343.212 113.453 343.532 113.24C343.863 113.027 344.156 112.755 344.412 112.424L345.516 113.656C345.175 114.136 344.705 114.515 344.108 114.792C343.521 115.059 342.839 115.192 342.06 115.192ZM342.028 107.992C341.484 107.992 341.052 108.173 340.732 108.536C340.412 108.899 340.252 109.368 340.252 109.944V110.072H343.676V109.928C343.676 109.352 343.532 108.888 343.244 108.536C342.967 108.173 342.561 107.992 342.028 107.992ZM347.606 115V106.648H349.654V108.376H349.734C349.787 108.152 349.867 107.939 349.974 107.736C350.091 107.523 350.241 107.336 350.422 107.176C350.603 107.016 350.817 106.888 351.062 106.792C351.318 106.696 351.611 106.648 351.942 106.648H352.39V108.584H351.75C351.057 108.584 350.534 108.685 350.182 108.888C349.83 109.091 349.654 109.421 349.654 109.88V115H347.606ZM354.911 105.432C354.484 105.432 354.175 105.336 353.983 105.144C353.802 104.952 353.711 104.707 353.711 104.408V104.088C353.711 103.789 353.802 103.544 353.983 103.352C354.175 103.16 354.484 103.064 354.911 103.064C355.327 103.064 355.631 103.16 355.823 103.352C356.015 103.544 356.111 103.789 356.111 104.088V104.408C356.111 104.707 356.015 104.952 355.823 105.144C355.631 105.336 355.327 105.432 354.911 105.432ZM353.887 106.648H355.935V115H353.887V106.648ZM361.685 115.192C361.066 115.192 360.512 115.091 360.021 114.888C359.541 114.675 359.13 114.381 358.789 114.008C358.458 113.624 358.202 113.165 358.021 112.632C357.84 112.088 357.749 111.48 357.749 110.808C357.749 110.147 357.834 109.549 358.005 109.016C358.186 108.483 358.442 108.029 358.773 107.656C359.104 107.272 359.509 106.979 359.989 106.776C360.469 106.563 361.013 106.456 361.621 106.456C362.272 106.456 362.837 106.568 363.317 106.792C363.797 107.016 364.192 107.32 364.501 107.704C364.81 108.088 365.04 108.536 365.189 109.048C365.349 109.549 365.429 110.088 365.429 110.664V111.336H359.877V111.544C359.877 112.152 360.048 112.643 360.389 113.016C360.73 113.379 361.237 113.56 361.909 113.56C362.421 113.56 362.837 113.453 363.157 113.24C363.488 113.027 363.781 112.755 364.037 112.424L365.141 113.656C364.8 114.136 364.33 114.515 363.733 114.792C363.146 115.059 362.464 115.192 361.685 115.192ZM361.653 107.992C361.109 107.992 360.677 108.173 360.357 108.536C360.037 108.899 359.877 109.368 359.877 109.944V110.072H363.301V109.928C363.301 109.352 363.157 108.888 362.869 108.536C362.592 108.173 362.186 107.992 361.653 107.992ZM367.231 115V106.648H369.279V108.04H369.359C369.53 107.592 369.796 107.219 370.159 106.92C370.532 106.611 371.044 106.456 371.695 106.456C372.559 106.456 373.22 106.739 373.679 107.304C374.138 107.869 374.367 108.675 374.367 109.72V115H372.319V109.928C372.319 109.331 372.212 108.883 371.999 108.584C371.786 108.285 371.434 108.136 370.943 108.136C370.73 108.136 370.522 108.168 370.319 108.232C370.127 108.285 369.951 108.371 369.791 108.488C369.642 108.595 369.519 108.733 369.423 108.904C369.327 109.064 369.279 109.256 369.279 109.48V115H367.231ZM379.933 115.192C379.314 115.192 378.765 115.091 378.285 114.888C377.805 114.685 377.4 114.392 377.069 114.008C376.749 113.624 376.504 113.165 376.333 112.632C376.162 112.088 376.077 111.48 376.077 110.808C376.077 110.136 376.162 109.533 376.333 109C376.504 108.467 376.749 108.013 377.069 107.64C377.4 107.256 377.805 106.963 378.285 106.76C378.765 106.557 379.314 106.456 379.933 106.456C380.776 106.456 381.469 106.643 382.013 107.016C382.568 107.389 382.968 107.907 383.213 108.568L381.533 109.32C381.437 108.968 381.256 108.68 380.989 108.456C380.733 108.221 380.381 108.104 379.933 108.104C379.357 108.104 378.925 108.285 378.637 108.648C378.36 109.011 378.221 109.485 378.221 110.072V111.592C378.221 112.179 378.36 112.653 378.637 113.016C378.925 113.368 379.357 113.544 379.933 113.544C380.424 113.544 380.802 113.421 381.069 113.176C381.336 112.92 381.544 112.605 381.693 112.232L383.261 112.984C382.984 113.72 382.562 114.275 381.997 114.648C381.432 115.011 380.744 115.192 379.933 115.192ZM388.138 115.192C387.519 115.192 386.965 115.091 386.474 114.888C385.994 114.675 385.583 114.381 385.242 114.008C384.911 113.624 384.655 113.165 384.474 112.632C384.293 112.088 384.202 111.48 384.202 110.808C384.202 110.147 384.287 109.549 384.458 109.016C384.639 108.483 384.895 108.029 385.226 107.656C385.557 107.272 385.962 106.979 386.442 106.776C386.922 106.563 387.466 106.456 388.074 106.456C388.725 106.456 389.29 106.568 389.77 106.792C390.25 107.016 390.645 107.32 390.954 107.704C391.263 108.088 391.493 108.536 391.642 109.048C391.802 109.549 391.882 110.088 391.882 110.664V111.336H386.33V111.544C386.33 112.152 386.501 112.643 386.842 113.016C387.183 113.379 387.69 113.56 388.362 113.56C388.874 113.56 389.29 113.453 389.61 113.24C389.941 113.027 390.234 112.755 390.49 112.424L391.594 113.656C391.253 114.136 390.783 114.515 390.186 114.792C389.599 115.059 388.917 115.192 388.138 115.192ZM388.106 107.992C387.562 107.992 387.13 108.173 386.81 108.536C386.49 108.899 386.33 109.368 386.33 109.944V110.072H389.754V109.928C389.754 109.352 389.61 108.888 389.322 108.536C389.045 108.173 388.639 107.992 388.106 107.992ZM396.42 115.192C395.62 115.192 394.948 115.059 394.404 114.792C393.86 114.515 393.38 114.136 392.964 113.656L394.212 112.44C394.521 112.792 394.857 113.069 395.22 113.272C395.593 113.475 396.02 113.576 396.5 113.576C396.991 113.576 397.343 113.491 397.556 113.32C397.78 113.149 397.892 112.915 397.892 112.616C397.892 112.371 397.812 112.179 397.652 112.04C397.503 111.891 397.241 111.789 396.868 111.736L396.036 111.624C395.129 111.507 394.436 111.251 393.956 110.856C393.487 110.451 393.252 109.864 393.252 109.096C393.252 108.691 393.327 108.328 393.476 108.008C393.625 107.677 393.839 107.4 394.116 107.176C394.393 106.941 394.724 106.765 395.108 106.648C395.503 106.52 395.94 106.456 396.42 106.456C396.825 106.456 397.183 106.488 397.492 106.552C397.812 106.605 398.1 106.691 398.356 106.808C398.612 106.915 398.847 107.053 399.06 107.224C399.273 107.384 399.481 107.565 399.684 107.768L398.484 108.968C398.239 108.712 397.945 108.499 397.604 108.328C397.263 108.157 396.889 108.072 396.484 108.072C396.036 108.072 395.711 108.152 395.508 108.312C395.316 108.472 395.22 108.68 395.22 108.936C395.22 109.213 395.3 109.427 395.46 109.576C395.631 109.715 395.913 109.816 396.308 109.88L397.156 109.992C398.959 110.248 399.86 111.069 399.86 112.456C399.86 112.861 399.775 113.235 399.604 113.576C399.444 113.907 399.215 114.195 398.916 114.44C398.617 114.675 398.255 114.861 397.828 115C397.412 115.128 396.943 115.192 396.42 115.192Z" fill="#143D61"/>
<path d="M43.3593 0.000701904C48.6551 0.000701904 52.9551 4.46046 52.9551 10.0001C52.9551 15.2111 49.1076 19.4362 44.2193 19.9057C45.2151 21.7834 47.0255 23.8022 50.1036 25.727C50.9637 26.2435 51.5067 27.1823 51.5067 28.1683C51.5067 30.1868 49.515 31.5953 47.7046 30.7504C42.4537 28.3088 33.7183 22.3471 33.7183 10.0004C33.7183 4.46063 38.0183 0.000953901 43.3594 0.000953901L43.3593 0.000701904Z" fill="#188AEC"/>
<path d="M19.5513 0.000586499C24.8925 0.000586499 29.1924 4.46035 29.1924 10C29.1924 15.211 25.3449 19.4361 20.4566 19.9056C21.4524 21.7832 23.2628 23.8021 26.3409 25.7269C27.201 26.2434 27.744 27.1822 27.744 28.1682C27.744 30.1867 25.7523 31.5952 23.9419 30.7503C18.7368 28.309 10.0009 22.394 10.0009 10.0003C9.95544 4.46018 14.2554 0 19.5514 0L19.5513 0.000586499Z" fill="#188AEC"/>
</svg>
