<svg width="438" height="159" viewBox="0 0 438 159" fill="none" xmlns="http://www.w3.org/2000/svg">
<path d="M0 75C0 40.1161 0 22.6741 10.837 11.837C21.6741 1 39.1161 1 74 1H364C398.884 1 416.326 1 427.163 11.837C438 22.6741 438 40.1161 438 75V85C438 119.884 438 137.326 427.163 148.163C416.326 159 398.884 159 364 159H74C39.1161 159 21.6741 159 10.837 148.163C0 137.326 0 119.884 0 85V75Z" fill="#F6FAFE"/>
<path d="M75.744 53.984H75.68L74.816 55.76L72.528 59.984L70.24 55.76L69.376 53.984H69.312V62H67.312V50.832H69.696L72.56 56.288H72.624L75.456 50.832H77.744V62H75.744V53.984ZM86.3905 62C85.9425 62 85.5852 61.872 85.3185 61.616C85.0625 61.3493 84.9025 60.9973 84.8385 60.56H84.7425C84.6038 61.104 84.3212 61.5147 83.8945 61.792C83.4678 62.0587 82.9398 62.192 82.3105 62.192C81.4572 62.192 80.8012 61.968 80.3425 61.52C79.8838 61.072 79.6545 60.4747 79.6545 59.728C79.6545 58.864 79.9638 58.224 80.5825 57.808C81.2012 57.3813 82.0812 57.168 83.2225 57.168H84.6465V56.56C84.6465 56.0907 84.5238 55.728 84.2785 55.472C84.0332 55.216 83.6385 55.088 83.0945 55.088C82.6145 55.088 82.2252 55.1947 81.9265 55.408C81.6385 55.6107 81.3932 55.856 81.1905 56.144L79.9745 55.056C80.2838 54.576 80.6945 54.192 81.2065 53.904C81.7185 53.6053 82.3958 53.456 83.2385 53.456C84.3692 53.456 85.2278 53.712 85.8145 54.224C86.4012 54.736 86.6945 55.472 86.6945 56.432V60.368H87.5265V62H86.3905ZM82.9985 60.704C83.4572 60.704 83.8465 60.6027 84.1665 60.4C84.4865 60.1973 84.6465 59.8987 84.6465 59.504V58.4H83.3345C82.2678 58.4 81.7345 58.7413 81.7345 59.424V59.696C81.7345 60.0373 81.8412 60.2933 82.0545 60.464C82.2785 60.624 82.5932 60.704 82.9985 60.704ZM89.184 50.16H91.232V57.296H91.312L92.416 55.792L94.288 53.648H96.608L93.728 56.88L96.912 62H94.48L92.336 58.256L91.232 59.456V62H89.184V50.16ZM99.1924 52.432C98.7657 52.432 98.4564 52.336 98.2644 52.144C98.083 51.952 97.9924 51.7067 97.9924 51.408V51.088C97.9924 50.7893 98.083 50.544 98.2644 50.352C98.4564 50.16 98.7657 50.064 99.1924 50.064C99.6084 50.064 99.9124 50.16 100.104 50.352C100.296 50.544 100.392 50.7893 100.392 51.088V51.408C100.392 51.7067 100.296 51.952 100.104 52.144C99.9124 52.336 99.6084 52.432 99.1924 52.432ZM98.1684 53.648H100.216V62H98.1684V53.648ZM102.59 62V53.648H104.638V55.04H104.718C104.889 54.592 105.156 54.2187 105.518 53.92C105.892 53.6107 106.404 53.456 107.054 53.456C107.918 53.456 108.58 53.7387 109.038 54.304C109.497 54.8693 109.726 55.6747 109.726 56.72V62H107.678V56.928C107.678 56.3307 107.572 55.8827 107.358 55.584C107.145 55.2853 106.793 55.136 106.302 55.136C106.089 55.136 105.881 55.168 105.678 55.232C105.486 55.2853 105.31 55.3707 105.15 55.488C105.001 55.5947 104.878 55.7333 104.782 55.904C104.686 56.064 104.638 56.256 104.638 56.48V62H102.59ZM119.533 62.704C119.533 63.1413 119.453 63.5253 119.293 63.856C119.143 64.1973 118.893 64.48 118.541 64.704C118.189 64.928 117.735 65.0987 117.181 65.216C116.626 65.3333 115.949 65.392 115.149 65.392C114.445 65.392 113.847 65.344 113.357 65.248C112.866 65.1627 112.461 65.0347 112.141 64.864C111.831 64.704 111.607 64.5013 111.469 64.256C111.33 64.0107 111.261 63.7333 111.261 63.424C111.261 62.9547 111.389 62.5867 111.645 62.32C111.911 62.064 112.279 61.8987 112.749 61.824V61.648C112.407 61.5627 112.141 61.3973 111.949 61.152C111.767 60.896 111.677 60.5973 111.677 60.256C111.677 60.0427 111.719 59.856 111.805 59.696C111.89 59.5253 112.002 59.3813 112.141 59.264C112.29 59.1467 112.455 59.0507 112.637 58.976C112.818 58.8907 113.01 58.8267 113.213 58.784V58.72C112.701 58.4853 112.317 58.16 112.061 57.744C111.815 57.328 111.693 56.8427 111.693 56.288C111.693 55.4347 111.986 54.752 112.573 54.24C113.159 53.7173 114.018 53.456 115.149 53.456C115.405 53.456 115.655 53.472 115.901 53.504C116.157 53.536 116.391 53.5893 116.605 53.664V53.392C116.605 52.5813 116.999 52.176 117.789 52.176H119.085V53.744H117.309V53.968C117.746 54.2133 118.071 54.5333 118.285 54.928C118.498 55.3227 118.605 55.776 118.605 56.288C118.605 57.1307 118.311 57.808 117.725 58.32C117.149 58.832 116.29 59.088 115.149 59.088C114.658 59.088 114.231 59.04 113.869 58.944C113.709 59.0187 113.57 59.12 113.453 59.248C113.335 59.3653 113.277 59.5147 113.277 59.696C113.277 60.112 113.639 60.32 114.365 60.32H116.605C117.629 60.32 118.37 60.5333 118.829 60.96C119.298 61.376 119.533 61.9573 119.533 62.704ZM117.613 62.944C117.613 62.6773 117.506 62.4693 117.293 62.32C117.079 62.1707 116.711 62.096 116.189 62.096H113.341C113.053 62.3093 112.909 62.5973 112.909 62.96C112.909 63.28 113.042 63.5307 113.309 63.712C113.575 63.8933 114.029 63.984 114.669 63.984H115.693C116.365 63.984 116.85 63.8987 117.149 63.728C117.458 63.5573 117.613 63.296 117.613 62.944ZM115.149 57.696C116.151 57.696 116.653 57.2693 116.653 56.416V56.144C116.653 55.2907 116.151 54.864 115.149 54.864C114.146 54.864 113.645 55.2907 113.645 56.144V56.416C113.645 57.2693 114.146 57.696 115.149 57.696ZM127.233 62.192C126.433 62.192 125.761 62.0587 125.217 61.792C124.673 61.5147 124.193 61.136 123.777 60.656L125.025 59.44C125.334 59.792 125.67 60.0693 126.033 60.272C126.406 60.4747 126.833 60.576 127.312 60.576C127.803 60.576 128.155 60.4907 128.369 60.32C128.593 60.1493 128.705 59.9147 128.705 59.616C128.705 59.3707 128.625 59.1787 128.465 59.04C128.315 58.8907 128.054 58.7893 127.681 58.736L126.849 58.624C125.942 58.5067 125.249 58.2507 124.769 57.856C124.299 57.4507 124.065 56.864 124.065 56.096C124.065 55.6907 124.139 55.328 124.289 55.008C124.438 54.6773 124.651 54.4 124.929 54.176C125.206 53.9413 125.537 53.7653 125.921 53.648C126.315 53.52 126.753 53.456 127.233 53.456C127.638 53.456 127.995 53.488 128.305 53.552C128.625 53.6053 128.913 53.6907 129.169 53.808C129.425 53.9147 129.659 54.0533 129.873 54.224C130.086 54.384 130.294 54.5653 130.497 54.768L129.297 55.968C129.051 55.712 128.758 55.4987 128.417 55.328C128.075 55.1573 127.702 55.072 127.297 55.072C126.849 55.072 126.523 55.152 126.321 55.312C126.129 55.472 126.033 55.68 126.033 55.936C126.033 56.2133 126.113 56.4267 126.273 56.576C126.443 56.7147 126.726 56.816 127.121 56.88L127.969 56.992C129.771 57.248 130.673 58.0693 130.673 59.456C130.673 59.8613 130.587 60.2347 130.417 60.576C130.257 60.9067 130.027 61.1947 129.729 61.44C129.43 61.6747 129.067 61.8613 128.641 62C128.225 62.128 127.755 62.192 127.233 62.192ZM137.473 60.608H137.393C137.318 60.8213 137.217 61.024 137.089 61.216C136.972 61.3973 136.817 61.5627 136.625 61.712C136.444 61.8613 136.22 61.9787 135.953 62.064C135.697 62.1493 135.398 62.192 135.057 62.192C134.193 62.192 133.532 61.9093 133.073 61.344C132.614 60.7787 132.385 59.9733 132.385 58.928V53.648H134.433V58.72C134.433 59.296 134.545 59.7387 134.769 60.048C134.993 60.3467 135.35 60.496 135.841 60.496C136.044 60.496 136.241 60.4693 136.433 60.416C136.636 60.3627 136.812 60.2827 136.961 60.176C137.11 60.0587 137.233 59.92 137.329 59.76C137.425 59.5893 137.473 59.392 137.473 59.168V53.648H139.521V62H137.473V60.608ZM141.887 62V53.648H143.935V55.376H144.015C144.068 55.152 144.148 54.9387 144.255 54.736C144.372 54.5227 144.522 54.336 144.703 54.176C144.884 54.016 145.098 53.888 145.343 53.792C145.599 53.696 145.892 53.648 146.223 53.648H146.671V55.584H146.031C145.338 55.584 144.815 55.6853 144.463 55.888C144.111 56.0907 143.935 56.4213 143.935 56.88V62H141.887ZM151.466 62.192C150.848 62.192 150.293 62.0907 149.802 61.888C149.322 61.6747 148.912 61.3813 148.57 61.008C148.24 60.624 147.984 60.1653 147.802 59.632C147.621 59.088 147.53 58.48 147.53 57.808C147.53 57.1467 147.616 56.5493 147.786 56.016C147.968 55.4827 148.224 55.0293 148.554 54.656C148.885 54.272 149.29 53.9787 149.77 53.776C150.25 53.5627 150.794 53.456 151.402 53.456C152.053 53.456 152.618 53.568 153.098 53.792C153.578 54.016 153.973 54.32 154.282 54.704C154.592 55.088 154.821 55.536 154.97 56.048C155.13 56.5493 155.21 57.088 155.21 57.664V58.336H149.658V58.544C149.658 59.152 149.829 59.6427 150.17 60.016C150.512 60.3787 151.018 60.56 151.69 60.56C152.202 60.56 152.618 60.4533 152.938 60.24C153.269 60.0267 153.562 59.7547 153.818 59.424L154.922 60.656C154.581 61.136 154.112 61.5147 153.514 61.792C152.928 62.0587 152.245 62.192 151.466 62.192ZM151.434 54.992C150.89 54.992 150.458 55.1733 150.138 55.536C149.818 55.8987 149.658 56.368 149.658 56.944V57.072H153.082V56.928C153.082 56.352 152.938 55.888 152.65 55.536C152.373 55.1733 151.968 54.992 151.434 54.992ZM163.401 62C162.697 62 162.159 61.8187 161.785 61.456C161.423 61.0827 161.241 60.5547 161.241 59.872V55.28H160.009V53.648H160.649C160.959 53.648 161.167 53.5787 161.273 53.44C161.391 53.2907 161.449 53.072 161.449 52.784V51.36H163.289V53.648H165.001V55.28H163.289V60.368H164.873V62H163.401ZM166.778 50.16H168.826V55.04H168.906C169.076 54.592 169.343 54.2187 169.706 53.92C170.079 53.6107 170.591 53.456 171.242 53.456C172.106 53.456 172.767 53.7387 173.226 54.304C173.684 54.8693 173.914 55.6747 173.914 56.72V62H171.866V56.928C171.866 56.3307 171.759 55.8827 171.546 55.584C171.332 55.2853 170.98 55.136 170.49 55.136C170.276 55.136 170.068 55.168 169.866 55.232C169.674 55.2853 169.498 55.3707 169.338 55.488C169.188 55.5947 169.066 55.7333 168.97 55.904C168.874 56.064 168.826 56.256 168.826 56.48V62H166.778V50.16ZM182.328 62C181.88 62 181.523 61.872 181.256 61.616C181 61.3493 180.84 60.9973 180.776 60.56H180.68C180.541 61.104 180.259 61.5147 179.832 61.792C179.405 62.0587 178.877 62.192 178.248 62.192C177.395 62.192 176.739 61.968 176.28 61.52C175.821 61.072 175.592 60.4747 175.592 59.728C175.592 58.864 175.901 58.224 176.52 57.808C177.139 57.3813 178.019 57.168 179.16 57.168H180.584V56.56C180.584 56.0907 180.461 55.728 180.216 55.472C179.971 55.216 179.576 55.088 179.032 55.088C178.552 55.088 178.163 55.1947 177.864 55.408C177.576 55.6107 177.331 55.856 177.128 56.144L175.912 55.056C176.221 54.576 176.632 54.192 177.144 53.904C177.656 53.6053 178.333 53.456 179.176 53.456C180.307 53.456 181.165 53.712 181.752 54.224C182.339 54.736 182.632 55.472 182.632 56.432V60.368H183.464V62H182.328ZM178.936 60.704C179.395 60.704 179.784 60.6027 180.104 60.4C180.424 60.1973 180.584 59.8987 180.584 59.504V58.4H179.272C178.205 58.4 177.672 58.7413 177.672 59.424V59.696C177.672 60.0373 177.779 60.2933 177.992 60.464C178.216 60.624 178.531 60.704 178.936 60.704ZM187.667 62C186.963 62 186.424 61.8187 186.051 61.456C185.688 61.0827 185.507 60.5547 185.507 59.872V55.28H184.275V53.648H184.915C185.224 53.648 185.432 53.5787 185.539 53.44C185.656 53.2907 185.715 53.072 185.715 52.784V51.36H187.555V53.648H189.267V55.28H187.555V60.368H189.139V62H187.667ZM194.825 62V53.648H196.873V55.04H196.953C197.113 54.6027 197.369 54.2293 197.721 53.92C198.073 53.6107 198.563 53.456 199.193 53.456C199.769 53.456 200.265 53.5947 200.681 53.872C201.097 54.1493 201.406 54.5707 201.609 55.136H201.641C201.79 54.6667 202.083 54.272 202.521 53.952C202.969 53.6213 203.529 53.456 204.201 53.456C205.022 53.456 205.651 53.7387 206.089 54.304C206.537 54.8693 206.761 55.6747 206.761 56.72V62H204.713V56.928C204.713 55.7333 204.265 55.136 203.369 55.136C203.166 55.136 202.969 55.168 202.777 55.232C202.595 55.2853 202.43 55.3707 202.281 55.488C202.142 55.5947 202.03 55.7333 201.945 55.904C201.859 56.064 201.817 56.256 201.817 56.48V62H199.769V56.928C199.769 55.7333 199.321 55.136 198.425 55.136C198.233 55.136 198.041 55.168 197.849 55.232C197.667 55.2853 197.502 55.3707 197.353 55.488C197.214 55.5947 197.097 55.7333 197.001 55.904C196.915 56.064 196.873 56.256 196.873 56.48V62H194.825ZM214.023 53.648H215.943L212.583 63.488C212.476 63.7867 212.353 64.0427 212.215 64.256C212.087 64.48 211.932 64.6613 211.751 64.8C211.569 64.9387 211.351 65.04 211.095 65.104C210.839 65.168 210.54 65.2 210.199 65.2H208.967V63.568H210.471L210.855 62.4L207.863 53.648H209.895L211.351 58.064L211.895 60.176H211.991L212.567 58.064L214.023 53.648ZM224.371 62.192C223.752 62.192 223.203 62.0907 222.723 61.888C222.243 61.6853 221.837 61.392 221.507 61.008C221.187 60.624 220.941 60.1653 220.771 59.632C220.6 59.088 220.515 58.48 220.515 57.808C220.515 57.136 220.6 56.5333 220.771 56C220.941 55.4667 221.187 55.0133 221.507 54.64C221.837 54.256 222.243 53.9627 222.723 53.76C223.203 53.5573 223.752 53.456 224.371 53.456C225.213 53.456 225.907 53.6427 226.451 54.016C227.005 54.3893 227.405 54.9067 227.651 55.568L225.971 56.32C225.875 55.968 225.693 55.68 225.427 55.456C225.171 55.2213 224.819 55.104 224.371 55.104C223.795 55.104 223.363 55.2853 223.075 55.648C222.797 56.0107 222.659 56.4853 222.659 57.072V58.592C222.659 59.1787 222.797 59.6533 223.075 60.016C223.363 60.368 223.795 60.544 224.371 60.544C224.861 60.544 225.24 60.4213 225.507 60.176C225.773 59.92 225.981 59.6053 226.131 59.232L227.699 59.984C227.421 60.72 227 61.2747 226.435 61.648C225.869 62.0107 225.181 62.192 224.371 62.192ZM234.27 60.608H234.19C234.115 60.8213 234.014 61.024 233.886 61.216C233.768 61.3973 233.614 61.5627 233.422 61.712C233.24 61.8613 233.016 61.9787 232.75 62.064C232.494 62.1493 232.195 62.192 231.854 62.192C230.99 62.192 230.328 61.9093 229.87 61.344C229.411 60.7787 229.182 59.9733 229.182 58.928V53.648H231.23V58.72C231.23 59.296 231.342 59.7387 231.566 60.048C231.79 60.3467 232.147 60.496 232.638 60.496C232.84 60.496 233.038 60.4693 233.23 60.416C233.432 60.3627 233.608 60.2827 233.758 60.176C233.907 60.0587 234.03 59.92 234.126 59.76C234.222 59.5893 234.27 59.392 234.27 59.168V53.648H236.318V62H234.27V60.608ZM241.42 62.192C240.62 62.192 239.948 62.0587 239.404 61.792C238.86 61.5147 238.38 61.136 237.964 60.656L239.212 59.44C239.521 59.792 239.857 60.0693 240.22 60.272C240.593 60.4747 241.02 60.576 241.5 60.576C241.991 60.576 242.343 60.4907 242.556 60.32C242.78 60.1493 242.892 59.9147 242.892 59.616C242.892 59.3707 242.812 59.1787 242.652 59.04C242.503 58.8907 242.241 58.7893 241.868 58.736L241.036 58.624C240.129 58.5067 239.436 58.2507 238.956 57.856C238.487 57.4507 238.252 56.864 238.252 56.096C238.252 55.6907 238.327 55.328 238.476 55.008C238.625 54.6773 238.839 54.4 239.116 54.176C239.393 53.9413 239.724 53.7653 240.108 53.648C240.503 53.52 240.94 53.456 241.42 53.456C241.825 53.456 242.183 53.488 242.492 53.552C242.812 53.6053 243.1 53.6907 243.356 53.808C243.612 53.9147 243.847 54.0533 244.06 54.224C244.273 54.384 244.481 54.5653 244.684 54.768L243.484 55.968C243.239 55.712 242.945 55.4987 242.604 55.328C242.263 55.1573 241.889 55.072 241.484 55.072C241.036 55.072 240.711 55.152 240.508 55.312C240.316 55.472 240.22 55.68 240.22 55.936C240.22 56.2133 240.3 56.4267 240.46 56.576C240.631 56.7147 240.913 56.816 241.308 56.88L242.156 56.992C243.959 57.248 244.86 58.0693 244.86 59.456C244.86 59.8613 244.775 60.2347 244.604 60.576C244.444 60.9067 244.215 61.1947 243.916 61.44C243.617 61.6747 243.255 61.8613 242.828 62C242.412 62.128 241.943 62.192 241.42 62.192ZM249.151 62C248.447 62 247.909 61.8187 247.535 61.456C247.173 61.0827 246.991 60.5547 246.991 59.872V55.28H245.759V53.648H246.399C246.709 53.648 246.917 53.5787 247.023 53.44C247.141 53.2907 247.199 53.072 247.199 52.784V51.36H249.039V53.648H250.751V55.28H249.039V60.368H250.623V62H249.151ZM255.777 62.192C255.18 62.192 254.641 62.0907 254.161 61.888C253.692 61.6853 253.287 61.392 252.945 61.008C252.615 60.624 252.359 60.1653 252.177 59.632C251.996 59.088 251.905 58.48 251.905 57.808C251.905 57.136 251.996 56.5333 252.177 56C252.359 55.4667 252.615 55.0133 252.945 54.64C253.287 54.256 253.692 53.9627 254.161 53.76C254.641 53.5573 255.18 53.456 255.777 53.456C256.375 53.456 256.913 53.5573 257.393 53.76C257.873 53.9627 258.279 54.256 258.609 54.64C258.951 55.0133 259.212 55.4667 259.393 56C259.575 56.5333 259.665 57.136 259.665 57.808C259.665 58.48 259.575 59.088 259.393 59.632C259.212 60.1653 258.951 60.624 258.609 61.008C258.279 61.392 257.873 61.6853 257.393 61.888C256.913 62.0907 256.375 62.192 255.777 62.192ZM255.777 60.544C256.321 60.544 256.748 60.3787 257.057 60.048C257.367 59.7173 257.521 59.232 257.521 58.592V57.04C257.521 56.4107 257.367 55.9307 257.057 55.6C256.748 55.2693 256.321 55.104 255.777 55.104C255.244 55.104 254.823 55.2693 254.513 55.6C254.204 55.9307 254.049 56.4107 254.049 57.04V58.592C254.049 59.232 254.204 59.7173 254.513 60.048C254.823 60.3787 255.244 60.544 255.777 60.544ZM261.481 62V53.648H263.529V55.04H263.609C263.769 54.6027 264.025 54.2293 264.377 53.92C264.729 53.6107 265.22 53.456 265.849 53.456C266.425 53.456 266.921 53.5947 267.337 53.872C267.753 54.1493 268.062 54.5707 268.265 55.136H268.297C268.446 54.6667 268.74 54.272 269.177 53.952C269.625 53.6213 270.185 53.456 270.857 53.456C271.678 53.456 272.308 53.7387 272.745 54.304C273.193 54.8693 273.417 55.6747 273.417 56.72V62H271.369V56.928C271.369 55.7333 270.921 55.136 270.025 55.136C269.822 55.136 269.625 55.168 269.433 55.232C269.252 55.2853 269.086 55.3707 268.937 55.488C268.798 55.5947 268.686 55.7333 268.601 55.904C268.516 56.064 268.473 56.256 268.473 56.48V62H266.425V56.928C266.425 55.7333 265.977 55.136 265.081 55.136C264.889 55.136 264.697 55.168 264.505 55.232C264.324 55.2853 264.158 55.3707 264.009 55.488C263.87 55.5947 263.753 55.7333 263.657 55.904C263.572 56.064 263.529 56.256 263.529 56.48V62H261.481ZM279.06 62.192C278.441 62.192 277.887 62.0907 277.396 61.888C276.916 61.6747 276.505 61.3813 276.164 61.008C275.833 60.624 275.577 60.1653 275.396 59.632C275.215 59.088 275.124 58.48 275.124 57.808C275.124 57.1467 275.209 56.5493 275.38 56.016C275.561 55.4827 275.817 55.0293 276.148 54.656C276.479 54.272 276.884 53.9787 277.364 53.776C277.844 53.5627 278.388 53.456 278.996 53.456C279.647 53.456 280.212 53.568 280.692 53.792C281.172 54.016 281.567 54.32 281.876 54.704C282.185 55.088 282.415 55.536 282.564 56.048C282.724 56.5493 282.804 57.088 282.804 57.664V58.336H277.252V58.544C277.252 59.152 277.423 59.6427 277.764 60.016C278.105 60.3787 278.612 60.56 279.284 60.56C279.796 60.56 280.212 60.4533 280.532 60.24C280.863 60.0267 281.156 59.7547 281.412 59.424L282.516 60.656C282.175 61.136 281.705 61.5147 281.108 61.792C280.521 62.0587 279.839 62.192 279.06 62.192ZM279.028 54.992C278.484 54.992 278.052 55.1733 277.732 55.536C277.412 55.8987 277.252 56.368 277.252 56.944V57.072H280.676V56.928C280.676 56.352 280.532 55.888 280.244 55.536C279.967 55.1733 279.561 54.992 279.028 54.992ZM284.606 62V53.648H286.654V55.376H286.734C286.787 55.152 286.867 54.9387 286.974 54.736C287.091 54.5227 287.241 54.336 287.422 54.176C287.603 54.016 287.817 53.888 288.062 53.792C288.318 53.696 288.611 53.648 288.942 53.648H289.39V55.584H288.75C288.057 55.584 287.534 55.6853 287.182 55.888C286.83 56.0907 286.654 56.4213 286.654 56.88V62H284.606ZM293.623 62.192C292.823 62.192 292.151 62.0587 291.607 61.792C291.063 61.5147 290.583 61.136 290.167 60.656L291.415 59.44C291.724 59.792 292.06 60.0693 292.423 60.272C292.796 60.4747 293.223 60.576 293.703 60.576C294.194 60.576 294.546 60.4907 294.759 60.32C294.983 60.1493 295.095 59.9147 295.095 59.616C295.095 59.3707 295.015 59.1787 294.855 59.04C294.706 58.8907 294.444 58.7893 294.071 58.736L293.239 58.624C292.332 58.5067 291.639 58.2507 291.159 57.856C290.69 57.4507 290.455 56.864 290.455 56.096C290.455 55.6907 290.53 55.328 290.679 55.008C290.828 54.6773 291.042 54.4 291.319 54.176C291.596 53.9413 291.927 53.7653 292.311 53.648C292.706 53.52 293.143 53.456 293.623 53.456C294.028 53.456 294.386 53.488 294.695 53.552C295.015 53.6053 295.303 53.6907 295.559 53.808C295.815 53.9147 296.05 54.0533 296.263 54.224C296.476 54.384 296.684 54.5653 296.887 54.768L295.687 55.968C295.442 55.712 295.148 55.4987 294.807 55.328C294.466 55.1573 294.092 55.072 293.687 55.072C293.239 55.072 292.914 55.152 292.711 55.312C292.519 55.472 292.423 55.68 292.423 55.936C292.423 56.2133 292.503 56.4267 292.663 56.576C292.834 56.7147 293.116 56.816 293.511 56.88L294.359 56.992C296.162 57.248 297.063 58.0693 297.063 59.456C297.063 59.8613 296.978 60.2347 296.807 60.576C296.647 60.9067 296.418 61.1947 296.119 61.44C295.82 61.6747 295.458 61.8613 295.031 62C294.615 62.128 294.146 62.192 293.623 62.192ZM308.797 62C308.349 62 307.991 61.872 307.725 61.616C307.469 61.3493 307.309 60.9973 307.245 60.56H307.149C307.01 61.104 306.727 61.5147 306.301 61.792C305.874 62.0587 305.346 62.192 304.717 62.192C303.863 62.192 303.207 61.968 302.749 61.52C302.29 61.072 302.061 60.4747 302.061 59.728C302.061 58.864 302.37 58.224 302.989 57.808C303.607 57.3813 304.487 57.168 305.629 57.168H307.053V56.56C307.053 56.0907 306.93 55.728 306.685 55.472C306.439 55.216 306.045 55.088 305.501 55.088C305.021 55.088 304.631 55.1947 304.333 55.408C304.045 55.6107 303.799 55.856 303.597 56.144L302.381 55.056C302.69 54.576 303.101 54.192 303.613 53.904C304.125 53.6053 304.802 53.456 305.645 53.456C306.775 53.456 307.634 53.712 308.221 54.224C308.807 54.736 309.101 55.472 309.101 56.432V60.368H309.933V62H308.797ZM305.405 60.704C305.863 60.704 306.253 60.6027 306.573 60.4C306.893 60.1973 307.053 59.8987 307.053 59.504V58.4H305.741C304.674 58.4 304.141 58.7413 304.141 59.424V59.696C304.141 60.0373 304.247 60.2933 304.461 60.464C304.685 60.624 304.999 60.704 305.405 60.704ZM311.59 62V53.648H313.638V55.376H313.718C313.772 55.152 313.852 54.9387 313.958 54.736C314.076 54.5227 314.225 54.336 314.406 54.176C314.588 54.016 314.801 53.888 315.046 53.792C315.302 53.696 315.596 53.648 315.926 53.648H316.374V55.584H315.734C315.041 55.584 314.518 55.6853 314.166 55.888C313.814 56.0907 313.638 56.4213 313.638 56.88V62H311.59ZM321.169 62.192C320.551 62.192 319.996 62.0907 319.505 61.888C319.025 61.6747 318.615 61.3813 318.273 61.008C317.943 60.624 317.687 60.1653 317.505 59.632C317.324 59.088 317.233 58.48 317.233 57.808C317.233 57.1467 317.319 56.5493 317.489 56.016C317.671 55.4827 317.927 55.0293 318.257 54.656C318.588 54.272 318.993 53.9787 319.473 53.776C319.953 53.5627 320.497 53.456 321.105 53.456C321.756 53.456 322.321 53.568 322.801 53.792C323.281 54.016 323.676 54.32 323.985 54.704C324.295 55.088 324.524 55.536 324.673 56.048C324.833 56.5493 324.913 57.088 324.913 57.664V58.336H319.361V58.544C319.361 59.152 319.532 59.6427 319.873 60.016C320.215 60.3787 320.721 60.56 321.393 60.56C321.905 60.56 322.321 60.4533 322.641 60.24C322.972 60.0267 323.265 59.7547 323.521 59.424L324.625 60.656C324.284 61.136 323.815 61.5147 323.217 61.792C322.631 62.0587 321.948 62.192 321.169 62.192ZM321.137 54.992C320.593 54.992 320.161 55.1733 319.841 55.536C319.521 55.8987 319.361 56.368 319.361 56.944V57.072H322.785V56.928C322.785 56.352 322.641 55.888 322.353 55.536C322.076 55.1733 321.671 54.992 321.137 54.992ZM336.641 62C336.193 62 335.835 61.872 335.569 61.616C335.313 61.3493 335.153 60.9973 335.089 60.56H334.993C334.854 61.104 334.571 61.5147 334.145 61.792C333.718 62.0587 333.19 62.192 332.561 62.192C331.707 62.192 331.051 61.968 330.593 61.52C330.134 61.072 329.905 60.4747 329.905 59.728C329.905 58.864 330.214 58.224 330.833 57.808C331.451 57.3813 332.331 57.168 333.473 57.168H334.897V56.56C334.897 56.0907 334.774 55.728 334.529 55.472C334.283 55.216 333.889 55.088 333.345 55.088C332.865 55.088 332.475 55.1947 332.177 55.408C331.889 55.6107 331.643 55.856 331.441 56.144L330.225 55.056C330.534 54.576 330.945 54.192 331.457 53.904C331.969 53.6053 332.646 53.456 333.489 53.456C334.619 53.456 335.478 53.712 336.065 54.224C336.651 54.736 336.945 55.472 336.945 56.432V60.368H337.777V62H336.641ZM333.249 60.704C333.707 60.704 334.097 60.6027 334.417 60.4C334.737 60.1973 334.897 59.8987 334.897 59.504V58.4H333.585C332.518 58.4 331.985 58.7413 331.985 59.424V59.696C331.985 60.0373 332.091 60.2933 332.305 60.464C332.529 60.624 332.843 60.704 333.249 60.704ZM339.434 50.16H341.482V55.024H341.546C341.695 54.544 341.978 54.1653 342.394 53.888C342.81 53.6 343.295 53.456 343.85 53.456C344.917 53.456 345.727 53.8347 346.282 54.592C346.847 55.3387 347.13 56.4107 347.13 57.808C347.13 59.216 346.847 60.2987 346.282 61.056C345.727 61.8133 344.917 62.192 343.85 62.192C343.295 62.192 342.81 62.048 342.394 61.76C341.989 61.472 341.706 61.088 341.546 60.608H341.482V62H339.434V50.16ZM343.194 60.496C343.727 60.496 344.159 60.32 344.49 59.968C344.821 59.616 344.986 59.1413 344.986 58.544V57.104C344.986 56.5067 344.821 56.032 344.49 55.68C344.159 55.3173 343.727 55.136 343.194 55.136C342.703 55.136 342.293 55.2587 341.962 55.504C341.642 55.7493 341.482 56.0747 341.482 56.48V59.136C341.482 59.5733 341.642 59.9093 341.962 60.144C342.293 60.3787 342.703 60.496 343.194 60.496ZM351.076 62C350.372 62 349.854 61.824 349.524 61.472C349.193 61.12 349.028 60.624 349.028 59.984V50.16H351.076V60.368H352.18V62H351.076ZM357.107 62.192C356.488 62.192 355.934 62.0907 355.443 61.888C354.963 61.6747 354.552 61.3813 354.211 61.008C353.88 60.624 353.624 60.1653 353.443 59.632C353.262 59.088 353.171 58.48 353.171 57.808C353.171 57.1467 353.256 56.5493 353.427 56.016C353.608 55.4827 353.864 55.0293 354.195 54.656C354.526 54.272 354.931 53.9787 355.411 53.776C355.891 53.5627 356.435 53.456 357.043 53.456C357.694 53.456 358.259 53.568 358.739 53.792C359.219 54.016 359.614 54.32 359.923 54.704C360.232 55.088 360.462 55.536 360.611 56.048C360.771 56.5493 360.851 57.088 360.851 57.664V58.336H355.299V58.544C355.299 59.152 355.47 59.6427 355.811 60.016C356.152 60.3787 356.659 60.56 357.331 60.56C357.843 60.56 358.259 60.4533 358.579 60.24C358.91 60.0267 359.203 59.7547 359.459 59.424L360.563 60.656C360.222 61.136 359.752 61.5147 359.155 61.792C358.568 62.0587 357.886 62.192 357.107 62.192ZM357.075 54.992C356.531 54.992 356.099 55.1733 355.779 55.536C355.459 55.8987 355.299 56.368 355.299 56.944V57.072H358.723V56.928C358.723 56.352 358.579 55.888 358.291 55.536C358.014 55.1733 357.608 54.992 357.075 54.992ZM369.042 62C368.338 62 367.799 61.8187 367.426 61.456C367.063 61.0827 366.882 60.5547 366.882 59.872V55.28H365.65V53.648H366.29C366.599 53.648 366.807 53.5787 366.914 53.44C367.031 53.2907 367.09 53.072 367.09 52.784V51.36H368.93V53.648H370.642V55.28H368.93V60.368H370.514V62H369.042ZM375.668 62.192C375.071 62.192 374.532 62.0907 374.052 61.888C373.583 61.6853 373.177 61.392 372.836 61.008C372.505 60.624 372.249 60.1653 372.068 59.632C371.887 59.088 371.796 58.48 371.796 57.808C371.796 57.136 371.887 56.5333 372.068 56C372.249 55.4667 372.505 55.0133 372.836 54.64C373.177 54.256 373.583 53.9627 374.052 53.76C374.532 53.5573 375.071 53.456 375.668 53.456C376.265 53.456 376.804 53.5573 377.284 53.76C377.764 53.9627 378.169 54.256 378.5 54.64C378.841 55.0133 379.103 55.4667 379.284 56C379.465 56.5333 379.556 57.136 379.556 57.808C379.556 58.48 379.465 59.088 379.284 59.632C379.103 60.1653 378.841 60.624 378.5 61.008C378.169 61.392 377.764 61.6853 377.284 61.888C376.804 62.0907 376.265 62.192 375.668 62.192ZM375.668 60.544C376.212 60.544 376.639 60.3787 376.948 60.048C377.257 59.7173 377.412 59.232 377.412 58.592V57.04C377.412 56.4107 377.257 55.9307 376.948 55.6C376.639 55.2693 376.212 55.104 375.668 55.104C375.135 55.104 374.713 55.2693 374.404 55.6C374.095 55.9307 373.94 56.4107 373.94 57.04V58.592C373.94 59.232 374.095 59.7173 374.404 60.048C374.713 60.3787 375.135 60.544 375.668 60.544ZM390.337 60.608H390.257C390.107 61.088 389.825 61.472 389.409 61.76C388.993 62.048 388.507 62.192 387.953 62.192C386.897 62.192 386.086 61.8133 385.521 61.056C384.966 60.2987 384.689 59.216 384.689 57.808C384.689 56.4107 384.966 55.3387 385.521 54.592C386.086 53.8347 386.897 53.456 387.953 53.456C388.507 53.456 388.993 53.6 389.409 53.888C389.825 54.1653 390.107 54.544 390.257 55.024H390.337V50.16H392.385V62H390.337V60.608ZM388.609 60.496C389.099 60.496 389.51 60.3787 389.841 60.144C390.171 59.9093 390.337 59.5733 390.337 59.136V56.48C390.337 56.0747 390.171 55.7493 389.841 55.504C389.51 55.2587 389.099 55.136 388.609 55.136C388.075 55.136 387.643 55.3173 387.313 55.68C386.993 56.032 386.833 56.5067 386.833 57.104V58.544C386.833 59.1413 386.993 59.616 387.313 59.968C387.643 60.32 388.075 60.496 388.609 60.496ZM398.059 62.192C397.461 62.192 396.923 62.0907 396.443 61.888C395.973 61.6853 395.568 61.392 395.227 61.008C394.896 60.624 394.64 60.1653 394.459 59.632C394.277 59.088 394.187 58.48 394.187 57.808C394.187 57.136 394.277 56.5333 394.459 56C394.64 55.4667 394.896 55.0133 395.227 54.64C395.568 54.256 395.973 53.9627 396.443 53.76C396.923 53.5573 397.461 53.456 398.059 53.456C398.656 53.456 399.195 53.5573 399.675 53.76C400.155 53.9627 400.56 54.256 400.891 54.64C401.232 55.0133 401.493 55.4667 401.675 56C401.856 56.5333 401.947 57.136 401.947 57.808C401.947 58.48 401.856 59.088 401.675 59.632C401.493 60.1653 401.232 60.624 400.891 61.008C400.56 61.392 400.155 61.6853 399.675 61.888C399.195 62.0907 398.656 62.192 398.059 62.192ZM398.059 60.544C398.603 60.544 399.029 60.3787 399.339 60.048C399.648 59.7173 399.803 59.232 399.803 58.592V57.04C399.803 56.4107 399.648 55.9307 399.339 55.6C399.029 55.2693 398.603 55.104 398.059 55.104C397.525 55.104 397.104 55.2693 396.795 55.6C396.485 55.9307 396.331 56.4107 396.331 57.04V58.592C396.331 59.232 396.485 59.7173 396.795 60.048C397.104 60.3787 397.525 60.544 398.059 60.544ZM69.792 90C69.088 90 68.5493 89.8187 68.176 89.456C67.8133 89.0827 67.632 88.5547 67.632 87.872V83.28H66.4V81.648H67.04C67.3493 81.648 67.5573 81.5787 67.664 81.44C67.7813 81.2907 67.84 81.072 67.84 80.784V79.36H69.68V81.648H71.392V83.28H69.68V88.368H71.264V90H69.792ZM73.1684 90V81.648H75.2164V83.376H75.2964C75.3497 83.152 75.4297 82.9387 75.5364 82.736C75.6537 82.5227 75.803 82.336 75.9844 82.176C76.1657 82.016 76.379 81.888 76.6244 81.792C76.8804 81.696 77.1737 81.648 77.5044 81.648H77.9524V83.584H77.3124C76.619 83.584 76.0964 83.6853 75.7444 83.888C75.3924 84.0907 75.2164 84.4213 75.2164 84.88V90H73.1684ZM85.4218 90C84.9738 90 84.6164 89.872 84.3498 89.616C84.0938 89.3493 83.9338 88.9973 83.8698 88.56H83.7738C83.6351 89.104 83.3524 89.5147 82.9258 89.792C82.4991 90.0587 81.9711 90.192 81.3418 90.192C80.4884 90.192 79.8324 89.968 79.3738 89.52C78.9151 89.072 78.6858 88.4747 78.6858 87.728C78.6858 86.864 78.9951 86.224 79.6138 85.808C80.2324 85.3813 81.1124 85.168 82.2538 85.168H83.6778V84.56C83.6778 84.0907 83.5551 83.728 83.3098 83.472C83.0644 83.216 82.6698 83.088 82.1258 83.088C81.6458 83.088 81.2564 83.1947 80.9578 83.408C80.6698 83.6107 80.4244 83.856 80.2218 84.144L79.0058 83.056C79.3151 82.576 79.7258 82.192 80.2378 81.904C80.7498 81.6053 81.4271 81.456 82.2698 81.456C83.4004 81.456 84.2591 81.712 84.8458 82.224C85.4324 82.736 85.7258 83.472 85.7258 84.432V88.368H86.5578V90H85.4218ZM82.0298 88.704C82.4884 88.704 82.8778 88.6027 83.1978 88.4C83.5178 88.1973 83.6778 87.8987 83.6778 87.504V86.4H82.3658C81.2991 86.4 80.7658 86.7413 80.7658 87.424V87.696C80.7658 88.0373 80.8724 88.2933 81.0858 88.464C81.3098 88.624 81.6244 88.704 82.0298 88.704ZM88.2153 90V81.648H90.2633V83.04H90.3433C90.5139 82.592 90.7806 82.2187 91.1432 81.92C91.5166 81.6107 92.0286 81.456 92.6793 81.456C93.5433 81.456 94.2046 81.7387 94.6633 82.304C95.1219 82.8693 95.3513 83.6747 95.3513 84.72V90H93.3033V84.928C93.3033 84.3307 93.1966 83.8827 92.9833 83.584C92.7699 83.2853 92.4179 83.136 91.9273 83.136C91.7139 83.136 91.5059 83.168 91.3033 83.232C91.1113 83.2853 90.9353 83.3707 90.7753 83.488C90.6259 83.5947 90.5033 83.7333 90.4073 83.904C90.3113 84.064 90.2633 84.256 90.2633 84.48V90H88.2153ZM100.358 90.192C99.5575 90.192 98.8855 90.0587 98.3415 89.792C97.7975 89.5147 97.3175 89.136 96.9015 88.656L98.1495 87.44C98.4588 87.792 98.7948 88.0693 99.1575 88.272C99.5308 88.4747 99.9575 88.576 100.438 88.576C100.928 88.576 101.28 88.4907 101.494 88.32C101.718 88.1493 101.83 87.9147 101.83 87.616C101.83 87.3707 101.75 87.1787 101.59 87.04C101.44 86.8907 101.179 86.7893 100.806 86.736L99.9735 86.624C99.0668 86.5067 98.3735 86.2507 97.8935 85.856C97.4242 85.4507 97.1895 84.864 97.1895 84.096C97.1895 83.6907 97.2642 83.328 97.4135 83.008C97.5628 82.6773 97.7762 82.4 98.0535 82.176C98.3308 81.9413 98.6615 81.7653 99.0455 81.648C99.4402 81.52 99.8775 81.456 100.358 81.456C100.763 81.456 101.12 81.488 101.43 81.552C101.75 81.6053 102.038 81.6907 102.294 81.808C102.55 81.9147 102.784 82.0533 102.998 82.224C103.211 82.384 103.419 82.5653 103.622 82.768L102.422 83.968C102.176 83.712 101.883 83.4987 101.542 83.328C101.2 83.1573 100.827 83.072 100.422 83.072C99.9735 83.072 99.6482 83.152 99.4455 83.312C99.2535 83.472 99.1575 83.68 99.1575 83.936C99.1575 84.2133 99.2375 84.4267 99.3975 84.576C99.5682 84.7147 99.8508 84.816 100.246 84.88L101.094 84.992C102.896 85.248 103.798 86.0693 103.798 87.456C103.798 87.8613 103.712 88.2347 103.542 88.576C103.382 88.9067 103.152 89.1947 102.854 89.44C102.555 89.6747 102.192 89.8613 101.766 90C101.35 90.128 100.88 90.192 100.358 90.192ZM111.75 90C111.302 90 110.945 89.872 110.678 89.616C110.422 89.3493 110.262 88.9973 110.198 88.56H110.102C109.963 89.104 109.681 89.5147 109.254 89.792C108.827 90.0587 108.299 90.192 107.67 90.192C106.817 90.192 106.161 89.968 105.702 89.52C105.243 89.072 105.014 88.4747 105.014 87.728C105.014 86.864 105.323 86.224 105.942 85.808C106.561 85.3813 107.441 85.168 108.582 85.168H110.006V84.56C110.006 84.0907 109.883 83.728 109.638 83.472C109.393 83.216 108.998 83.088 108.454 83.088C107.974 83.088 107.585 83.1947 107.286 83.408C106.998 83.6107 106.753 83.856 106.55 84.144L105.334 83.056C105.643 82.576 106.054 82.192 106.566 81.904C107.078 81.6053 107.755 81.456 108.598 81.456C109.729 81.456 110.587 81.712 111.174 82.224C111.761 82.736 112.054 83.472 112.054 84.432V88.368H112.886V90H111.75ZM108.358 88.704C108.817 88.704 109.206 88.6027 109.526 88.4C109.846 88.1973 110.006 87.8987 110.006 87.504V86.4H108.694C107.627 86.4 107.094 86.7413 107.094 87.424V87.696C107.094 88.0373 107.201 88.2933 107.414 88.464C107.638 88.624 107.953 88.704 108.358 88.704ZM117.839 90.192C117.221 90.192 116.671 90.0907 116.191 89.888C115.711 89.6853 115.306 89.392 114.975 89.008C114.655 88.624 114.41 88.1653 114.239 87.632C114.069 87.088 113.983 86.48 113.983 85.808C113.983 85.136 114.069 84.5333 114.239 84C114.41 83.4667 114.655 83.0133 114.975 82.64C115.306 82.256 115.711 81.9627 116.191 81.76C116.671 81.5573 117.221 81.456 117.839 81.456C118.682 81.456 119.375 81.6427 119.919 82.016C120.474 82.3893 120.874 82.9067 121.119 83.568L119.439 84.32C119.343 83.968 119.162 83.68 118.895 83.456C118.639 83.2213 118.287 83.104 117.839 83.104C117.263 83.104 116.831 83.2853 116.543 83.648C116.266 84.0107 116.127 84.4853 116.127 85.072V86.592C116.127 87.1787 116.266 87.6533 116.543 88.016C116.831 88.368 117.263 88.544 117.839 88.544C118.33 88.544 118.709 88.4213 118.975 88.176C119.242 87.92 119.45 87.6053 119.599 87.232L121.167 87.984C120.89 88.72 120.469 89.2747 119.903 89.648C119.338 90.0107 118.65 90.192 117.839 90.192ZM125.355 90C124.651 90 124.112 89.8187 123.739 89.456C123.376 89.0827 123.195 88.5547 123.195 87.872V83.28H121.963V81.648H122.603C122.912 81.648 123.12 81.5787 123.227 81.44C123.344 81.2907 123.403 81.072 123.403 80.784V79.36H125.243V81.648H126.955V83.28H125.243V88.368H126.827V90H125.355ZM129.755 80.432C129.328 80.432 129.019 80.336 128.827 80.144C128.646 79.952 128.555 79.7067 128.555 79.408V79.088C128.555 78.7893 128.646 78.544 128.827 78.352C129.019 78.16 129.328 78.064 129.755 78.064C130.171 78.064 130.475 78.16 130.667 78.352C130.859 78.544 130.955 78.7893 130.955 79.088V79.408C130.955 79.7067 130.859 79.952 130.667 80.144C130.475 80.336 130.171 80.432 129.755 80.432ZM128.731 81.648H130.779V90H128.731V81.648ZM136.465 90.192C135.867 90.192 135.329 90.0907 134.849 89.888C134.379 89.6853 133.974 89.392 133.633 89.008C133.302 88.624 133.046 88.1653 132.865 87.632C132.683 87.088 132.593 86.48 132.593 85.808C132.593 85.136 132.683 84.5333 132.865 84C133.046 83.4667 133.302 83.0133 133.633 82.64C133.974 82.256 134.379 81.9627 134.849 81.76C135.329 81.5573 135.867 81.456 136.465 81.456C137.062 81.456 137.601 81.5573 138.081 81.76C138.561 81.9627 138.966 82.256 139.297 82.64C139.638 83.0133 139.899 83.4667 140.081 84C140.262 84.5333 140.353 85.136 140.353 85.808C140.353 86.48 140.262 87.088 140.081 87.632C139.899 88.1653 139.638 88.624 139.297 89.008C138.966 89.392 138.561 89.6853 138.081 89.888C137.601 90.0907 137.062 90.192 136.465 90.192ZM136.465 88.544C137.009 88.544 137.435 88.3787 137.745 88.048C138.054 87.7173 138.209 87.232 138.209 86.592V85.04C138.209 84.4107 138.054 83.9307 137.745 83.6C137.435 83.2693 137.009 83.104 136.465 83.104C135.931 83.104 135.51 83.2693 135.201 83.6C134.891 83.9307 134.737 84.4107 134.737 85.04V86.592C134.737 87.232 134.891 87.7173 135.201 88.048C135.51 88.3787 135.931 88.544 136.465 88.544ZM142.168 90V81.648H144.216V83.04H144.296C144.467 82.592 144.734 82.2187 145.096 81.92C145.47 81.6107 145.982 81.456 146.632 81.456C147.496 81.456 148.158 81.7387 148.616 82.304C149.075 82.8693 149.304 83.6747 149.304 84.72V90H147.256V84.928C147.256 84.3307 147.15 83.8827 146.936 83.584C146.723 83.2853 146.371 83.136 145.88 83.136C145.667 83.136 145.459 83.168 145.256 83.232C145.064 83.2853 144.888 83.3707 144.728 83.488C144.579 83.5947 144.456 83.7333 144.36 83.904C144.264 84.064 144.216 84.256 144.216 84.48V90H142.168ZM154.54 81.648H156.508L157.356 85.088L158.012 87.952H158.076L158.844 85.088L159.82 81.648H161.676L162.684 85.088L163.468 87.952H163.532L164.188 85.088L165.02 81.648H166.924L164.636 90H162.428L161.356 86.32L160.732 84.048H160.684L160.076 86.32L159.02 90H156.844L154.54 81.648ZM169.489 80.432C169.063 80.432 168.753 80.336 168.561 80.144C168.38 79.952 168.289 79.7067 168.289 79.408V79.088C168.289 78.7893 168.38 78.544 168.561 78.352C168.753 78.16 169.063 78.064 169.489 78.064C169.905 78.064 170.209 78.16 170.401 78.352C170.593 78.544 170.689 78.7893 170.689 79.088V79.408C170.689 79.7067 170.593 79.952 170.401 80.144C170.209 80.336 169.905 80.432 169.489 80.432ZM168.465 81.648H170.513V90H168.465V81.648ZM175.495 90C174.791 90 174.252 89.8187 173.879 89.456C173.516 89.0827 173.335 88.5547 173.335 87.872V83.28H172.103V81.648H172.743C173.052 81.648 173.26 81.5787 173.367 81.44C173.484 81.2907 173.543 81.072 173.543 80.784V79.36H175.383V81.648H177.095V83.28H175.383V88.368H176.967V90H175.495ZM178.872 78.16H180.92V83.04H181C181.17 82.592 181.437 82.2187 181.799 81.92C182.173 81.6107 182.685 81.456 183.336 81.456C184.2 81.456 184.861 81.7387 185.32 82.304C185.778 82.8693 186.008 83.6747 186.008 84.72V90H183.96V84.928C183.96 84.3307 183.853 83.8827 183.64 83.584C183.426 83.2853 183.074 83.136 182.584 83.136C182.37 83.136 182.162 83.168 181.96 83.232C181.768 83.2853 181.592 83.3707 181.432 83.488C181.282 83.5947 181.16 83.7333 181.064 83.904C180.968 84.064 180.92 84.256 180.92 84.48V90H178.872V78.16ZM195.435 90.192C194.816 90.192 194.262 90.0907 193.771 89.888C193.291 89.6747 192.88 89.3813 192.539 89.008C192.208 88.624 191.952 88.1653 191.771 87.632C191.59 87.088 191.499 86.48 191.499 85.808C191.499 85.1467 191.584 84.5493 191.755 84.016C191.936 83.4827 192.192 83.0293 192.523 82.656C192.854 82.272 193.259 81.9787 193.739 81.776C194.219 81.5627 194.763 81.456 195.371 81.456C196.022 81.456 196.587 81.568 197.067 81.792C197.547 82.016 197.942 82.32 198.251 82.704C198.56 83.088 198.79 83.536 198.939 84.048C199.099 84.5493 199.179 85.088 199.179 85.664V86.336H193.627V86.544C193.627 87.152 193.798 87.6427 194.139 88.016C194.48 88.3787 194.987 88.56 195.659 88.56C196.171 88.56 196.587 88.4533 196.907 88.24C197.238 88.0267 197.531 87.7547 197.787 87.424L198.891 88.656C198.55 89.136 198.08 89.5147 197.483 89.792C196.896 90.0587 196.214 90.192 195.435 90.192ZM195.403 82.992C194.859 82.992 194.427 83.1733 194.107 83.536C193.787 83.8987 193.627 84.368 193.627 84.944V85.072H197.051V84.928C197.051 84.352 196.907 83.888 196.619 83.536C196.342 83.1733 195.936 82.992 195.403 82.992ZM207.125 90C206.677 90 206.32 89.872 206.053 89.616C205.797 89.3493 205.637 88.9973 205.573 88.56H205.477C205.338 89.104 205.056 89.5147 204.629 89.792C204.202 90.0587 203.674 90.192 203.045 90.192C202.192 90.192 201.536 89.968 201.077 89.52C200.618 89.072 200.389 88.4747 200.389 87.728C200.389 86.864 200.698 86.224 201.317 85.808C201.936 85.3813 202.816 85.168 203.957 85.168H205.381V84.56C205.381 84.0907 205.258 83.728 205.013 83.472C204.768 83.216 204.373 83.088 203.829 83.088C203.349 83.088 202.96 83.1947 202.661 83.408C202.373 83.6107 202.128 83.856 201.925 84.144L200.709 83.056C201.018 82.576 201.429 82.192 201.941 81.904C202.453 81.6053 203.13 81.456 203.973 81.456C205.104 81.456 205.962 81.712 206.549 82.224C207.136 82.736 207.429 83.472 207.429 84.432V88.368H208.261V90H207.125ZM203.733 88.704C204.192 88.704 204.581 88.6027 204.901 88.4C205.221 88.1973 205.381 87.8987 205.381 87.504V86.4H204.069C203.002 86.4 202.469 86.7413 202.469 87.424V87.696C202.469 88.0373 202.576 88.2933 202.789 88.464C203.013 88.624 203.328 88.704 203.733 88.704ZM212.654 90.192C211.854 90.192 211.182 90.0587 210.638 89.792C210.094 89.5147 209.614 89.136 209.198 88.656L210.446 87.44C210.756 87.792 211.092 88.0693 211.454 88.272C211.828 88.4747 212.254 88.576 212.734 88.576C213.225 88.576 213.577 88.4907 213.79 88.32C214.014 88.1493 214.126 87.9147 214.126 87.616C214.126 87.3707 214.046 87.1787 213.886 87.04C213.737 86.8907 213.476 86.7893 213.102 86.736L212.27 86.624C211.364 86.5067 210.67 86.2507 210.19 85.856C209.721 85.4507 209.486 84.864 209.486 84.096C209.486 83.6907 209.561 83.328 209.71 83.008C209.86 82.6773 210.073 82.4 210.35 82.176C210.628 81.9413 210.958 81.7653 211.342 81.648C211.737 81.52 212.174 81.456 212.654 81.456C213.06 81.456 213.417 81.488 213.726 81.552C214.046 81.6053 214.334 81.6907 214.59 81.808C214.846 81.9147 215.081 82.0533 215.294 82.224C215.508 82.384 215.716 82.5653 215.918 82.768L214.718 83.968C214.473 83.712 214.18 83.4987 213.838 83.328C213.497 83.1573 213.124 83.072 212.718 83.072C212.27 83.072 211.945 83.152 211.742 83.312C211.55 83.472 211.454 83.68 211.454 83.936C211.454 84.2133 211.534 84.4267 211.694 84.576C211.865 84.7147 212.148 84.816 212.542 84.88L213.39 84.992C215.193 85.248 216.094 86.0693 216.094 87.456C216.094 87.8613 216.009 88.2347 215.838 88.576C215.678 88.9067 215.449 89.1947 215.15 89.44C214.852 89.6747 214.489 89.8613 214.062 90C213.646 90.128 213.177 90.192 212.654 90.192ZM221.279 90.192C220.66 90.192 220.105 90.0907 219.615 89.888C219.135 89.6747 218.724 89.3813 218.383 89.008C218.052 88.624 217.796 88.1653 217.615 87.632C217.433 87.088 217.343 86.48 217.343 85.808C217.343 85.1467 217.428 84.5493 217.599 84.016C217.78 83.4827 218.036 83.0293 218.367 82.656C218.697 82.272 219.103 81.9787 219.583 81.776C220.063 81.5627 220.607 81.456 221.215 81.456C221.865 81.456 222.431 81.568 222.911 81.792C223.391 82.016 223.785 82.32 224.095 82.704C224.404 83.088 224.633 83.536 224.783 84.048C224.943 84.5493 225.023 85.088 225.023 85.664V86.336H219.471V86.544C219.471 87.152 219.641 87.6427 219.983 88.016C220.324 88.3787 220.831 88.56 221.503 88.56C222.015 88.56 222.431 88.4533 222.751 88.24C223.081 88.0267 223.375 87.7547 223.631 87.424L224.735 88.656C224.393 89.136 223.924 89.5147 223.327 89.792C222.74 90.0587 222.057 90.192 221.279 90.192ZM221.247 82.992C220.703 82.992 220.271 83.1733 219.951 83.536C219.631 83.8987 219.471 84.368 219.471 84.944V85.072H222.895V84.928C222.895 84.352 222.751 83.888 222.463 83.536C222.185 83.1733 221.78 82.992 221.247 82.992ZM231.63 80.432C231.203 80.432 230.894 80.336 230.702 80.144C230.521 79.952 230.43 79.7067 230.43 79.408V79.088C230.43 78.7893 230.521 78.544 230.702 78.352C230.894 78.16 231.203 78.064 231.63 78.064C232.046 78.064 232.35 78.16 232.542 78.352C232.734 78.544 232.83 78.7893 232.83 79.088V79.408C232.83 79.7067 232.734 79.952 232.542 80.144C232.35 80.336 232.046 80.432 231.63 80.432ZM230.606 81.648H232.654V90H230.606V81.648ZM237.764 90.192C236.964 90.192 236.292 90.0587 235.748 89.792C235.204 89.5147 234.724 89.136 234.308 88.656L235.556 87.44C235.865 87.792 236.201 88.0693 236.564 88.272C236.937 88.4747 237.364 88.576 237.844 88.576C238.334 88.576 238.686 88.4907 238.9 88.32C239.124 88.1493 239.236 87.9147 239.236 87.616C239.236 87.3707 239.156 87.1787 238.996 87.04C238.846 86.8907 238.585 86.7893 238.212 86.736L237.38 86.624C236.473 86.5067 235.78 86.2507 235.3 85.856C234.83 85.4507 234.596 84.864 234.596 84.096C234.596 83.6907 234.67 83.328 234.82 83.008C234.969 82.6773 235.182 82.4 235.46 82.176C235.737 81.9413 236.068 81.7653 236.452 81.648C236.846 81.52 237.284 81.456 237.764 81.456C238.169 81.456 238.526 81.488 238.836 81.552C239.156 81.6053 239.444 81.6907 239.7 81.808C239.956 81.9147 240.19 82.0533 240.404 82.224C240.617 82.384 240.825 82.5653 241.028 82.768L239.828 83.968C239.582 83.712 239.289 83.4987 238.948 83.328C238.606 83.1573 238.233 83.072 237.828 83.072C237.38 83.072 237.054 83.152 236.852 83.312C236.66 83.472 236.564 83.68 236.564 83.936C236.564 84.2133 236.644 84.4267 236.804 84.576C236.974 84.7147 237.257 84.816 237.652 84.88L238.5 84.992C240.302 85.248 241.204 86.0693 241.204 87.456C241.204 87.8613 241.118 88.2347 240.948 88.576C240.788 88.9067 240.558 89.1947 240.26 89.44C239.961 89.6747 239.598 89.8613 239.172 90C238.756 90.128 238.286 90.192 237.764 90.192ZM246.793 90V81.648H248.841V83.04H248.921C249.081 82.6027 249.337 82.2293 249.689 81.92C250.041 81.6107 250.532 81.456 251.161 81.456C251.737 81.456 252.233 81.5947 252.649 81.872C253.065 82.1493 253.375 82.5707 253.577 83.136H253.609C253.759 82.6667 254.052 82.272 254.489 81.952C254.937 81.6213 255.497 81.456 256.169 81.456C256.991 81.456 257.62 81.7387 258.057 82.304C258.505 82.8693 258.729 83.6747 258.729 84.72V90H256.681V84.928C256.681 83.7333 256.233 83.136 255.337 83.136C255.135 83.136 254.937 83.168 254.745 83.232C254.564 83.2853 254.399 83.3707 254.249 83.488C254.111 83.5947 253.999 83.7333 253.913 83.904C253.828 84.064 253.785 84.256 253.785 84.48V90H251.737V84.928C251.737 83.7333 251.289 83.136 250.393 83.136C250.201 83.136 250.009 83.168 249.817 83.232C249.636 83.2853 249.471 83.3707 249.321 83.488C249.183 83.5947 249.065 83.7333 248.969 83.904C248.884 84.064 248.841 84.256 248.841 84.48V90H246.793ZM265.992 81.648H267.911L264.552 91.488C264.445 91.7867 264.322 92.0427 264.184 92.256C264.056 92.48 263.901 92.6613 263.72 92.8C263.538 92.9387 263.32 93.04 263.064 93.104C262.808 93.168 262.509 93.2 262.168 93.2H260.936V91.568H262.44L262.824 90.4L259.832 81.648H261.864L263.32 86.064L263.864 88.176H263.96L264.536 86.064L265.992 81.648ZM276.339 90.192C275.721 90.192 275.171 90.0907 274.691 89.888C274.211 89.6853 273.806 89.392 273.475 89.008C273.155 88.624 272.91 88.1653 272.739 87.632C272.569 87.088 272.483 86.48 272.483 85.808C272.483 85.136 272.569 84.5333 272.739 84C272.91 83.4667 273.155 83.0133 273.475 82.64C273.806 82.256 274.211 81.9627 274.691 81.76C275.171 81.5573 275.721 81.456 276.339 81.456C277.182 81.456 277.875 81.6427 278.419 82.016C278.974 82.3893 279.374 82.9067 279.619 83.568L277.939 84.32C277.843 83.968 277.662 83.68 277.395 83.456C277.139 83.2213 276.787 83.104 276.339 83.104C275.763 83.104 275.331 83.2853 275.043 83.648C274.766 84.0107 274.627 84.4853 274.627 85.072V86.592C274.627 87.1787 274.766 87.6533 275.043 88.016C275.331 88.368 275.763 88.544 276.339 88.544C276.83 88.544 277.209 88.4213 277.475 88.176C277.742 87.92 277.95 87.6053 278.099 87.232L279.667 87.984C279.39 88.72 278.969 89.2747 278.403 89.648C277.838 90.0107 277.15 90.192 276.339 90.192ZM284.48 90.192C283.883 90.192 283.344 90.0907 282.864 89.888C282.395 89.6853 281.99 89.392 281.648 89.008C281.318 88.624 281.062 88.1653 280.88 87.632C280.699 87.088 280.608 86.48 280.608 85.808C280.608 85.136 280.699 84.5333 280.88 84C281.062 83.4667 281.318 83.0133 281.648 82.64C281.99 82.256 282.395 81.9627 282.864 81.76C283.344 81.5573 283.883 81.456 284.48 81.456C285.078 81.456 285.616 81.5573 286.096 81.76C286.576 81.9627 286.982 82.256 287.312 82.64C287.654 83.0133 287.915 83.4667 288.096 84C288.278 84.5333 288.368 85.136 288.368 85.808C288.368 86.48 288.278 87.088 288.096 87.632C287.915 88.1653 287.654 88.624 287.312 89.008C286.982 89.392 286.576 89.6853 286.096 89.888C285.616 90.0907 285.078 90.192 284.48 90.192ZM284.48 88.544C285.024 88.544 285.451 88.3787 285.76 88.048C286.07 87.7173 286.224 87.232 286.224 86.592V85.04C286.224 84.4107 286.07 83.9307 285.76 83.6C285.451 83.2693 285.024 83.104 284.48 83.104C283.947 83.104 283.526 83.2693 283.216 83.6C282.907 83.9307 282.752 84.4107 282.752 85.04V86.592C282.752 87.232 282.907 87.7173 283.216 88.048C283.526 88.3787 283.947 88.544 284.48 88.544ZM290.184 90V81.648H292.232V83.376H292.312C292.365 83.152 292.445 82.9387 292.552 82.736C292.669 82.5227 292.819 82.336 293 82.176C293.181 82.016 293.395 81.888 293.64 81.792C293.896 81.696 294.189 81.648 294.52 81.648H294.968V83.584H294.328C293.635 83.584 293.112 83.6853 292.76 83.888C292.408 84.0907 292.232 84.4213 292.232 84.88V90H290.184ZM299.763 90.192C299.144 90.192 298.59 90.0907 298.099 89.888C297.619 89.6747 297.208 89.3813 296.867 89.008C296.536 88.624 296.28 88.1653 296.099 87.632C295.918 87.088 295.827 86.48 295.827 85.808C295.827 85.1467 295.912 84.5493 296.083 84.016C296.264 83.4827 296.52 83.0293 296.851 82.656C297.182 82.272 297.587 81.9787 298.067 81.776C298.547 81.5627 299.091 81.456 299.699 81.456C300.35 81.456 300.915 81.568 301.395 81.792C301.875 82.016 302.27 82.32 302.579 82.704C302.888 83.088 303.118 83.536 303.267 84.048C303.427 84.5493 303.507 85.088 303.507 85.664V86.336H297.955V86.544C297.955 87.152 298.126 87.6427 298.467 88.016C298.808 88.3787 299.315 88.56 299.987 88.56C300.499 88.56 300.915 88.4533 301.235 88.24C301.566 88.0267 301.859 87.7547 302.115 87.424L303.219 88.656C302.878 89.136 302.408 89.5147 301.811 89.792C301.224 90.0587 300.542 90.192 299.763 90.192ZM299.731 82.992C299.187 82.992 298.755 83.1733 298.435 83.536C298.115 83.8987 297.955 84.368 297.955 84.944V85.072H301.379V84.928C301.379 84.352 301.235 83.888 300.947 83.536C300.67 83.1733 300.264 82.992 299.731 82.992ZM310.882 90L308.098 81.648H310.114L311.282 85.248L312.098 88.224H312.21L313.026 85.248L314.162 81.648H316.114L313.314 90H310.882ZM323.484 90C323.036 90 322.679 89.872 322.412 89.616C322.156 89.3493 321.996 88.9973 321.932 88.56H321.836C321.698 89.104 321.415 89.5147 320.988 89.792C320.562 90.0587 320.034 90.192 319.404 90.192C318.551 90.192 317.895 89.968 317.436 89.52C316.978 89.072 316.748 88.4747 316.748 87.728C316.748 86.864 317.058 86.224 317.676 85.808C318.295 85.3813 319.175 85.168 320.316 85.168H321.74V84.56C321.74 84.0907 321.618 83.728 321.372 83.472C321.127 83.216 320.732 83.088 320.188 83.088C319.708 83.088 319.319 83.1947 319.02 83.408C318.732 83.6107 318.487 83.856 318.284 84.144L317.068 83.056C317.378 82.576 317.788 82.192 318.3 81.904C318.812 81.6053 319.49 81.456 320.332 81.456C321.463 81.456 322.322 81.712 322.908 82.224C323.495 82.736 323.788 83.472 323.788 84.432V88.368H324.62V90H323.484ZM320.092 88.704C320.551 88.704 320.94 88.6027 321.26 88.4C321.58 88.1973 321.74 87.8987 321.74 87.504V86.4H320.428C319.362 86.4 318.828 86.7413 318.828 87.424V87.696C318.828 88.0373 318.935 88.2933 319.148 88.464C319.372 88.624 319.687 88.704 320.092 88.704ZM328.326 90C327.622 90 327.104 89.824 326.774 89.472C326.443 89.12 326.278 88.624 326.278 87.984V78.16H328.326V88.368H329.43V90H328.326ZM335.973 88.608H335.893C335.818 88.8213 335.717 89.024 335.589 89.216C335.472 89.3973 335.317 89.5627 335.125 89.712C334.944 89.8613 334.72 89.9787 334.453 90.064C334.197 90.1493 333.898 90.192 333.557 90.192C332.693 90.192 332.032 89.9093 331.573 89.344C331.114 88.7787 330.885 87.9733 330.885 86.928V81.648H332.933V86.72C332.933 87.296 333.045 87.7387 333.269 88.048C333.493 88.3467 333.85 88.496 334.341 88.496C334.544 88.496 334.741 88.4693 334.933 88.416C335.136 88.3627 335.312 88.2827 335.461 88.176C335.61 88.0587 335.733 87.92 335.829 87.76C335.925 87.5893 335.973 87.392 335.973 87.168V81.648H338.021V90H335.973V88.608ZM343.763 90.192C343.144 90.192 342.59 90.0907 342.099 89.888C341.619 89.6747 341.208 89.3813 340.867 89.008C340.536 88.624 340.28 88.1653 340.099 87.632C339.918 87.088 339.827 86.48 339.827 85.808C339.827 85.1467 339.912 84.5493 340.083 84.016C340.264 83.4827 340.52 83.0293 340.851 82.656C341.182 82.272 341.587 81.9787 342.067 81.776C342.547 81.5627 343.091 81.456 343.699 81.456C344.35 81.456 344.915 81.568 345.395 81.792C345.875 82.016 346.27 82.32 346.579 82.704C346.888 83.088 347.118 83.536 347.267 84.048C347.427 84.5493 347.507 85.088 347.507 85.664V86.336H341.955V86.544C341.955 87.152 342.126 87.6427 342.467 88.016C342.808 88.3787 343.315 88.56 343.987 88.56C344.499 88.56 344.915 88.4533 345.235 88.24C345.566 88.0267 345.859 87.7547 346.115 87.424L347.219 88.656C346.878 89.136 346.408 89.5147 345.811 89.792C345.224 90.0587 344.542 90.192 343.763 90.192ZM343.731 82.992C343.187 82.992 342.755 83.1733 342.435 83.536C342.115 83.8987 341.955 84.368 341.955 84.944V85.072H345.379V84.928C345.379 84.352 345.235 83.888 344.947 83.536C344.67 83.1733 344.264 82.992 343.731 82.992ZM350.259 90.176C349.822 90.176 349.496 90.0693 349.283 89.856C349.08 89.632 348.979 89.3493 348.979 89.008V88.72C348.979 88.3787 349.08 88.096 349.283 87.872C349.496 87.648 349.822 87.536 350.259 87.536C350.707 87.536 351.032 87.648 351.235 87.872C351.438 88.096 351.539 88.3787 351.539 88.72V89.008C351.539 89.3493 351.438 89.632 351.235 89.856C351.032 90.0693 350.707 90.176 350.259 90.176ZM364.646 90L363.75 87.152H359.782L358.902 90H356.758L360.502 78.832H363.126L366.838 90H364.646ZM361.798 80.752H361.718L360.294 85.344H363.238L361.798 80.752ZM370.404 90C369.7 90 369.183 89.824 368.852 89.472C368.521 89.12 368.356 88.624 368.356 87.984V78.16H370.404V88.368H371.508V90H370.404ZM375.795 90.192C374.995 90.192 374.323 90.0587 373.779 89.792C373.235 89.5147 372.755 89.136 372.339 88.656L373.587 87.44C373.896 87.792 374.232 88.0693 374.595 88.272C374.968 88.4747 375.395 88.576 375.875 88.576C376.366 88.576 376.718 88.4907 376.931 88.32C377.155 88.1493 377.267 87.9147 377.267 87.616C377.267 87.3707 377.187 87.1787 377.027 87.04C376.878 86.8907 376.616 86.7893 376.243 86.736L375.411 86.624C374.504 86.5067 373.811 86.2507 373.331 85.856C372.862 85.4507 372.627 84.864 372.627 84.096C372.627 83.6907 372.702 83.328 372.851 83.008C373 82.6773 373.214 82.4 373.491 82.176C373.768 81.9413 374.099 81.7653 374.483 81.648C374.878 81.52 375.315 81.456 375.795 81.456C376.2 81.456 376.558 81.488 376.867 81.552C377.187 81.6053 377.475 81.6907 377.731 81.808C377.987 81.9147 378.222 82.0533 378.435 82.224C378.648 82.384 378.856 82.5653 379.059 82.768L377.859 83.968C377.614 83.712 377.32 83.4987 376.979 83.328C376.638 83.1573 376.264 83.072 375.859 83.072C375.411 83.072 375.086 83.152 374.883 83.312C374.691 83.472 374.595 83.68 374.595 83.936C374.595 84.2133 374.675 84.4267 374.835 84.576C375.006 84.7147 375.288 84.816 375.683 84.88L376.531 84.992C378.334 85.248 379.235 86.0693 379.235 87.456C379.235 87.8613 379.15 88.2347 378.979 88.576C378.819 88.9067 378.59 89.1947 378.291 89.44C377.992 89.6747 377.63 89.8613 377.203 90C376.787 90.128 376.318 90.192 375.795 90.192ZM384.355 90.192C383.758 90.192 383.219 90.0907 382.739 89.888C382.27 89.6853 381.865 89.392 381.523 89.008C381.193 88.624 380.937 88.1653 380.755 87.632C380.574 87.088 380.483 86.48 380.483 85.808C380.483 85.136 380.574 84.5333 380.755 84C380.937 83.4667 381.193 83.0133 381.523 82.64C381.865 82.256 382.27 81.9627 382.739 81.76C383.219 81.5573 383.758 81.456 384.355 81.456C384.953 81.456 385.491 81.5573 385.971 81.76C386.451 81.9627 386.857 82.256 387.187 82.64C387.529 83.0133 387.79 83.4667 387.971 84C388.153 84.5333 388.243 85.136 388.243 85.808C388.243 86.48 388.153 87.088 387.971 87.632C387.79 88.1653 387.529 88.624 387.187 89.008C386.857 89.392 386.451 89.6853 385.971 89.888C385.491 90.0907 384.953 90.192 384.355 90.192ZM384.355 88.544C384.899 88.544 385.326 88.3787 385.635 88.048C385.945 87.7173 386.099 87.232 386.099 86.592V85.04C386.099 84.4107 385.945 83.9307 385.635 83.6C385.326 83.2693 384.899 83.104 384.355 83.104C383.822 83.104 383.401 83.2693 383.091 83.6C382.782 83.9307 382.627 84.4107 382.627 85.04V86.592C382.627 87.232 382.782 87.7173 383.091 88.048C383.401 88.3787 383.822 88.544 384.355 88.544ZM391.009 87.536C391.446 87.536 391.766 87.648 391.969 87.872C392.182 88.096 392.289 88.3787 392.289 88.72V89.008C392.289 89.296 392.246 89.5947 392.161 89.904C392.086 90.2133 391.974 90.512 391.825 90.8C391.686 91.088 391.516 91.36 391.313 91.616C391.121 91.872 390.902 92.096 390.657 92.288H389.201C389.564 91.936 389.868 91.5893 390.113 91.248C390.358 90.9173 390.545 90.5493 390.673 90.144C390.342 90.0907 390.102 89.9627 389.953 89.76C389.804 89.5467 389.729 89.296 389.729 89.008V88.72C389.729 88.3787 389.83 88.096 390.033 87.872C390.236 87.648 390.561 87.536 391.009 87.536ZM398.02 90V88.304H399.492V80.528H398.02V78.832H403.092V80.528H401.604V88.304H403.092V90H398.02ZM67.184 118V109.648H69.232V111.04H69.312C69.4827 110.592 69.7493 110.219 70.112 109.92C70.4853 109.611 70.9973 109.456 71.648 109.456C72.512 109.456 73.1733 109.739 73.632 110.304C74.0907 110.869 74.32 111.675 74.32 112.72V118H72.272V112.928C72.272 112.331 72.1653 111.883 71.952 111.584C71.7387 111.285 71.3867 111.136 70.896 111.136C70.6827 111.136 70.4747 111.168 70.272 111.232C70.08 111.285 69.904 111.371 69.744 111.488C69.5947 111.595 69.472 111.733 69.376 111.904C69.28 112.064 69.232 112.256 69.232 112.48V118H67.184ZM79.9663 118.192C79.3476 118.192 78.7929 118.091 78.3023 117.888C77.8223 117.675 77.4116 117.381 77.0703 117.008C76.7396 116.624 76.4836 116.165 76.3023 115.632C76.1209 115.088 76.0303 114.48 76.0303 113.808C76.0303 113.147 76.1156 112.549 76.2863 112.016C76.4676 111.483 76.7236 111.029 77.0543 110.656C77.3849 110.272 77.7903 109.979 78.2703 109.776C78.7503 109.563 79.2943 109.456 79.9023 109.456C80.5529 109.456 81.1183 109.568 81.5983 109.792C82.0783 110.016 82.4729 110.32 82.7823 110.704C83.0916 111.088 83.3209 111.536 83.4703 112.048C83.6303 112.549 83.7103 113.088 83.7103 113.664V114.336H78.1583V114.544C78.1583 115.152 78.3289 115.643 78.6703 116.016C79.0116 116.379 79.5183 116.56 80.1903 116.56C80.7023 116.56 81.1183 116.453 81.4383 116.24C81.7689 116.027 82.0623 115.755 82.3183 115.424L83.4223 116.656C83.0809 117.136 82.6116 117.515 82.0143 117.792C81.4276 118.059 80.7449 118.192 79.9663 118.192ZM79.9343 110.992C79.3903 110.992 78.9583 111.173 78.6383 111.536C78.3183 111.899 78.1583 112.368 78.1583 112.944V113.072H81.5823V112.928C81.5823 112.352 81.4383 111.888 81.1503 111.536C80.8729 111.173 80.4676 110.992 79.9343 110.992ZM88.8881 118.192C88.2695 118.192 87.7148 118.091 87.2241 117.888C86.7441 117.675 86.3335 117.381 85.9921 117.008C85.6615 116.624 85.4055 116.165 85.2241 115.632C85.0428 115.088 84.9521 114.48 84.9521 113.808C84.9521 113.147 85.0375 112.549 85.2081 112.016C85.3895 111.483 85.6455 111.029 85.9761 110.656C86.3068 110.272 86.7121 109.979 87.1921 109.776C87.6721 109.563 88.2161 109.456 88.8241 109.456C89.4748 109.456 90.0401 109.568 90.5201 109.792C91.0001 110.016 91.3948 110.32 91.7041 110.704C92.0135 111.088 92.2428 111.536 92.3921 112.048C92.5521 112.549 92.6321 113.088 92.6321 113.664V114.336H87.0801V114.544C87.0801 115.152 87.2508 115.643 87.5921 116.016C87.9335 116.379 88.4401 116.56 89.1121 116.56C89.6241 116.56 90.0401 116.453 90.3601 116.24C90.6908 116.027 90.9841 115.755 91.2401 115.424L92.3441 116.656C92.0028 117.136 91.5335 117.515 90.9361 117.792C90.3495 118.059 89.6668 118.192 88.8881 118.192ZM88.8561 110.992C88.3121 110.992 87.8801 111.173 87.5601 111.536C87.2401 111.899 87.0801 112.368 87.0801 112.944V113.072H90.5041V112.928C90.5041 112.352 90.3601 111.888 90.0721 111.536C89.7948 111.173 89.3895 110.992 88.8561 110.992ZM99.618 116.608H99.538C99.3887 117.088 99.106 117.472 98.69 117.76C98.274 118.048 97.7887 118.192 97.234 118.192C96.178 118.192 95.3673 117.813 94.802 117.056C94.2473 116.299 93.97 115.216 93.97 113.808C93.97 112.411 94.2473 111.339 94.802 110.592C95.3673 109.835 96.178 109.456 97.234 109.456C97.7887 109.456 98.274 109.6 98.69 109.888C99.106 110.165 99.3887 110.544 99.538 111.024H99.618V106.16H101.666V118H99.618V116.608ZM97.89 116.496C98.3807 116.496 98.7913 116.379 99.122 116.144C99.4527 115.909 99.618 115.573 99.618 115.136V112.48C99.618 112.075 99.4527 111.749 99.122 111.504C98.7913 111.259 98.3807 111.136 97.89 111.136C97.3567 111.136 96.9247 111.317 96.594 111.68C96.274 112.032 96.114 112.507 96.114 113.104V114.544C96.114 115.141 96.274 115.616 96.594 115.968C96.9247 116.32 97.3567 116.496 97.89 116.496ZM110.417 118C109.713 118 109.174 117.819 108.801 117.456C108.438 117.083 108.257 116.555 108.257 115.872V111.28H107.025V109.648H107.665C107.974 109.648 108.182 109.579 108.289 109.44C108.406 109.291 108.465 109.072 108.465 108.784V107.36H110.305V109.648H112.017V111.28H110.305V116.368H111.889V118H110.417ZM113.793 106.16H115.841V111.04H115.921C116.092 110.592 116.359 110.219 116.721 109.92C117.095 109.611 117.607 109.456 118.257 109.456C119.121 109.456 119.783 109.739 120.241 110.304C120.7 110.869 120.929 111.675 120.929 112.72V118H118.881V112.928C118.881 112.331 118.775 111.883 118.561 111.584C118.348 111.285 117.996 111.136 117.505 111.136C117.292 111.136 117.084 111.168 116.881 111.232C116.689 111.285 116.513 111.371 116.353 111.488C116.204 111.595 116.081 111.733 115.985 111.904C115.889 112.064 115.841 112.256 115.841 112.48V118H113.793V106.16ZM126.576 118.192C125.957 118.192 125.402 118.091 124.912 117.888C124.432 117.675 124.021 117.381 123.68 117.008C123.349 116.624 123.093 116.165 122.912 115.632C122.73 115.088 122.64 114.48 122.64 113.808C122.64 113.147 122.725 112.549 122.896 112.016C123.077 111.483 123.333 111.029 123.664 110.656C123.994 110.272 124.4 109.979 124.88 109.776C125.36 109.563 125.904 109.456 126.512 109.456C127.162 109.456 127.728 109.568 128.208 109.792C128.688 110.016 129.082 110.32 129.392 110.704C129.701 111.088 129.93 111.536 130.08 112.048C130.24 112.549 130.32 113.088 130.32 113.664V114.336H124.768V114.544C124.768 115.152 124.938 115.643 125.28 116.016C125.621 116.379 126.128 116.56 126.8 116.56C127.312 116.56 127.728 116.453 128.048 116.24C128.378 116.027 128.672 115.755 128.928 115.424L130.032 116.656C129.69 117.136 129.221 117.515 128.624 117.792C128.037 118.059 127.354 118.192 126.576 118.192ZM126.544 110.992C126 110.992 125.568 111.173 125.248 111.536C124.928 111.899 124.768 112.368 124.768 112.944V113.072H128.192V112.928C128.192 112.352 128.048 111.888 127.76 111.536C127.482 111.173 127.077 110.992 126.544 110.992ZM132.122 118V109.648H134.17V111.04H134.25C134.41 110.603 134.666 110.229 135.018 109.92C135.37 109.611 135.86 109.456 136.49 109.456C137.066 109.456 137.562 109.595 137.978 109.872C138.394 110.149 138.703 110.571 138.906 111.136H138.938C139.087 110.667 139.38 110.272 139.818 109.952C140.266 109.621 140.826 109.456 141.498 109.456C142.319 109.456 142.948 109.739 143.386 110.304C143.834 110.869 144.058 111.675 144.058 112.72V118H142.01V112.928C142.01 111.733 141.562 111.136 140.666 111.136C140.463 111.136 140.266 111.168 140.074 111.232C139.892 111.285 139.727 111.371 139.578 111.488C139.439 111.595 139.327 111.733 139.242 111.904C139.156 112.064 139.114 112.256 139.114 112.48V118H137.066V112.928C137.066 111.733 136.618 111.136 135.722 111.136C135.53 111.136 135.338 111.168 135.146 111.232C134.964 111.285 134.799 111.371 134.65 111.488C134.511 111.595 134.394 111.733 134.298 111.904C134.212 112.064 134.17 112.256 134.17 112.48V118H132.122ZM152.714 118C152.01 118 151.471 117.819 151.098 117.456C150.735 117.083 150.554 116.555 150.554 115.872V111.28H149.322V109.648H149.962C150.271 109.648 150.479 109.579 150.586 109.44C150.703 109.291 150.762 109.072 150.762 108.784V107.36H152.602V109.648H154.314V111.28H152.602V116.368H154.186V118H152.714ZM159.34 118.192C158.742 118.192 158.204 118.091 157.724 117.888C157.254 117.685 156.849 117.392 156.508 117.008C156.177 116.624 155.921 116.165 155.74 115.632C155.558 115.088 155.468 114.48 155.468 113.808C155.468 113.136 155.558 112.533 155.74 112C155.921 111.467 156.177 111.013 156.508 110.64C156.849 110.256 157.254 109.963 157.724 109.76C158.204 109.557 158.742 109.456 159.34 109.456C159.937 109.456 160.476 109.557 160.956 109.76C161.436 109.963 161.841 110.256 162.172 110.64C162.513 111.013 162.774 111.467 162.956 112C163.137 112.533 163.228 113.136 163.228 113.808C163.228 114.48 163.137 115.088 162.956 115.632C162.774 116.165 162.513 116.624 162.172 117.008C161.841 117.392 161.436 117.685 160.956 117.888C160.476 118.091 159.937 118.192 159.34 118.192ZM159.34 116.544C159.884 116.544 160.31 116.379 160.62 116.048C160.929 115.717 161.084 115.232 161.084 114.592V113.04C161.084 112.411 160.929 111.931 160.62 111.6C160.31 111.269 159.884 111.104 159.34 111.104C158.806 111.104 158.385 111.269 158.076 111.6C157.766 111.931 157.612 112.411 157.612 113.04V114.592C157.612 115.232 157.766 115.717 158.076 116.048C158.385 116.379 158.806 116.544 159.34 116.544ZM171.433 118C170.729 118 170.19 117.819 169.817 117.456C169.454 117.083 169.273 116.555 169.273 115.872V111.28H168.041V109.648H168.681C168.99 109.648 169.198 109.579 169.305 109.44C169.422 109.291 169.481 109.072 169.481 108.784V107.36H171.321V109.648H173.033V111.28H171.321V116.368H172.905V118H171.433ZM174.809 118V109.648H176.857V111.376H176.937C176.99 111.152 177.07 110.939 177.177 110.736C177.294 110.523 177.444 110.336 177.625 110.176C177.806 110.016 178.02 109.888 178.265 109.792C178.521 109.696 178.814 109.648 179.145 109.648H179.593V111.584H178.953C178.26 111.584 177.737 111.685 177.385 111.888C177.033 112.091 176.857 112.421 176.857 112.88V118H174.809ZM186.082 116.608H186.002C185.928 116.821 185.826 117.024 185.698 117.216C185.581 117.397 185.426 117.563 185.234 117.712C185.053 117.861 184.829 117.979 184.562 118.064C184.306 118.149 184.008 118.192 183.666 118.192C182.802 118.192 182.141 117.909 181.682 117.344C181.224 116.779 180.994 115.973 180.994 114.928V109.648H183.042V114.72C183.042 115.296 183.154 115.739 183.378 116.048C183.602 116.347 183.96 116.496 184.45 116.496C184.653 116.496 184.85 116.469 185.042 116.416C185.245 116.363 185.421 116.283 185.57 116.176C185.72 116.059 185.842 115.92 185.938 115.76C186.034 115.589 186.082 115.392 186.082 115.168V109.648H188.13V118H186.082V116.608ZM193.233 118.192C192.433 118.192 191.761 118.059 191.217 117.792C190.673 117.515 190.193 117.136 189.777 116.656L191.025 115.44C191.334 115.792 191.67 116.069 192.033 116.272C192.406 116.475 192.833 116.576 193.312 116.576C193.803 116.576 194.155 116.491 194.369 116.32C194.593 116.149 194.705 115.915 194.705 115.616C194.705 115.371 194.625 115.179 194.465 115.04C194.315 114.891 194.054 114.789 193.681 114.736L192.849 114.624C191.942 114.507 191.249 114.251 190.769 113.856C190.299 113.451 190.065 112.864 190.065 112.096C190.065 111.691 190.139 111.328 190.289 111.008C190.438 110.677 190.651 110.4 190.929 110.176C191.206 109.941 191.537 109.765 191.921 109.648C192.315 109.52 192.753 109.456 193.233 109.456C193.638 109.456 193.995 109.488 194.305 109.552C194.625 109.605 194.913 109.691 195.169 109.808C195.425 109.915 195.659 110.053 195.873 110.224C196.086 110.384 196.294 110.565 196.497 110.768L195.297 111.968C195.051 111.712 194.758 111.499 194.417 111.328C194.075 111.157 193.702 111.072 193.297 111.072C192.849 111.072 192.523 111.152 192.321 111.312C192.129 111.472 192.033 111.68 192.033 111.936C192.033 112.213 192.113 112.427 192.273 112.576C192.443 112.715 192.726 112.816 193.121 112.88L193.969 112.992C195.771 113.248 196.673 114.069 196.673 115.456C196.673 115.861 196.587 116.235 196.417 116.576C196.257 116.907 196.027 117.195 195.729 117.44C195.43 117.675 195.067 117.861 194.641 118C194.225 118.128 193.755 118.192 193.233 118.192ZM200.964 118C200.26 118 199.721 117.819 199.348 117.456C198.985 117.083 198.804 116.555 198.804 115.872V111.28H197.572V109.648H198.212C198.521 109.648 198.729 109.579 198.836 109.44C198.953 109.291 199.012 109.072 199.012 108.784V107.36H200.852V109.648H202.564V111.28H200.852V116.368H202.436V118H200.964ZM208.122 118V109.648H210.17V111.04H210.25C210.41 110.603 210.666 110.229 211.018 109.92C211.37 109.611 211.86 109.456 212.49 109.456C213.066 109.456 213.562 109.595 213.978 109.872C214.394 110.149 214.703 110.571 214.906 111.136H214.938C215.087 110.667 215.38 110.272 215.818 109.952C216.266 109.621 216.826 109.456 217.498 109.456C218.319 109.456 218.948 109.739 219.386 110.304C219.834 110.869 220.058 111.675 220.058 112.72V118H218.01V112.928C218.01 111.733 217.562 111.136 216.666 111.136C216.463 111.136 216.266 111.168 216.074 111.232C215.892 111.285 215.727 111.371 215.578 111.488C215.439 111.595 215.327 111.733 215.242 111.904C215.156 112.064 215.114 112.256 215.114 112.48V118H213.066V112.928C213.066 111.733 212.618 111.136 211.722 111.136C211.53 111.136 211.338 111.168 211.146 111.232C210.964 111.285 210.799 111.371 210.65 111.488C210.511 111.595 210.394 111.733 210.298 111.904C210.212 112.064 210.17 112.256 210.17 112.48V118H208.122ZM225.701 118.192C225.082 118.192 224.527 118.091 224.037 117.888C223.557 117.675 223.146 117.381 222.805 117.008C222.474 116.624 222.218 116.165 222.037 115.632C221.855 115.088 221.765 114.48 221.765 113.808C221.765 113.147 221.85 112.549 222.021 112.016C222.202 111.483 222.458 111.029 222.789 110.656C223.119 110.272 223.525 109.979 224.005 109.776C224.485 109.563 225.029 109.456 225.637 109.456C226.287 109.456 226.853 109.568 227.333 109.792C227.813 110.016 228.207 110.32 228.517 110.704C228.826 111.088 229.055 111.536 229.205 112.048C229.365 112.549 229.445 113.088 229.445 113.664V114.336H223.893V114.544C223.893 115.152 224.063 115.643 224.405 116.016C224.746 116.379 225.253 116.56 225.925 116.56C226.437 116.56 226.853 116.453 227.173 116.24C227.503 116.027 227.797 115.755 228.053 115.424L229.157 116.656C228.815 117.136 228.346 117.515 227.749 117.792C227.162 118.059 226.479 118.192 225.701 118.192ZM225.669 110.992C225.125 110.992 224.693 111.173 224.373 111.536C224.053 111.899 223.893 112.368 223.893 112.944V113.072H227.317V112.928C227.317 112.352 227.173 111.888 226.885 111.536C226.607 111.173 226.202 110.992 225.669 110.992ZM234.212 109.648H236.18L237.028 113.088L237.684 115.952H237.748L238.516 113.088L239.492 109.648H241.348L242.356 113.088L243.14 115.952H243.204L243.86 113.088L244.692 109.648H246.596L244.308 118H242.1L241.028 114.32L240.404 112.048H240.356L239.748 114.32L238.692 118H236.516L234.212 109.648ZM249.161 108.432C248.734 108.432 248.425 108.336 248.233 108.144C248.052 107.952 247.961 107.707 247.961 107.408V107.088C247.961 106.789 248.052 106.544 248.233 106.352C248.425 106.16 248.734 106.064 249.161 106.064C249.577 106.064 249.881 106.16 250.073 106.352C250.265 106.544 250.361 106.789 250.361 107.088V107.408C250.361 107.707 250.265 107.952 250.073 108.144C249.881 108.336 249.577 108.432 249.161 108.432ZM248.137 109.648H250.185V118H248.137V109.648ZM255.167 118C254.463 118 253.924 117.819 253.551 117.456C253.188 117.083 253.007 116.555 253.007 115.872V111.28H251.775V109.648H252.415C252.724 109.648 252.932 109.579 253.039 109.44C253.156 109.291 253.215 109.072 253.215 108.784V107.36H255.055V109.648H256.767V111.28H255.055V116.368H256.639V118H255.167ZM258.543 106.16H260.591V111.04H260.671C260.842 110.592 261.109 110.219 261.471 109.92C261.845 109.611 262.357 109.456 263.007 109.456C263.871 109.456 264.533 109.739 264.991 110.304C265.45 110.869 265.679 111.675 265.679 112.72V118H263.631V112.928C263.631 112.331 263.525 111.883 263.311 111.584C263.098 111.285 262.746 111.136 262.255 111.136C262.042 111.136 261.834 111.168 261.631 111.232C261.439 111.285 261.263 111.371 261.103 111.488C260.954 111.595 260.831 111.733 260.735 111.904C260.639 112.064 260.591 112.256 260.591 112.48V118H258.543V106.16ZM274.339 118C273.635 118 273.096 117.819 272.723 117.456C272.36 117.083 272.179 116.555 272.179 115.872V111.28H270.947V109.648H271.587C271.896 109.648 272.104 109.579 272.211 109.44C272.328 109.291 272.387 109.072 272.387 108.784V107.36H274.227V109.648H275.939V111.28H274.227V116.368H275.811V118H274.339ZM277.715 106.16H279.763V111.04H279.843C280.014 110.592 280.281 110.219 280.643 109.92C281.017 109.611 281.529 109.456 282.179 109.456C283.043 109.456 283.705 109.739 284.163 110.304C284.622 110.869 284.851 111.675 284.851 112.72V118H282.803V112.928C282.803 112.331 282.697 111.883 282.483 111.584C282.27 111.285 281.918 111.136 281.427 111.136C281.214 111.136 281.006 111.168 280.803 111.232C280.611 111.285 280.435 111.371 280.275 111.488C280.126 111.595 280.003 111.733 279.907 111.904C279.811 112.064 279.763 112.256 279.763 112.48V118H277.715V106.16ZM290.498 118.192C289.879 118.192 289.324 118.091 288.834 117.888C288.354 117.675 287.943 117.381 287.602 117.008C287.271 116.624 287.015 116.165 286.834 115.632C286.652 115.088 286.562 114.48 286.562 113.808C286.562 113.147 286.647 112.549 286.818 112.016C286.999 111.483 287.255 111.029 287.586 110.656C287.916 110.272 288.322 109.979 288.802 109.776C289.282 109.563 289.826 109.456 290.434 109.456C291.084 109.456 291.65 109.568 292.13 109.792C292.61 110.016 293.004 110.32 293.314 110.704C293.623 111.088 293.852 111.536 294.002 112.048C294.162 112.549 294.242 113.088 294.242 113.664V114.336H288.69V114.544C288.69 115.152 288.86 115.643 289.202 116.016C289.543 116.379 290.05 116.56 290.722 116.56C291.234 116.56 291.65 116.453 291.97 116.24C292.3 116.027 292.594 115.755 292.85 115.424L293.954 116.656C293.612 117.136 293.143 117.515 292.546 117.792C291.959 118.059 291.276 118.192 290.498 118.192ZM290.466 110.992C289.922 110.992 289.49 111.173 289.17 111.536C288.85 111.899 288.69 112.368 288.69 112.944V113.072H292.114V112.928C292.114 112.352 291.97 111.888 291.682 111.536C291.404 111.173 290.999 110.992 290.466 110.992ZM297.067 108.432C296.641 108.432 296.331 108.336 296.139 108.144C295.958 107.952 295.867 107.707 295.867 107.408V107.088C295.867 106.789 295.958 106.544 296.139 106.352C296.331 106.16 296.641 106.064 297.067 106.064C297.483 106.064 297.787 106.16 297.979 106.352C298.171 106.544 298.267 106.789 298.267 107.088V107.408C298.267 107.707 298.171 107.952 297.979 108.144C297.787 108.336 297.483 108.432 297.067 108.432ZM296.043 109.648H298.091V118H296.043V109.648ZM300.465 118V109.648H302.513V111.376H302.593C302.647 111.152 302.727 110.939 302.833 110.736C302.951 110.523 303.1 110.336 303.281 110.176C303.463 110.016 303.676 109.888 303.921 109.792C304.177 109.696 304.471 109.648 304.801 109.648H305.249V111.584H304.609C303.916 111.584 303.393 111.685 303.041 111.888C302.689 112.091 302.513 112.421 302.513 112.88V118H300.465ZM310.528 118V109.648H312.576V111.04H312.656C312.816 110.603 313.072 110.229 313.424 109.92C313.776 109.611 314.266 109.456 314.896 109.456C315.472 109.456 315.968 109.595 316.384 109.872C316.8 110.149 317.109 110.571 317.312 111.136H317.344C317.493 110.667 317.786 110.272 318.224 109.952C318.672 109.621 319.232 109.456 319.904 109.456C320.725 109.456 321.354 109.739 321.792 110.304C322.24 110.869 322.464 111.675 322.464 112.72V118H320.416V112.928C320.416 111.733 319.968 111.136 319.072 111.136C318.869 111.136 318.672 111.168 318.48 111.232C318.298 111.285 318.133 111.371 317.984 111.488C317.845 111.595 317.733 111.733 317.648 111.904C317.562 112.064 317.52 112.256 317.52 112.48V118H315.472V112.928C315.472 111.733 315.024 111.136 314.128 111.136C313.936 111.136 313.744 111.168 313.552 111.232C313.37 111.285 313.205 111.371 313.056 111.488C312.917 111.595 312.8 111.733 312.704 111.904C312.618 112.064 312.576 112.256 312.576 112.48V118H310.528ZM328.043 118.192C327.446 118.192 326.907 118.091 326.427 117.888C325.958 117.685 325.552 117.392 325.211 117.008C324.88 116.624 324.624 116.165 324.443 115.632C324.262 115.088 324.171 114.48 324.171 113.808C324.171 113.136 324.262 112.533 324.443 112C324.624 111.467 324.88 111.013 325.211 110.64C325.552 110.256 325.958 109.963 326.427 109.76C326.907 109.557 327.446 109.456 328.043 109.456C328.64 109.456 329.179 109.557 329.659 109.76C330.139 109.963 330.544 110.256 330.875 110.64C331.216 111.013 331.478 111.467 331.659 112C331.84 112.533 331.931 113.136 331.931 113.808C331.931 114.48 331.84 115.088 331.659 115.632C331.478 116.165 331.216 116.624 330.875 117.008C330.544 117.392 330.139 117.685 329.659 117.888C329.179 118.091 328.64 118.192 328.043 118.192ZM328.043 116.544C328.587 116.544 329.014 116.379 329.323 116.048C329.632 115.717 329.787 115.232 329.787 114.592V113.04C329.787 112.411 329.632 111.931 329.323 111.6C329.014 111.269 328.587 111.104 328.043 111.104C327.51 111.104 327.088 111.269 326.779 111.6C326.47 111.931 326.315 112.411 326.315 113.04V114.592C326.315 115.232 326.47 115.717 326.779 116.048C327.088 116.379 327.51 116.544 328.043 116.544ZM333.747 118V109.648H335.795V111.04H335.875C336.045 110.592 336.312 110.219 336.674 109.92C337.048 109.611 337.56 109.456 338.211 109.456C339.075 109.456 339.736 109.739 340.195 110.304C340.653 110.869 340.883 111.675 340.883 112.72V118H338.835V112.928C338.835 112.331 338.728 111.883 338.515 111.584C338.301 111.285 337.949 111.136 337.459 111.136C337.245 111.136 337.037 111.168 336.835 111.232C336.643 111.285 336.467 111.371 336.307 111.488C336.157 111.595 336.035 111.733 335.939 111.904C335.843 112.064 335.795 112.256 335.795 112.48V118H333.747ZM346.529 118.192C345.91 118.192 345.355 118.091 344.865 117.888C344.385 117.675 343.974 117.381 343.633 117.008C343.302 116.624 343.046 116.165 342.865 115.632C342.683 115.088 342.593 114.48 342.593 113.808C342.593 113.147 342.678 112.549 342.849 112.016C343.03 111.483 343.286 111.029 343.617 110.656C343.947 110.272 344.353 109.979 344.833 109.776C345.313 109.563 345.857 109.456 346.465 109.456C347.115 109.456 347.681 109.568 348.161 109.792C348.641 110.016 349.035 110.32 349.345 110.704C349.654 111.088 349.883 111.536 350.033 112.048C350.193 112.549 350.273 113.088 350.273 113.664V114.336H344.721V114.544C344.721 115.152 344.891 115.643 345.233 116.016C345.574 116.379 346.081 116.56 346.753 116.56C347.265 116.56 347.681 116.453 348.001 116.24C348.331 116.027 348.625 115.755 348.881 115.424L349.985 116.656C349.643 117.136 349.174 117.515 348.577 117.792C347.99 118.059 347.307 118.192 346.529 118.192ZM346.497 110.992C345.953 110.992 345.521 111.173 345.201 111.536C344.881 111.899 344.721 112.368 344.721 112.944V113.072H348.145V112.928C348.145 112.352 348.001 111.888 347.713 111.536C347.435 111.173 347.03 110.992 346.497 110.992ZM357.101 109.648H359.021L355.661 119.488C355.554 119.787 355.432 120.043 355.293 120.256C355.165 120.48 355.01 120.661 354.829 120.8C354.648 120.939 354.429 121.04 354.173 121.104C353.917 121.168 353.618 121.2 353.277 121.2H352.045V119.568H353.549L353.933 118.4L350.941 109.648H352.973L354.429 114.064L354.973 116.176H355.069L355.645 114.064L357.101 109.648ZM360.806 118.176C360.369 118.176 360.043 118.069 359.83 117.856C359.627 117.632 359.526 117.349 359.526 117.008V116.72C359.526 116.379 359.627 116.096 359.83 115.872C360.043 115.648 360.369 115.536 360.806 115.536C361.254 115.536 361.579 115.648 361.782 115.872C361.985 116.096 362.086 116.379 362.086 116.72V117.008C362.086 117.349 361.985 117.632 361.782 117.856C361.579 118.069 361.254 118.176 360.806 118.176Z" fill="#143D61"/>
<path d="M42.3593 0.000732422C47.6551 0.000732422 51.9551 4.46049 51.9551 10.0002C51.9551 15.2112 48.1076 19.4363 43.2193 19.9057C44.2151 21.7834 46.0255 23.8022 49.1036 25.7271C49.9637 26.2435 50.5067 27.1823 50.5067 28.1683C50.5067 30.1868 48.515 31.5953 46.7046 30.7504C41.4537 28.3088 32.7183 22.3472 32.7183 10.0004C32.7183 4.46066 37.0183 0.000984418 42.3594 0.000984418L42.3593 0.000732422Z" fill="#188AEC"/>
<path d="M18.5509 0.000586499C23.8921 0.000586499 28.1919 4.46035 28.1919 10C28.1919 15.211 24.3444 19.4361 19.4561 19.9056C20.4519 21.7832 22.2623 23.8021 25.3404 25.7269C26.2005 26.2434 26.7435 27.1822 26.7435 28.1682C26.7435 30.1867 24.7518 31.5952 22.9415 30.7503C17.7364 28.309 9.00041 22.394 9.00041 10.0003C8.95495 4.46018 13.2549 0 18.5509 0L18.5509 0.000586499Z" fill="#188AEC"/>
</svg>
